<svg width="25" height="24" viewBox="0 0 25 24" fill="none" xmlns="http://www.w3.org/2000/svg">
  <g clip-path="url(#clip0_155_226)">
    <path
      d="M11.2158 12C11.2158 12.2652 11.3212 12.5196 11.5087 12.7071C11.6963 12.8946 11.9506 13 12.2158 13C12.481 13 12.7354 12.8946 12.9229 12.7071C13.1105 12.5196 13.2158 12.2652 13.2158 12C13.2158 11.7348 13.1105 11.4804 12.9229 11.2929C12.7354 11.1054 12.481 11 12.2158 11C11.9506 11 11.6963 11.1054 11.5087 11.2929C11.3212 11.4804 11.2158 11.7348 11.2158 12Z"
      stroke="#A1A1A1" stroke-width="2" stroke-linecap="round" stroke-linejoin="round" />
    <path
      d="M11.2158 19C11.2158 19.2652 11.3212 19.5196 11.5087 19.7071C11.6963 19.8946 11.9506 20 12.2158 20C12.481 20 12.7354 19.8946 12.9229 19.7071C13.1105 19.5196 13.2158 19.2652 13.2158 19C13.2158 18.7348 13.1105 18.4804 12.9229 18.2929C12.7354 18.1054 12.481 18 12.2158 18C11.9506 18 11.6963 18.1054 11.5087 18.2929C11.3212 18.4804 11.2158 18.7348 11.2158 19Z"
      stroke="#A1A1A1" stroke-width="2" stroke-linecap="round" stroke-linejoin="round" />
    <path
      d="M11.2158 5C11.2158 5.26522 11.3212 5.51957 11.5087 5.70711C11.6963 5.89464 11.9506 6 12.2158 6C12.481 6 12.7354 5.89464 12.9229 5.70711C13.1105 5.51957 13.2158 5.26522 13.2158 5C13.2158 4.73478 13.1105 4.48043 12.9229 4.29289C12.7354 4.10536 12.481 4 12.2158 4C11.9506 4 11.6963 4.10536 11.5087 4.29289C11.3212 4.48043 11.2158 4.73478 11.2158 5Z"
      stroke="#A1A1A1" stroke-width="2" stroke-linecap="round" stroke-linejoin="round" />
  </g>
  <defs>
    <clipPath id="clip0_155_226">
      <rect width="24" height="24" fill="white" transform="translate(0.21582)" />
    </clipPath>
  </defs>
</svg>