<svg width="629" height="645" viewBox="0 0 629 645" fill="none" xmlns="http://www.w3.org/2000/svg">
<circle cx="317" cy="325" r="286.5" transform="rotate(120 317 325)" stroke="#D7D7D7" stroke-width="33"/>
<path d="M168.999 572.47C207.61 594.762 250.797 607.931 295.215 610.957C339.633 613.984 384.09 606.786 425.143 589.923C466.196 573.059 502.742 546.981 531.953 513.71C561.163 480.438 582.253 440.865 593.589 398.056C604.924 355.247 606.202 310.351 597.322 266.845C588.443 223.339 569.644 182.391 542.383 147.172C515.121 111.953 480.128 83.4089 440.115 63.7498C400.101 44.0907 356.14 33.8446 311.637 33.805" stroke="#05A4C3" stroke-width="30" stroke-linecap="round"/>
<path d="M215.453 380.456C210.359 380.421 205.385 379.537 200.533 377.804C195.68 376.037 191.313 373.177 187.432 369.226C183.55 365.24 180.465 359.955 178.178 353.37C175.89 346.75 174.764 338.553 174.798 328.779C174.798 319.664 175.769 311.536 177.71 304.396C179.651 297.257 182.441 291.226 186.08 286.304C189.719 281.348 194.103 277.57 199.233 274.971C204.397 272.371 210.168 271.072 216.545 271.072C223.234 271.072 229.161 272.389 234.325 275.023C239.524 277.657 243.718 281.261 246.907 285.836C250.095 290.377 252.071 295.506 252.833 301.225H233.857C232.887 297.135 230.894 293.877 227.879 291.451C224.898 288.99 221.12 287.76 216.545 287.76C209.163 287.76 203.479 290.966 199.493 297.378C195.542 303.79 193.549 312.593 193.514 323.788H194.242C195.94 320.738 198.141 318.121 200.845 315.938C203.548 313.754 206.598 312.073 209.995 310.895C213.426 309.682 217.048 309.075 220.86 309.075C227.099 309.075 232.696 310.566 237.653 313.546C242.643 316.527 246.595 320.634 249.506 325.868C252.417 331.066 253.856 337.028 253.821 343.752C253.856 350.753 252.261 357.043 249.038 362.624C245.815 368.169 241.326 372.536 235.573 375.725C229.82 378.913 223.113 380.49 215.453 380.456ZM215.349 364.859C219.127 364.859 222.507 363.941 225.487 362.104C228.468 360.267 230.825 357.789 232.558 354.669C234.291 351.55 235.14 348.049 235.105 344.168C235.14 340.355 234.308 336.907 232.61 333.822C230.946 330.737 228.641 328.294 225.695 326.491C222.749 324.689 219.387 323.788 215.609 323.788C212.802 323.788 210.185 324.325 207.759 325.4C205.333 326.474 203.219 327.964 201.416 329.871C199.614 331.742 198.193 333.926 197.153 336.421C196.148 338.882 195.628 341.516 195.594 344.324C195.628 348.032 196.495 351.446 198.193 354.565C199.891 357.685 202.231 360.18 205.212 362.052C208.192 363.923 211.572 364.859 215.349 364.859ZM308.409 380.456C301.477 380.456 295.273 379.156 289.797 376.557C284.321 373.922 279.971 370.318 276.748 365.743C273.559 361.168 271.861 355.934 271.653 350.042H290.369C290.716 354.409 292.605 357.979 296.036 360.752C299.467 363.49 303.591 364.859 308.409 364.859C312.187 364.859 315.549 363.993 318.495 362.26C321.441 360.527 323.763 358.118 325.461 355.033C327.16 351.949 327.991 348.431 327.957 344.48C327.991 340.459 327.142 336.889 325.409 333.77C323.676 330.651 321.302 328.207 318.287 326.439C315.272 324.637 311.806 323.736 307.889 323.736C304.701 323.701 301.564 324.291 298.479 325.504C295.395 326.717 292.951 328.311 291.149 330.287L273.733 327.427L279.295 272.527H341.058V288.644H295.256L292.189 316.874H292.812C294.788 314.551 297.578 312.628 301.183 311.103C304.787 309.543 308.738 308.763 313.036 308.763C319.483 308.763 325.236 310.288 330.296 313.338C335.357 316.354 339.342 320.513 342.254 325.816C345.165 331.118 346.621 337.184 346.621 344.012C346.621 351.047 344.992 357.321 341.734 362.832C338.511 368.308 334.022 372.623 328.269 375.777C322.55 378.896 315.93 380.456 308.409 380.456ZM420.964 359.036V353.422C420.964 349.297 421.831 345.502 423.564 342.036C425.332 338.57 427.896 335.78 431.258 333.666C434.62 331.552 438.693 330.495 443.476 330.495C448.397 330.495 452.522 331.552 455.849 333.666C459.176 335.745 461.689 338.518 463.387 341.984C465.12 345.45 465.987 349.263 465.987 353.422V359.036C465.987 363.161 465.12 366.956 463.387 370.422C461.654 373.888 459.107 376.678 455.745 378.792C452.418 380.906 448.328 381.963 443.476 381.963C438.623 381.963 434.516 380.906 431.154 378.792C427.792 376.678 425.245 373.888 423.512 370.422C421.814 366.956 420.964 363.161 420.964 359.036ZM434.534 353.422V359.036C434.534 361.774 435.192 364.287 436.509 366.575C437.826 368.862 440.148 370.006 443.476 370.006C446.837 370.006 449.142 368.88 450.39 366.627C451.672 364.339 452.314 361.809 452.314 359.036V353.422C452.314 350.649 451.707 348.119 450.494 345.831C449.281 343.509 446.941 342.348 443.476 342.348C440.218 342.348 437.913 343.509 436.561 345.831C435.209 348.119 434.534 350.649 434.534 353.422ZM366.844 298.106V292.491C366.844 288.332 367.728 284.519 369.496 281.053C371.263 277.587 373.828 274.815 377.19 272.735C380.552 270.621 384.624 269.564 389.407 269.564C394.294 269.564 398.401 270.621 401.729 272.735C405.091 274.815 407.621 277.587 409.319 281.053C411.017 284.519 411.866 288.332 411.866 292.491V298.106C411.866 302.265 411 306.077 409.267 309.543C407.569 312.974 405.039 315.73 401.677 317.809C398.315 319.889 394.225 320.929 389.407 320.929C384.52 320.929 380.396 319.889 377.034 317.809C373.707 315.73 371.177 312.957 369.444 309.491C367.711 306.025 366.844 302.23 366.844 298.106ZM380.517 292.491V298.106C380.517 300.878 381.159 303.409 382.441 305.696C383.758 307.949 386.08 309.075 389.407 309.075C392.735 309.075 395.022 307.949 396.27 305.696C397.552 303.409 398.193 300.878 398.193 298.106V292.491C398.193 289.718 397.587 287.188 396.374 284.901C395.161 282.578 392.839 281.417 389.407 281.417C386.115 281.417 383.81 282.578 382.493 284.901C381.176 287.223 380.517 289.753 380.517 292.491ZM372.771 379L445.971 272.527H458.968L385.768 379H372.771Z" fill="white"/>
</svg>
