<svg width="518" height="168" viewBox="0 0 518 168" fill="none" xmlns="http://www.w3.org/2000/svg">
  <path
    d="M83.552 148.198C119.312 148.198 148.302 119.209 148.302 83.4483C148.302 47.6878 119.312 18.6982 83.552 18.6982C47.7915 18.6982 18.8019 47.6878 18.8019 83.4483C18.8019 119.209 47.7915 148.198 83.552 148.198Z"
    fill="#171C2A" />
  <path
    d="M83.552 150.896C70.2121 150.896 57.1717 146.94 46.0799 139.529C34.9882 132.118 26.3432 121.584 21.2382 109.259C16.1332 96.9348 14.7975 83.3732 17.4 70.2896C20.0025 57.206 26.4263 45.1879 35.8591 35.7551C45.2919 26.3223 57.31 19.8985 70.3936 17.296C83.4772 14.6935 97.0388 16.0292 109.363 21.1342C121.688 26.2392 132.222 34.8842 139.633 45.9759C147.044 57.0677 151 70.1081 151 83.448C150.979 101.33 143.866 118.473 131.221 131.117C118.577 143.762 101.434 150.875 83.552 150.896ZM83.552 21.3959C71.2793 21.3959 59.2821 25.0352 49.0777 31.8535C38.8733 38.6719 30.9199 48.3631 26.2233 59.7017C21.5267 71.0403 20.2979 83.5169 22.6922 95.5538C25.0865 107.591 30.9964 118.647 39.6745 127.326C48.3527 136.004 59.4093 141.914 71.4463 144.308C83.4832 146.702 95.9598 145.473 107.298 140.777C118.637 136.08 128.328 128.127 135.147 117.922C141.965 107.718 145.604 95.7208 145.604 83.448C145.583 66.9974 139.038 51.2266 127.406 39.5942C115.773 27.9618 100.003 21.4173 83.552 21.3959Z"
    fill="#00D991" />
  <path
    d="M67.5976 88.5072L67.2068 88.8985C67.0068 89.0988 67.007 89.4234 67.2073 89.6234L73.0776 95.4856C73.278 95.6856 73.6025 95.6854 73.8026 95.4851L74.1934 95.0937C74.3934 94.8934 74.3932 94.5688 74.1929 94.3688L68.3226 88.5066C68.1222 88.3066 67.7977 88.3068 67.5976 88.5072Z"
    fill="white" />
  <path
    d="M67.7261 85.4955L67.335 85.8866C67.1348 86.0867 67.1348 86.4113 67.335 86.6115L72.1806 91.4571C72.3808 91.6573 72.7054 91.6573 72.9055 91.4571L73.2966 91.066C73.4968 90.8658 73.4968 90.5413 73.2966 90.3411L68.451 85.4955C68.2508 85.2953 67.9263 85.2953 67.7261 85.4955Z"
    fill="white" />
  <path
    d="M100.753 88.5228L100.362 88.9141C100.162 89.1145 100.163 89.439 100.363 89.6391L106.233 95.5012C106.433 95.7012 106.758 95.701 106.958 95.5007L107.349 95.1093C107.549 94.909 107.549 94.5845 107.348 94.3844L101.478 88.5223C101.278 88.3222 100.953 88.3225 100.753 88.5228Z"
    fill="white" />
  <path
    d="M100.841 85.4981L100.449 85.8888C100.249 86.0888 100.249 86.4134 100.449 86.6138L105.29 91.4636C105.49 91.6639 105.815 91.6642 106.015 91.4642L106.406 91.0735C106.607 90.8735 106.607 90.5489 106.407 90.3486L101.566 85.4987C101.366 85.2984 101.041 85.2981 100.841 85.4981Z"
    fill="white" />
  <path fill-rule="evenodd" clip-rule="evenodd"
    d="M114.578 92.1487H113.229C112.846 88.9549 111.316 86.0091 108.922 83.8601C106.529 81.711 103.436 80.5052 100.22 80.4672C97.0031 80.4293 93.8825 81.5618 91.4391 83.6538C88.9956 85.7457 87.3959 88.6546 86.9379 91.8385C86.2229 92.0003 83.4306 92.1487 83.4306 92.1487C83.4306 92.1487 80.7327 92.0138 80.0717 91.8655C79.6167 88.6813 78.0198 85.7712 75.5786 83.6769C73.1374 81.5826 70.0181 80.4471 66.8019 80.4817C63.5856 80.5164 60.4916 81.7189 58.096 83.8653C55.7005 86.0116 54.1667 88.9556 53.7804 92.1487H52.2696C51.9977 92.1487 51.7369 92.2567 51.5447 92.449C51.3524 92.6413 51.2444 92.902 51.2444 93.1739V94.2396C51.2479 94.5069 51.3556 94.7622 51.5446 94.9511C51.7336 95.1401 51.9889 95.2478 52.2561 95.2513H53.713C54.0922 98.4458 55.6197 101.393 58.0109 103.545C60.4022 105.697 63.4941 106.906 66.7107 106.947C69.9274 106.989 73.0493 105.859 75.4949 103.77C77.9406 101.68 79.5432 98.7722 80.0042 95.5886C80.7462 95.4402 83.3631 95.2918 83.3631 95.2918C83.3631 95.2918 86.142 95.4672 86.8704 95.6156C87.2668 98.8564 88.8448 101.837 91.3023 103.987C93.7598 106.136 96.924 107.304 100.189 107.265C103.453 107.227 106.589 105.985 108.996 103.778C111.402 101.572 112.909 98.5546 113.229 95.3053H114.578C114.845 95.3054 115.102 95.2011 115.294 95.0146C115.485 94.8282 115.596 94.5743 115.603 94.3071V93.1874C115.603 92.9155 115.495 92.6548 115.303 92.4625C115.111 92.2702 114.85 92.1622 114.578 92.1622V92.1487ZM66.8788 103.831C64.8805 103.831 62.9271 103.238 61.2655 102.128C59.604 101.018 58.3089 99.4397 57.5442 97.5935C56.7795 95.7473 56.5794 93.7158 56.9693 91.7559C57.3591 89.796 58.3214 87.9956 59.7344 86.5826C61.1475 85.1696 62.9478 84.2073 64.9077 83.8174C66.8676 83.4276 68.8991 83.6277 70.7454 84.3924C72.5916 85.1571 74.1696 86.4521 75.2798 88.1137C76.39 89.7752 76.9826 91.7287 76.9826 93.727C76.9826 96.4067 75.9181 98.9766 74.0232 100.871C72.1284 102.766 69.5585 103.831 66.8788 103.831ZM99.9958 103.831C97.9975 103.831 96.044 103.238 94.3825 102.128C92.7209 101.018 91.4259 99.4397 90.6612 97.5935C89.8965 95.7473 89.6964 93.7158 90.0862 91.7559C90.4761 89.796 91.4384 87.9956 92.8514 86.5826C94.2644 85.1696 96.0648 84.2073 98.0247 83.8174C99.9846 83.4276 102.016 83.6277 103.862 84.3924C105.709 85.1571 107.287 86.4521 108.397 88.1137C109.507 89.7752 110.1 91.7287 110.1 93.727C110.1 96.4067 109.035 98.9766 107.14 100.871C105.245 102.766 102.675 103.831 99.9958 103.831Z"
    fill="white" />
  <path
    d="M126.152 88.3311V64.7377H117.856C118.341 62.1445 118.652 59.5216 118.787 56.8868L113.904 60.5155C116.601 57.3994 113.904 42.8711 113.904 42.8711C113.904 42.8711 110.342 49.8587 88.1384 48.0781C65.9345 46.2975 62.8184 55.1197 62.8184 55.1197C60.1205 52.4217 62.8184 48.0106 62.8184 48.0106C62.0139 48.3823 61.2906 48.909 60.6897 49.5604C60.0888 50.2118 59.6222 50.9752 59.3165 51.8071C59.0108 52.6389 58.8721 53.5229 58.9082 54.4084C58.9443 55.2938 59.1546 56.1635 59.527 56.9677L59.7158 57.3319H52.5259L57.49 60.5155C55.9257 61.5534 54.7235 63.0527 54.0502 64.8052H40.6955V88.3311L35.8392 93.1873L40.6955 98.0436L42.0445 121.637H54.6572L53.3083 96.6676C53.3216 96.585 53.3181 96.5006 53.2979 96.4194C53.2777 96.3382 53.2414 96.2619 53.1909 96.1951C53.1405 96.1283 53.0772 96.0724 53.0046 96.0307C52.932 95.9891 52.8518 95.9625 52.7687 95.9527C52.6044 95.9294 52.4375 95.9714 52.3038 96.0697C52.1701 96.1681 52.0803 96.315 52.0537 96.4788C52.0402 96.541 52.0402 96.6054 52.0537 96.6676V115.823H46.4016V96.4788L43.0832 93.1873L46.3881 89.8959V70.5518H52.6743C52.5258 72.0129 52.4987 73.4838 52.5933 74.9494H57.0314C57.2783 72.2551 58.5655 69.7631 60.6196 68.0022C68.1738 58.6674 100.158 64.1172 100.158 64.1172L103.705 58.8833L102.356 64.1172C109.884 65.9113 110.531 74.7875 110.531 74.7875H113.904C114.917 73.5146 115.715 72.0836 116.264 70.5518H120.446V89.8959L123.751 93.1873L120.446 96.4788V115.823H113.539L114.888 121.637H127.501L126.152 98.0436L131.008 93.1873L126.152 88.3311Z"
    fill="white" />
  <path
    d="M181.931 112V55.261H193.928V102.109H218.252V112H181.931ZM235.768 112L219.533 55.261H232.638L242.03 94.6846H242.501L252.862 55.261H264.082L274.416 94.7677H274.915L284.307 55.261H297.411L281.176 112H269.485L258.68 74.9035H258.237L247.46 112H235.768ZM334.078 71.579C333.857 69.3442 332.905 67.608 331.225 66.3705C329.544 65.1331 327.263 64.5143 324.382 64.5143C322.424 64.5143 320.771 64.7914 319.422 65.3455C318.074 65.8811 317.04 66.6291 316.32 67.5895C315.618 68.55 315.267 69.6397 315.267 70.8587C315.23 71.8745 315.442 72.7611 315.904 73.5183C316.384 74.2756 317.04 74.9312 317.871 75.4853C318.702 76.021 319.663 76.4919 320.752 76.8983C321.842 77.2861 323.006 77.6186 324.243 77.8956L329.341 79.1146C331.816 79.6687 334.087 80.4075 336.156 81.331C338.225 82.2545 340.016 83.3904 341.531 84.7387C343.045 86.087 344.218 87.6754 345.049 89.5039C345.899 91.3324 346.333 93.4287 346.351 95.7928C346.333 99.2651 345.446 102.276 343.692 104.825C341.955 107.355 339.444 109.322 336.156 110.726C332.887 112.111 328.944 112.803 324.326 112.803C319.746 112.803 315.756 112.102 312.358 110.698C308.978 109.294 306.337 107.216 304.434 104.464C302.55 101.694 301.562 98.2678 301.47 94.1859H313.078C313.207 96.0883 313.752 97.6767 314.713 98.9511C315.692 100.207 316.994 101.158 318.619 101.805C320.263 102.433 322.119 102.747 324.188 102.747C326.219 102.747 327.983 102.451 329.479 101.86C330.994 101.269 332.167 100.447 332.998 99.3944C333.829 98.3416 334.244 97.1319 334.244 95.7651C334.244 94.4907 333.866 93.4194 333.108 92.5514C332.37 91.6833 331.28 90.9445 329.839 90.335C328.417 89.7255 326.672 89.1714 324.603 88.6727L318.425 87.1213C313.641 85.9577 309.864 84.1384 307.094 81.6635C304.323 79.1885 302.947 75.8547 302.966 71.6621C302.947 68.2267 303.862 65.2254 305.709 62.6581C307.574 60.0908 310.132 58.0868 313.383 56.6462C316.633 55.2056 320.327 54.4852 324.465 54.4852C328.676 54.4852 332.351 55.2056 335.491 56.6462C338.649 58.0868 341.106 60.0908 342.861 62.6581C344.615 65.2254 345.52 68.199 345.576 71.579H334.078ZM361.568 96.4854L361.457 88.3957H362.787L381.405 69.4457H389.494L369.658 89.5039H369.104L361.568 96.4854ZM355.473 112V55.261H362.011V112H355.473ZM382.513 112L365.89 90.9445L370.544 86.401L390.824 112H382.513ZM410.432 112.997C407.735 112.997 405.288 112.489 403.09 111.474C400.892 110.439 399.147 108.952 397.854 107.013C396.561 105.055 395.915 102.691 395.915 99.9208C395.915 97.4828 396.395 95.5065 397.355 93.992C398.316 92.459 399.6 91.2585 401.206 90.3904C402.813 89.5223 404.586 88.8759 406.526 88.4511C408.483 88.0078 410.45 87.6569 412.427 87.3983C415.013 87.0659 417.109 86.8165 418.716 86.6503C420.341 86.4656 421.523 86.1608 422.262 85.736C423.019 85.3112 423.398 84.5724 423.398 83.5197V83.298C423.398 80.5645 422.65 78.4405 421.154 76.926C419.676 75.4115 417.432 74.6542 414.421 74.6542C411.3 74.6542 408.853 75.3376 407.08 76.7043C405.307 78.0711 404.06 79.5302 403.34 81.0817L397.134 78.8653C398.242 76.2795 399.72 74.2663 401.567 72.8257C403.432 71.3666 405.464 70.3508 407.662 69.7782C409.878 69.1872 412.057 68.8916 414.2 68.8916C415.567 68.8916 417.137 69.0579 418.91 69.3903C420.701 69.7043 422.428 70.36 424.09 71.3573C425.771 72.3547 427.166 73.86 428.274 75.8732C429.382 77.8864 429.936 80.583 429.936 83.9629V112H423.398V106.237H423.065C422.622 107.161 421.883 108.149 420.849 109.202C419.815 110.255 418.439 111.15 416.721 111.889C415.003 112.628 412.907 112.997 410.432 112.997ZM411.429 107.124C414.015 107.124 416.195 106.616 417.968 105.6C419.759 104.584 421.108 103.273 422.013 101.666C422.936 100.059 423.398 98.3693 423.398 96.5962V90.612C423.121 90.9445 422.511 91.2493 421.569 91.5263C420.646 91.7849 419.575 92.0157 418.356 92.2189C417.155 92.4036 415.982 92.5698 414.837 92.7176C413.71 92.8469 412.796 92.9577 412.094 93.0501C410.395 93.2717 408.807 93.6319 407.329 94.1305C405.87 94.6107 404.688 95.3403 403.783 96.3192C402.896 97.2796 402.453 98.591 402.453 100.253C402.453 102.525 403.293 104.243 404.974 105.406C406.673 106.551 408.825 107.124 411.429 107.124ZM441.87 112V69.4457H448.186V75.8732H448.63C449.405 73.7677 450.809 72.0592 452.841 70.7478C454.873 69.4365 457.163 68.7808 459.712 68.7808C460.192 68.7808 460.792 68.7901 461.512 68.8085C462.233 68.827 462.778 68.8547 463.147 68.8916V75.5407C462.925 75.4853 462.417 75.4022 461.623 75.2914C460.847 75.1621 460.026 75.0975 459.157 75.0975C457.089 75.0975 455.242 75.5315 453.617 76.3996C452.01 77.2492 450.735 78.4313 449.793 79.9458C448.87 81.4418 448.408 83.1503 448.408 85.0711V112H441.87ZM492.071 69.4457V74.9867H470.018V69.4457H492.071ZM476.445 59.2504H482.983V99.81C482.983 101.657 483.251 103.042 483.787 103.966C484.341 104.871 485.043 105.48 485.892 105.794C486.76 106.09 487.675 106.237 488.635 106.237C489.355 106.237 489.947 106.201 490.408 106.127C490.87 106.034 491.239 105.96 491.516 105.905L492.846 111.778C492.403 111.945 491.784 112.111 490.99 112.277C490.196 112.462 489.189 112.554 487.97 112.554C486.123 112.554 484.313 112.157 482.54 111.363C480.786 110.569 479.326 109.359 478.163 107.733C477.018 106.108 476.445 104.058 476.445 101.583V59.2504Z"
    fill="white" />
</svg>