<svg width="140" height="27" viewBox="0 0 140 27" fill="none" xmlns="http://www.w3.org/2000/svg">
<path d="M20.7812 16.4062L18.5938 16.4062" stroke="#00D991" stroke-width="2.1875" stroke-linecap="round" stroke-linejoin="round"/>
<path d="M14.2188 16.4062L12.0312 16.4062" stroke="#00D991" stroke-width="2.1875" stroke-linecap="round" stroke-linejoin="round"/>
<path d="M7.65625 16.4062L5.46875 16.4062" stroke="#00D991" stroke-width="2.1875" stroke-linecap="round" stroke-linejoin="round"/>
<path d="M20.7812 5.46875L20.7812 20.7812C20.7812 21.3614 20.5508 21.9178 20.1405 22.328C19.7303 22.7383 19.1739 22.9687 18.5937 22.9687L15.3125 22.9687C15.3125 22.3886 15.082 21.8322 14.6718 21.422C14.2616 21.0117 13.7052 20.7812 13.125 20.7812C12.5448 20.7812 11.9884 21.0117 11.5782 21.422C11.168 21.8322 10.9375 22.3886 10.9375 22.9687L7.65625 22.9687C7.07609 22.9687 6.51969 22.7383 6.10945 22.328C5.69922 21.9178 5.46875 21.3614 5.46875 20.7812L5.46875 5.46875C5.46875 4.88859 5.69922 4.33219 6.10945 3.92195C6.51969 3.51172 7.07609 3.28125 7.65625 3.28125L10.9375 3.28125C10.9375 3.86141 11.168 4.41781 11.5782 4.82805C11.9884 5.23828 12.5448 5.46875 13.125 5.46875C13.7052 5.46875 14.2616 5.23828 14.6718 4.82805C15.082 4.41781 15.3125 3.86141 15.3125 3.28125L18.5938 3.28125C19.1739 3.28125 19.7303 3.51172 20.1405 3.92195C20.5508 4.33219 20.7812 4.88859 20.7812 5.46875Z" stroke="#00D991" stroke-width="2.1875" stroke-linecap="round" stroke-linejoin="round"/>
<path d="M34.4203 20.0188C33.1209 20.0188 32.0053 19.7956 31.0734 19.3494C30.1416 18.89 29.3738 18.2928 28.77 17.5578C28.1663 16.8097 27.72 16.0025 27.4313 15.1362C27.1425 14.27 26.9981 13.43 26.9981 12.6162V12.1831C26.9981 11.2775 27.1425 10.3916 27.4313 9.52531C27.7331 8.64594 28.1859 7.85187 28.7897 7.14312C29.4066 6.43437 30.1744 5.87 31.0931 5.45C32.0119 5.03 33.0881 4.82 34.3219 4.82C35.6344 4.82 36.7959 5.06937 37.8066 5.56812C38.8303 6.05375 39.6506 6.74281 40.2675 7.63531C40.8844 8.51469 41.2453 9.53844 41.3503 10.7066H37.6884C37.5966 10.2078 37.3997 9.77469 37.0978 9.40719C36.7959 9.03969 36.4088 8.7575 35.9363 8.56062C35.4638 8.35062 34.9256 8.24562 34.3219 8.24562C33.7575 8.24562 33.2456 8.34406 32.7863 8.54094C32.34 8.73781 31.9594 9.02 31.6444 9.3875C31.3425 9.74187 31.1063 10.175 30.9356 10.6869C30.7781 11.1987 30.6994 11.7762 30.6994 12.4194C30.6994 13.0625 30.7781 13.64 30.9356 14.1519C31.1063 14.6637 31.3491 15.1034 31.6641 15.4709C31.9922 15.8384 32.3859 16.1206 32.8453 16.3175C33.3047 16.5012 33.8297 16.5931 34.4203 16.5931C35.3391 16.5931 36.1134 16.37 36.7434 15.9237C37.3866 15.4775 37.7738 14.8803 37.905 14.1322H41.5669C41.4488 15.2084 41.0878 16.1928 40.4841 17.0853C39.8803 17.9778 39.0666 18.6931 38.0428 19.2312C37.0191 19.7563 35.8116 20.0188 34.4203 20.0188ZM43.8459 19.625V8.7575H47.429V19.625H43.8459ZM42.4677 11.3562V8.7575H47.429V11.3562H42.4677ZM45.3224 7.89125C44.6662 7.89125 44.1805 7.72719 43.8655 7.39906C43.5637 7.05781 43.4127 6.62469 43.4127 6.09969C43.4127 5.57469 43.5637 5.14812 43.8655 4.82C44.1805 4.47875 44.6596 4.30812 45.3027 4.30812C45.959 4.30812 46.438 4.47875 46.7399 4.82C47.0418 5.14812 47.1927 5.57469 47.1927 6.09969C47.1927 6.62469 47.0418 7.05781 46.7399 7.39906C46.438 7.72719 45.9655 7.89125 45.3224 7.89125ZM50.0631 19.625V8.7575H52.8981V13.4234H52.7406C52.7406 12.2947 52.885 11.3628 53.1737 10.6278C53.4625 9.87969 53.889 9.32187 54.4534 8.95437C55.0309 8.58687 55.7265 8.40312 56.5403 8.40312H56.6978C57.9315 8.40312 58.8831 8.81656 59.5525 9.64344C60.235 10.4572 60.5762 11.7106 60.5762 13.4037V19.625H56.9931V13.3053C56.9931 12.8066 56.8422 12.3997 56.5403 12.0847C56.2515 11.7566 55.8512 11.5925 55.3394 11.5925C54.8275 11.5925 54.414 11.7566 54.099 12.0847C53.7972 12.3997 53.6462 12.8197 53.6462 13.3447V19.625H50.0631ZM68.0821 20.0188C67.1633 20.0188 66.3496 19.8613 65.6408 19.5462C64.9321 19.2312 64.3349 18.8047 63.8493 18.2666C63.3637 17.7284 62.9896 17.1247 62.7271 16.4553C62.4777 15.7859 62.353 15.0969 62.353 14.3881V13.9944C62.353 13.2594 62.4777 12.5572 62.7271 11.8878C62.9896 11.2053 63.3571 10.6016 63.8296 10.0766C64.3152 9.55156 64.9058 9.13812 65.6015 8.83625C66.2971 8.52125 67.0846 8.36375 67.964 8.36375C69.1321 8.36375 70.123 8.62625 70.9368 9.15125C71.7505 9.67625 72.374 10.3719 72.8071 11.2381C73.2402 12.0912 73.4568 13.0231 73.4568 14.0337V15.1756H63.8493V13.2462H71.3896L70.1493 14.1125C70.1493 13.4956 70.064 12.9772 69.8933 12.5572C69.7358 12.1241 69.493 11.7959 69.1649 11.5728C68.8499 11.3497 68.4496 11.2381 67.964 11.2381C67.4915 11.2381 67.078 11.3497 66.7237 11.5728C66.3824 11.7828 66.1199 12.1109 65.9362 12.5572C65.7524 12.9903 65.6605 13.5416 65.6605 14.2109C65.6605 14.8147 65.7458 15.3397 65.9165 15.7859C66.0871 16.2191 66.3496 16.5537 66.704 16.79C67.0583 17.0262 67.5177 17.1444 68.0821 17.1444C68.5808 17.1444 68.9877 17.0591 69.3027 16.8884C69.6308 16.7178 69.8605 16.4881 69.9918 16.1994H73.2599C73.1024 16.9344 72.7874 17.5906 72.3149 18.1681C71.8555 18.7456 71.2649 19.1984 70.543 19.5266C69.8343 19.8547 69.014 20.0188 68.0821 20.0188ZM75.8179 19.625V5.15469H78.6135V19.625H75.8179ZM84.5985 19.625L80.1885 13.3644H83.3188L87.8666 19.625H84.5985ZM77.7866 14.8212V12.5572H81.4485C81.9604 12.5572 82.4001 12.4522 82.7676 12.2422C83.1482 12.0322 83.4435 11.7369 83.6535 11.3562C83.8635 10.9756 83.9685 10.5425 83.9685 10.0569C83.9685 9.55812 83.8635 9.11844 83.6535 8.73781C83.4435 8.35719 83.1482 8.06187 82.7676 7.85187C82.4001 7.64187 81.9604 7.53687 81.4485 7.53687H77.7866V5.15469H81.1532C82.3082 5.15469 83.3057 5.32531 84.1457 5.66656C84.9988 6.00781 85.6551 6.52625 86.1145 7.22187C86.5738 7.9175 86.8035 8.79031 86.8035 9.84031V10.1553C86.8035 11.2184 86.5673 12.0912 86.0948 12.7737C85.6354 13.4562 84.9857 13.9681 84.1457 14.3094C83.3057 14.6506 82.3082 14.8212 81.1532 14.8212H77.7866ZM94.3628 19.9991C93.444 19.9991 92.6368 19.8416 91.9412 19.5266C91.2587 19.2116 90.6878 18.7916 90.2284 18.2666C89.7821 17.7284 89.4409 17.1312 89.2046 16.475C88.9815 15.8187 88.8699 15.1494 88.8699 14.4669V14.0928C88.8699 13.3841 88.9815 12.7016 89.2046 12.0453C89.4409 11.3759 89.7821 10.7853 90.2284 10.2734C90.6878 9.74844 91.2521 9.335 91.9215 9.03312C92.5909 8.71812 93.3653 8.56062 94.2446 8.56062C95.3996 8.56062 96.3643 8.81656 97.1387 9.32844C97.9262 9.82719 98.5168 10.49 98.9106 11.3169C99.3043 12.1306 99.5012 13.01 99.5012 13.955V14.9394H90.0315V13.2659H97.7884L96.9418 14.0928C96.9418 13.4103 96.8434 12.8262 96.6465 12.3406C96.4496 11.855 96.1478 11.4809 95.7409 11.2184C95.3471 10.9559 94.8484 10.8247 94.2446 10.8247C93.6409 10.8247 93.129 10.9625 92.709 11.2381C92.289 11.5137 91.9674 11.9141 91.7443 12.4391C91.5343 12.9509 91.4293 13.5678 91.4293 14.2897C91.4293 14.9591 91.5343 15.5562 91.7443 16.0812C91.9543 16.5931 92.2759 17 92.709 17.3019C93.1421 17.5906 93.6934 17.735 94.3628 17.735C95.0321 17.735 95.5768 17.6037 95.9968 17.3412C96.4168 17.0656 96.6859 16.7309 96.804 16.3372H99.324C99.1665 17.0722 98.8646 17.7153 98.4184 18.2666C97.9721 18.8178 97.4012 19.2444 96.7056 19.5462C96.0231 19.8481 95.2421 19.9991 94.3628 19.9991ZM101.787 19.625V8.93469H103.953V13.5219H103.756C103.756 12.4325 103.9 11.5269 104.189 10.805C104.478 10.07 104.904 9.51875 105.469 9.15125C106.046 8.78375 106.762 8.6 107.615 8.6H107.733C109.006 8.6 109.971 9.01344 110.627 9.84031C111.283 10.6541 111.611 11.8747 111.611 13.5022V19.625H108.875V13.2659C108.875 12.6097 108.684 12.0781 108.304 11.6712C107.936 11.2644 107.424 11.0609 106.768 11.0609C106.099 11.0609 105.554 11.2709 105.134 11.6909C104.727 12.0978 104.524 12.6491 104.524 13.3447V19.625H101.787ZM119.2 19.7628C118.215 19.7628 117.401 19.6381 116.758 19.3887C116.128 19.1262 115.656 18.6931 115.341 18.0894C115.026 17.4725 114.868 16.6456 114.868 15.6087L114.888 5.9225H117.447L117.428 15.7859C117.428 16.3109 117.566 16.7178 117.841 17.0066C118.13 17.2822 118.537 17.42 119.062 17.42H120.735V19.7628H119.2ZM113.175 10.9428V8.93469H120.735V10.9428H113.175ZM129.471 19.625V16.4553H129.018V12.9312C129.018 12.3144 128.867 11.855 128.565 11.5531C128.263 11.2512 127.797 11.1003 127.167 11.1003C126.839 11.1003 126.445 11.1069 125.986 11.12C125.527 11.1331 125.061 11.1528 124.588 11.1791C124.129 11.1922 123.715 11.2119 123.348 11.2381V8.915C123.65 8.88875 123.991 8.8625 124.372 8.83625C124.752 8.81 125.14 8.79687 125.533 8.79687C125.94 8.78375 126.321 8.77719 126.675 8.77719C127.778 8.77719 128.69 8.92156 129.412 9.21031C130.147 9.49906 130.698 9.95187 131.065 10.5687C131.446 11.1856 131.636 11.9928 131.636 12.9903V19.625H129.471ZM126.025 19.9006C125.251 19.9006 124.569 19.7628 123.978 19.4872C123.4 19.2116 122.948 18.8178 122.62 18.3059C122.305 17.7941 122.147 17.1772 122.147 16.4553C122.147 15.6678 122.337 15.0247 122.718 14.5259C123.112 14.0272 123.656 13.6531 124.352 13.4037C125.061 13.1544 125.888 13.0297 126.833 13.0297H129.313V14.6637H126.793C126.163 14.6637 125.678 14.8212 125.336 15.1362C125.008 15.4381 124.844 15.8319 124.844 16.3175C124.844 16.8031 125.008 17.1969 125.336 17.4987C125.678 17.8006 126.163 17.9516 126.793 17.9516C127.174 17.9516 127.522 17.8859 127.837 17.7547C128.165 17.6103 128.434 17.3741 128.644 17.0459C128.867 16.7047 128.992 16.2453 129.018 15.6678L129.687 16.4356C129.622 17.1837 129.438 17.8137 129.136 18.3256C128.847 18.8375 128.44 19.2312 127.915 19.5069C127.404 19.7694 126.774 19.9006 126.025 19.9006ZM134.706 19.625V5.25312H137.442V19.625H134.706ZM133.367 7.30062V5.25312H137.442V7.30062H133.367Z" fill="#00D991"/>
</svg>
