<svg width="188" height="54" viewBox="0 0 188 54" fill="none" xmlns="http://www.w3.org/2000/svg">
<path d="M26.6308 52.194C40.7496 52.194 52.1952 40.7484 52.1952 26.6296C52.1952 12.5108 40.7496 1.0652 26.6308 1.0652C12.512 1.0652 1.06641 12.5108 1.06641 26.6296C1.06641 40.7484 12.512 52.194 26.6308 52.194Z" fill="#171C2A"/>
<path d="M26.6296 53.2592C21.3628 53.2592 16.2142 51.6974 11.835 48.7713C7.45578 45.8452 4.0426 41.6862 2.02707 36.8203C0.0115381 31.9544 -0.515816 26.6001 0.511692 21.4344C1.5392 16.2688 4.07542 11.5239 7.79964 7.79964C11.5239 4.07542 16.2688 1.5392 21.4344 0.511692C26.6001 -0.515816 31.9544 0.0115381 36.8203 2.02707C41.6862 4.0426 45.8452 7.45578 48.7713 11.835C51.6974 16.2142 53.2592 21.3628 53.2592 26.6296C53.2507 33.6896 50.4424 40.458 45.4502 45.4502C40.458 50.4424 33.6896 53.2507 26.6296 53.2592V53.2592ZM26.6296 2.13038C21.7841 2.13038 17.0474 3.56723 13.0186 6.25924C8.98969 8.95125 5.84956 12.7775 3.99527 17.2542C2.14098 21.7308 1.65582 26.6568 2.60112 31.4092C3.54643 36.1615 5.87976 40.5269 9.30603 43.9532C12.7323 47.3794 17.0977 49.7128 21.85 50.6581C26.6024 51.6034 31.5284 51.1182 36.005 49.2639C40.4817 47.4096 44.308 44.2695 47 40.2406C49.692 36.2118 51.1288 31.4751 51.1288 26.6296C51.1204 20.1346 48.5365 13.908 43.9438 9.31537C39.3512 4.72271 33.1246 2.13883 26.6296 2.13038V2.13038Z" fill="#00D991"/>
<path d="M20.3286 28.6271L20.1743 28.7816C20.0953 28.8607 20.0954 28.9889 20.1745 29.0678L22.4922 31.3823C22.5712 31.4613 22.6994 31.4612 22.7784 31.3821L22.9327 31.2276C23.0117 31.1485 23.0116 31.0204 22.9325 30.9414L20.6148 28.6269C20.5357 28.5479 20.4075 28.548 20.3286 28.6271Z" fill="white"/>
<path d="M20.3795 27.4381L20.2251 27.5925C20.1461 27.6716 20.1461 27.7997 20.2251 27.8787L22.1383 29.7919C22.2173 29.8709 22.3454 29.8709 22.4245 29.7919L22.5789 29.6375C22.6579 29.5584 22.6579 29.4303 22.5789 29.3513L20.6658 27.4381C20.5867 27.3591 20.4586 27.3591 20.3795 27.4381Z" fill="white"/>
<path d="M33.4184 28.6331L33.2641 28.7877C33.1851 28.8667 33.1852 28.9949 33.2643 29.0739L35.582 31.3883C35.6611 31.4673 35.7892 31.4672 35.8682 31.3881L36.0225 31.2336C36.1015 31.1545 36.1014 31.0264 36.0223 30.9474L33.7046 28.6329C33.6255 28.554 33.4974 28.554 33.4184 28.6331Z" fill="white"/>
<path d="M33.454 27.4392L33.2995 27.5934C33.2204 27.6724 33.2203 27.8005 33.2992 27.8797L35.2107 29.7944C35.2897 29.8736 35.4178 29.8737 35.4969 29.7947L35.6514 29.6404C35.7305 29.5615 35.7307 29.4333 35.6517 29.3542L33.7402 27.4394C33.6613 27.3603 33.5331 27.3602 33.454 27.4392Z" fill="white"/>
<path fill-rule="evenodd" clip-rule="evenodd" d="M38.8763 30.0648H38.3437C38.1926 28.8039 37.5882 27.6408 36.6433 26.7923C35.6983 25.9438 34.4772 25.4678 33.2073 25.4528C31.9374 25.4378 30.7053 25.8849 29.7406 26.7109C28.7759 27.5368 28.1443 28.6853 27.9635 29.9423C27.6812 30.0063 26.5787 30.0648 26.5787 30.0648C26.5787 30.0648 25.5135 30.0116 25.2526 29.953C25.0729 28.6959 24.4425 27.5469 23.4786 26.72C22.5148 25.8932 21.2833 25.4448 20.0134 25.4585C18.7436 25.4722 17.522 25.947 16.5762 26.7944C15.6304 27.6418 15.0249 28.8041 14.8724 30.0648H14.2759C14.1685 30.0648 14.0656 30.1075 13.9896 30.1834C13.9137 30.2593 13.8711 30.3623 13.8711 30.4696V30.8904C13.8725 30.9959 13.915 31.0967 13.9896 31.1713C14.0642 31.2459 14.165 31.2884 14.2705 31.2898H14.8457C14.9954 32.551 15.5985 33.7148 16.5426 34.5644C17.4867 35.4139 18.7075 35.8913 19.9775 35.9076C21.2474 35.9239 22.48 35.478 23.4456 34.6529C24.4112 33.8278 25.0439 32.6799 25.2259 31.4229C25.5189 31.3644 26.5521 31.3058 26.5521 31.3058C26.5521 31.3058 27.6492 31.375 27.9368 31.4336C28.0933 32.7131 28.7164 33.89 29.6866 34.7387C30.6569 35.5874 31.9061 36.0483 33.1951 36.0331C34.4841 36.0179 35.7222 35.5277 36.6722 34.6564C37.6222 33.7851 38.2174 32.594 38.3437 31.3111H38.8763C38.9818 31.3111 39.0832 31.27 39.1588 31.1963C39.2344 31.1227 39.2783 31.0225 39.281 30.917V30.917V30.4749C39.281 30.3676 39.2384 30.2646 39.1625 30.1887C39.0866 30.1128 38.9836 30.0702 38.8763 30.0702V30.0648ZM20.0438 34.6771C19.2549 34.6771 18.4836 34.4431 17.8276 34.0048C17.1716 33.5665 16.6603 32.9434 16.3584 32.2145C16.0564 31.4856 15.9774 30.6835 16.1314 29.9097C16.2853 29.1359 16.6652 28.4251 17.2231 27.8672C17.781 27.3094 18.4918 26.9294 19.2656 26.7755C20.0394 26.6216 20.8415 26.7006 21.5704 27.0025C22.2993 27.3044 22.9223 27.8157 23.3607 28.4717C23.799 29.1277 24.0329 29.899 24.0329 30.688C24.0329 31.7459 23.6127 32.7606 22.8646 33.5087C22.1165 34.2568 21.1018 34.6771 20.0438 34.6771ZM33.119 34.6771C32.33 34.6771 31.5587 34.4431 30.9027 34.0048C30.2467 33.5665 29.7354 32.9434 29.4335 32.2145C29.1316 31.4856 29.0526 30.6835 29.2065 29.9097C29.3604 29.1359 29.7403 28.4251 30.2982 27.8672C30.8561 27.3094 31.5669 26.9294 32.3407 26.7755C33.1145 26.6216 33.9166 26.7006 34.6455 27.0025C35.3744 27.3044 35.9975 27.8157 36.4358 28.4717C36.8741 29.1277 37.1081 29.899 37.1081 30.688V30.688C37.1081 31.7459 36.6878 32.7606 35.9397 33.5087C35.1916 34.2568 34.1769 34.6771 33.119 34.6771Z" fill="white"/>
<path d="M43.4461 28.5576V19.2426H40.1706C40.3622 18.2187 40.485 17.1832 40.5381 16.1429L38.6102 17.5756C39.6753 16.3453 38.6102 10.6093 38.6102 10.6093C38.6102 10.6093 37.2041 13.3681 28.4376 12.6651C19.6712 11.962 18.4409 15.4452 18.4409 15.4452C17.3757 14.38 18.4409 12.6384 18.4409 12.6384C18.1233 12.7852 17.8377 12.9931 17.6004 13.2503C17.3632 13.5075 17.179 13.8089 17.0583 14.1373C16.9376 14.4658 16.8828 14.8147 16.8971 15.1644C16.9113 15.514 16.9943 15.8573 17.1414 16.1748L17.2159 16.3186H14.3772L16.3372 17.5756C15.7195 17.9853 15.2449 18.5773 14.9791 19.2692H9.70639V28.5576L7.78906 30.4749L9.70639 32.3923L10.239 41.7073H15.2187L14.6861 31.849C14.6914 31.8164 14.69 31.7831 14.682 31.751C14.6741 31.7189 14.6597 31.6888 14.6398 31.6624C14.6199 31.6361 14.5949 31.614 14.5662 31.5976C14.5376 31.5811 14.5059 31.5706 14.4731 31.5667C14.4082 31.5575 14.3423 31.5741 14.2895 31.613C14.2368 31.6518 14.2013 31.7098 14.1908 31.7744C14.1855 31.799 14.1855 31.8244 14.1908 31.849V39.4118H11.9593V31.7744L10.6491 30.4749L11.9539 29.1754V21.538H14.4358C14.3772 22.1149 14.3665 22.6956 14.4039 23.2743H16.1561C16.2536 22.2105 16.7618 21.2266 17.5728 20.5314C20.5553 16.8459 33.183 18.9976 33.183 18.9976L34.5838 16.9311L34.0512 18.9976C37.023 19.7059 37.2787 23.2104 37.2787 23.2104H38.6102C39.0104 22.7078 39.3253 22.1428 39.5422 21.538H41.1932V29.1754L42.4981 30.4749L41.1932 31.7744V39.4118H38.4664L38.9989 41.7073H43.9787L43.4461 32.3923L45.3634 30.4749L43.4461 28.5576Z" fill="white"/>
<path d="M72.6764 23.086C72.6022 22.3372 72.2835 21.7555 71.7203 21.3409C71.1571 20.9262 70.3929 20.7189 69.4275 20.7189C68.7715 20.7189 68.2176 20.8118 67.7658 20.9974C67.3141 21.1769 66.9675 21.4275 66.7262 21.7493C66.491 22.0711 66.3734 22.4362 66.3734 22.8447C66.361 23.185 66.4322 23.4821 66.5869 23.7358C66.7478 23.9896 66.9675 24.2092 67.246 24.3949C67.5245 24.5744 67.8463 24.7322 68.2114 24.8683C68.5765 24.9983 68.9664 25.1097 69.381 25.2025L71.0891 25.6109C71.9183 25.7966 72.6795 26.0441 73.3726 26.3536C74.0657 26.663 74.666 27.0436 75.1735 27.4953C75.6809 27.9471 76.0739 28.4793 76.3524 29.092C76.6371 29.7046 76.7825 30.407 76.7887 31.1992C76.7825 32.3626 76.4855 33.3713 75.8975 34.2254C75.3158 35.0732 74.4742 35.7323 73.3726 36.2026C72.2773 36.6667 70.956 36.8988 69.4089 36.8988C67.8741 36.8988 66.5374 36.6636 65.3987 36.1933C64.2662 35.723 63.3813 35.0268 62.7439 34.1047C62.1126 33.1764 61.7816 32.0284 61.7506 30.6608H65.6401C65.6834 31.2982 65.866 31.8304 66.1878 32.2574C66.5158 32.6782 66.9521 32.9969 67.4966 33.2135C68.0474 33.4239 68.6694 33.5291 69.3625 33.5291C70.0432 33.5291 70.6342 33.4301 71.1355 33.2321C71.6429 33.0341 72.0359 32.7587 72.3144 32.4059C72.5929 32.0532 72.7321 31.6478 72.7321 31.1899C72.7321 30.7629 72.6053 30.4039 72.3515 30.1131C72.104 29.8222 71.7389 29.5747 71.2562 29.3705C70.7796 29.1662 70.1948 28.9806 69.5017 28.8135L67.4317 28.2937C65.8288 27.9038 64.5633 27.2942 63.635 26.465C62.7067 25.6357 62.2457 24.5187 62.2519 23.1139C62.2457 21.9628 62.552 20.9572 63.1709 20.097C63.7959 19.2368 64.653 18.5653 65.7422 18.0826C66.8314 17.5999 68.0691 17.3586 69.4553 17.3586C70.8663 17.3586 72.0978 17.5999 73.1498 18.0826C74.2081 18.5653 75.0312 19.2368 75.6191 20.097C76.207 20.9572 76.5102 21.9535 76.5288 23.086H72.6764ZM87.0021 22.3713V25.3417H78.4155V22.3713H87.0021ZM80.3649 18.9552H84.3193V32.2481C84.3193 32.6132 84.375 32.8979 84.4864 33.1021C84.5978 33.3002 84.7525 33.4394 84.9506 33.5199C85.1548 33.6003 85.39 33.6405 85.6561 33.6405C85.8417 33.6405 86.0274 33.6251 86.213 33.5941C86.3987 33.557 86.541 33.5291 86.64 33.5106L87.262 36.4532C87.0639 36.5151 86.7855 36.5863 86.4265 36.6667C86.0676 36.7534 85.6313 36.806 85.1177 36.8245C84.1646 36.8617 83.3292 36.7348 82.6113 36.4439C81.8996 36.1531 81.3458 35.7013 80.9497 35.0887C80.5536 34.476 80.3587 33.7024 80.3649 32.768V18.9552ZM93.6439 36.8988C92.7342 36.8988 91.9235 36.741 91.2118 36.4254C90.5001 36.1036 89.937 35.6301 89.5223 35.0051C89.1139 34.3739 88.9097 33.5879 88.9097 32.6473C88.9097 31.8552 89.0551 31.1899 89.346 30.6515C89.6368 30.1131 90.0329 29.6799 90.5342 29.3519C91.0354 29.0239 91.6048 28.7764 92.2422 28.6093C92.8858 28.4422 93.5603 28.3246 94.2658 28.2565C95.0951 28.1699 95.7634 28.0894 96.2709 28.0152C96.7784 27.9347 97.1466 27.8172 97.3756 27.6624C97.6045 27.5077 97.719 27.2788 97.719 26.9755V26.9198C97.719 26.3319 97.5334 25.8771 97.162 25.5552C96.7969 25.2334 96.2771 25.0725 95.6025 25.0725C94.8909 25.0725 94.3246 25.2304 93.9038 25.546C93.483 25.8554 93.2045 26.2453 93.0683 26.7156L89.4109 26.4185C89.5966 25.5522 89.9617 24.8033 90.5063 24.1721C91.0509 23.5347 91.7533 23.0458 92.6135 22.7054C93.4799 22.3589 94.4824 22.1856 95.6211 22.1856C96.4132 22.1856 97.1713 22.2784 97.8954 22.4641C98.6256 22.6497 99.2723 22.9375 99.8355 23.3274C100.405 23.7173 100.853 24.2185 101.181 24.8312C101.509 25.4377 101.673 26.1648 101.673 27.0126V36.6296H97.9232V34.6524H97.8118C97.5829 35.0979 97.2765 35.4909 96.8928 35.8313C96.5092 36.1655 96.0481 36.4285 95.5097 36.6203C94.9713 36.806 94.3494 36.8988 93.6439 36.8988ZM94.7764 34.1697C95.3581 34.1697 95.8717 34.0552 96.3173 33.8262C96.7629 33.591 97.1125 33.2754 97.3663 32.8794C97.62 32.4833 97.7469 32.0346 97.7469 31.5334V30.0203C97.6231 30.1007 97.4529 30.175 97.2363 30.243C97.0259 30.3049 96.7876 30.3637 96.5215 30.4194C96.2554 30.4689 95.9893 30.5153 95.7232 30.5587C95.4571 30.5958 95.2158 30.6298 94.9992 30.6608C94.535 30.7288 94.1297 30.8371 93.7831 30.9857C93.4366 31.1342 93.1674 31.3353 92.9755 31.589C92.7837 31.8366 92.6878 32.146 92.6878 32.5173C92.6878 33.0557 92.8827 33.4673 93.2726 33.7519C93.6686 34.0304 94.1699 34.1697 94.7764 34.1697ZM106.672 41.9765C106.171 41.9765 105.701 41.9362 105.261 41.8558C104.828 41.7815 104.469 41.6856 104.184 41.568L105.076 38.6161C105.54 38.7584 105.957 38.8358 106.329 38.8482C106.706 38.8606 107.031 38.7739 107.303 38.5883C107.582 38.4026 107.808 38.087 107.981 37.6414L108.213 37.038L103.098 22.3713H107.257L110.209 32.8422H110.358L113.337 22.3713H117.524L111.982 38.1705C111.716 38.9379 111.354 39.6063 110.896 40.1756C110.444 40.7511 109.872 41.1936 109.179 41.503C108.485 41.8187 107.65 41.9765 106.672 41.9765Z" fill="#171C2A"/>
<path d="M135.765 22.3713C135.654 21.4306 135.202 20.7004 134.41 20.1805C133.618 19.6607 132.646 19.4008 131.495 19.4008C130.654 19.4008 129.917 19.5369 129.286 19.8092C128.661 20.0815 128.172 20.4559 127.819 20.9324C127.473 21.4089 127.299 21.9504 127.299 22.5569C127.299 23.0644 127.42 23.5007 127.661 23.8658C127.909 24.2247 128.225 24.5249 128.608 24.7662C128.992 25.0014 129.394 25.1963 129.815 25.351C130.236 25.4996 130.623 25.6202 130.975 25.7131L132.906 26.2329C133.401 26.3629 133.952 26.5423 134.558 26.7713C135.171 27.0003 135.756 27.3128 136.313 27.7089C136.876 28.0987 137.34 28.6 137.705 29.2127C138.07 29.8253 138.253 30.5772 138.253 31.4684C138.253 32.4957 137.984 33.4239 137.445 34.2532C136.913 35.0825 136.133 35.7415 135.106 36.2304C134.085 36.7193 132.844 36.9638 131.384 36.9638C130.022 36.9638 128.843 36.7441 127.847 36.3047C126.857 35.8653 126.077 35.2526 125.508 34.4667C124.945 33.6808 124.626 32.768 124.552 31.7283H126.928C126.99 32.4462 127.231 33.0403 127.652 33.5106C128.079 33.9747 128.618 34.3213 129.267 34.5503C129.923 34.773 130.629 34.8844 131.384 34.8844C132.263 34.8844 133.052 34.7421 133.751 34.4574C134.45 34.1666 135.004 33.7643 135.412 33.2507C135.821 32.7308 136.025 32.1244 136.025 31.4312C136.025 30.8 135.849 30.2864 135.496 29.8903C135.143 29.4942 134.679 29.1724 134.104 28.9249C133.528 28.6774 132.906 28.4608 132.238 28.2751L129.899 27.6067C128.413 27.1797 127.237 26.5702 126.371 25.778C125.505 24.9859 125.071 23.9493 125.071 22.6683C125.071 21.6039 125.359 20.6756 125.935 19.8835C126.517 19.0852 127.296 18.4663 128.274 18.0269C129.258 17.5814 130.356 17.3586 131.569 17.3586C132.795 17.3586 133.884 17.5783 134.837 18.0176C135.79 18.4508 136.545 19.0449 137.102 19.7999C137.665 20.5549 137.962 21.412 137.993 22.3713H135.765ZM144.971 36.6296L140.627 22.3713H142.929L146.011 33.2878H146.16L149.204 22.3713H151.544L154.551 33.2507H154.7L157.782 22.3713H160.084L155.739 36.6296H153.586L150.467 25.6759H150.244L147.125 36.6296H144.971ZM162.98 36.6296V22.3713H165.171V36.6296H162.98ZM164.094 19.9949C163.667 19.9949 163.299 19.8494 162.989 19.5586C162.686 19.2677 162.534 18.9181 162.534 18.5096C162.534 18.1012 162.686 17.7515 162.989 17.4607C163.299 17.1698 163.667 17.0244 164.094 17.0244C164.521 17.0244 164.886 17.1698 165.189 17.4607C165.499 17.7515 165.653 18.1012 165.653 18.5096C165.653 18.9181 165.499 19.2677 165.189 19.5586C164.886 19.8494 164.521 19.9949 164.094 19.9949ZM175.533 22.3713V24.2278H167.846V22.3713H175.533ZM170.149 36.6296V20.4033C170.149 19.5864 170.34 18.9057 170.724 18.3611C171.108 17.8165 171.606 17.4081 172.219 17.1358C172.831 16.8635 173.478 16.7273 174.159 16.7273C174.697 16.7273 175.137 16.7707 175.477 16.8573C175.817 16.9439 176.071 17.0244 176.238 17.0986L175.607 18.9923C175.495 18.9552 175.341 18.9088 175.143 18.8531C174.951 18.7974 174.697 18.7695 174.382 18.7695C173.657 18.7695 173.135 18.9521 172.813 19.3172C172.497 19.6824 172.339 20.2177 172.339 20.9231V36.6296H170.149ZM184.804 22.3713V24.2278H177.415V22.3713H184.804ZM179.568 18.9552H181.759V32.5452C181.759 33.164 181.849 33.6282 182.028 33.9376C182.214 34.2408 182.449 34.445 182.734 34.5503C183.025 34.6493 183.331 34.6988 183.653 34.6988C183.894 34.6988 184.092 34.6864 184.247 34.6616C184.402 34.6307 184.525 34.6059 184.618 34.5874L185.064 36.5553C184.915 36.611 184.708 36.6667 184.442 36.7224C184.176 36.7843 183.838 36.8152 183.43 36.8152C182.811 36.8152 182.205 36.6822 181.611 36.4161C181.023 36.15 180.534 35.7446 180.144 35.2C179.76 34.6555 179.568 33.9685 179.568 33.1393V18.9552Z" fill="#171C2A"/>
</svg>
