<svg width="165" height="54" viewBox="0 0 165 54" fill="none" xmlns="http://www.w3.org/2000/svg">
<g clip-path="url(#clip0_155_188)">
<path d="M26.6443 52.2236C40.7712 52.2236 52.2233 40.7716 52.2233 26.6447C52.2233 12.5179 40.7712 1.0658 26.6443 1.0658C12.5175 1.0658 1.06543 12.5179 1.06543 26.6447C1.06543 40.7716 12.5175 52.2236 26.6443 52.2236Z" fill="#171C2A"/>
<path d="M26.6447 53.2894C21.3749 53.2894 16.2234 51.7267 11.8417 48.799C7.46001 45.8712 4.04489 41.7099 2.02822 36.8412C0.0115447 31.9725 -0.516109 26.6152 0.511982 21.4466C1.54007 16.278 4.07774 11.5304 7.80406 7.80406C11.5304 4.07774 16.278 1.54007 21.4466 0.511982C26.6152 -0.516109 31.9725 0.0115447 36.8412 2.02822C41.7099 4.04489 45.8712 7.46001 48.799 11.8417C51.7267 16.2234 53.2894 21.3749 53.2894 26.6447C53.281 33.7087 50.471 40.481 45.476 45.476C40.481 50.471 33.7087 53.281 26.6447 53.2894ZM26.6447 2.13159C21.7965 2.13159 17.0571 3.56926 13.026 6.26279C8.99479 8.95633 5.85288 12.7848 3.99754 17.2639C2.1422 21.7431 1.65676 26.6719 2.6026 31.427C3.54845 36.1821 5.88309 40.5499 9.31132 43.9781C12.7395 47.4063 17.1074 49.741 21.8624 50.6868C26.6175 51.6327 31.5463 51.1472 36.0255 49.2919C40.5047 47.4365 44.3331 44.2946 47.0266 40.2635C49.7202 36.2323 51.1578 31.493 51.1578 26.6447C51.1494 20.146 48.564 13.9159 43.9688 9.32066C39.3735 4.72539 33.1434 2.14005 26.6447 2.13159Z" fill="#00D991"/>
<path d="M20.3424 28.6433L20.188 28.7979C20.109 28.877 20.1091 29.0052 20.1882 29.0843L22.5072 31.4C22.5864 31.4791 22.7146 31.479 22.7936 31.3998L22.948 31.2452C23.027 31.1661 23.0269 31.0379 22.9478 30.9589L20.6288 28.6431C20.5496 28.564 20.4214 28.5641 20.3424 28.6433Z" fill="white"/>
<path d="M20.3934 27.4536L20.2389 27.6081C20.1598 27.6872 20.1598 27.8154 20.2389 27.8945L22.1531 29.8087C22.2322 29.8878 22.3604 29.8878 22.4395 29.8087L22.594 29.6542C22.6731 29.5751 22.6731 29.4469 22.594 29.3678L20.6798 27.4536C20.6007 27.3745 20.4725 27.3745 20.3934 27.4536Z" fill="white"/>
<path d="M33.4401 28.6493L33.2857 28.8039C33.2066 28.8831 33.2067 29.0113 33.2859 29.0903L35.6049 31.4061C35.684 31.4851 35.8122 31.485 35.8913 31.4059L36.0456 31.2513C36.1247 31.1721 36.1246 31.0439 36.0454 30.9649L33.7264 28.6491C33.6473 28.5701 33.5191 28.5702 33.4401 28.6493Z" fill="white"/>
<path d="M33.4747 27.4547L33.3201 27.609C33.2409 27.688 33.2408 27.8162 33.3198 27.8954L35.2324 29.8113C35.3114 29.8904 35.4396 29.8905 35.5187 29.8115L35.6734 29.6572C35.7525 29.5781 35.7526 29.4499 35.6736 29.3708L33.7611 27.4549C33.6821 27.3758 33.5539 27.3756 33.4747 27.4547Z" fill="white"/>
<path fill-rule="evenodd" clip-rule="evenodd" d="M38.9012 30.0818H38.3683C38.2171 28.8201 37.6125 27.6564 36.667 26.8075C35.7215 25.9585 34.4996 25.4822 33.229 25.4672C31.9584 25.4522 30.7256 25.8995 29.7604 26.726C28.7951 27.5524 28.1631 28.7015 27.9822 29.9593C27.6998 30.0232 26.5967 30.0818 26.5967 30.0818C26.5967 30.0818 25.5309 30.0285 25.2698 29.9699C25.09 28.7121 24.4592 27.5624 23.4948 26.7351C22.5304 25.9078 21.2982 25.4592 20.0277 25.4729C18.7571 25.4866 17.5348 25.9616 16.5885 26.8095C15.6422 27.6574 15.0363 28.8204 14.8837 30.0818H14.2868C14.1794 30.0818 14.0764 30.1245 14.0005 30.2004C13.9245 30.2764 13.8818 30.3794 13.8818 30.4868V30.9078C13.8832 31.0134 13.9258 31.1142 14.0004 31.1889C14.0751 31.2636 14.1759 31.3061 14.2815 31.3075H14.857C15.0068 32.5694 15.6103 33.7339 16.5549 34.5839C17.4995 35.434 18.721 35.9116 19.9917 35.9279C21.2624 35.9442 22.4957 35.498 23.4618 34.6725C24.4279 33.847 25.061 32.6984 25.2431 31.4407C25.5362 31.3821 26.57 31.3235 26.57 31.3235C26.57 31.3235 27.6678 31.3927 27.9556 31.4514C28.1121 32.7316 28.7355 33.9091 29.7063 34.7583C30.6772 35.6075 31.9271 36.0687 33.2168 36.0535C34.5065 36.0383 35.7453 35.5478 36.6959 34.676C37.6464 33.8042 38.2419 32.6124 38.3683 31.3288H38.9012C39.0068 31.3288 39.1082 31.2876 39.1839 31.214C39.2595 31.1403 39.3034 31.04 39.3062 30.9345V30.4922C39.3062 30.3847 39.2635 30.2817 39.1876 30.2058C39.1116 30.1298 39.0086 30.0872 38.9012 30.0872V30.0818ZM20.0581 34.6967C19.2687 34.6967 18.497 34.4626 17.8406 34.024C17.1842 33.5854 16.6726 32.9621 16.3705 32.2327C16.0684 31.5034 15.9894 30.7009 16.1434 29.9266C16.2974 29.1524 16.6775 28.4412 17.2357 27.883C17.794 27.3248 18.5051 26.9446 19.2794 26.7906C20.0537 26.6366 20.8562 26.7157 21.5855 27.0178C22.3148 27.3199 22.9382 27.8314 23.3768 28.4878C23.8154 29.1442 24.0495 29.9159 24.0495 30.7053C24.0495 31.7639 23.6289 32.7791 22.8804 33.5276C22.1319 34.2762 21.1167 34.6967 20.0581 34.6967ZM33.1406 34.6967C32.3512 34.6967 31.5795 34.4626 30.9231 34.024C30.2668 33.5854 29.7552 32.9621 29.4531 32.2327C29.151 31.5034 29.0719 30.7009 29.2259 29.9266C29.38 29.1524 29.7601 28.4412 30.3183 27.883C30.8765 27.3248 31.5877 26.9446 32.362 26.7906C33.1362 26.6366 33.9387 26.7157 34.6681 27.0178C35.3974 27.3199 36.0208 27.8314 36.4593 28.4878C36.8979 29.1442 37.132 29.9159 37.132 30.7053C37.132 31.7639 36.7115 32.7791 35.963 33.5276C35.2144 34.2762 34.1992 34.6967 33.1406 34.6967Z" fill="white"/>
<path d="M43.4732 28.5738V19.2534H40.1959C40.3875 18.229 40.5104 17.1929 40.5636 16.152L38.6345 17.5855C39.7003 16.3545 38.6345 10.6152 38.6345 10.6152C38.6345 10.6152 37.2276 13.3756 28.4562 12.6722C19.6848 11.9688 18.4538 15.4539 18.4538 15.4539C17.388 14.3881 18.4538 12.6456 18.4538 12.6456C18.136 12.7924 17.8502 13.0004 17.6128 13.2578C17.3755 13.5151 17.1911 13.8167 17.0704 14.1453C16.9496 14.4739 16.8948 14.8231 16.9091 15.1729C16.9233 15.5227 17.0064 15.8663 17.1535 16.184L17.2281 16.3279H14.3878L16.3488 17.5855C15.7309 17.9955 15.2559 18.5878 14.99 19.2801H9.71432V28.5738L7.7959 30.4922L9.71432 32.4106L10.2472 41.7309H15.2298L14.6969 31.8671C14.7021 31.8344 14.7007 31.8011 14.6928 31.769C14.6848 31.7369 14.6704 31.7068 14.6505 31.6804C14.6306 31.654 14.6056 31.6319 14.5769 31.6155C14.5482 31.599 14.5165 31.5885 14.4837 31.5846C14.4188 31.5754 14.3529 31.592 14.3001 31.6309C14.2473 31.6697 14.2118 31.7277 14.2013 31.7924C14.1959 31.817 14.1959 31.8425 14.2013 31.8671V39.4342H11.9685V31.7924L10.6575 30.4922L11.9631 29.1919V21.5502H14.4464C14.3878 22.1274 14.3771 22.7085 14.4144 23.2875H16.1677C16.2652 22.2231 16.7737 21.2387 17.5852 20.5431C20.5694 16.8554 33.2043 19.0083 33.2043 19.0083L34.6058 16.9407L34.0729 19.0083C37.0465 19.7171 37.3022 23.2235 37.3022 23.2235H38.6345C39.035 22.7207 39.35 22.1553 39.567 21.5502H41.219V29.1919L42.5246 30.4922L41.219 31.7924V39.4342H38.4906L39.0235 41.7309H44.0061L43.4732 32.4106L45.3916 30.4922L43.4732 28.5738Z" fill="white"/>
<path d="M68.7531 20.1329H73.0429V22.2005H66.1152V9.18188H68.7264L68.7531 20.1329Z" fill="white"/>
<path d="M84.2336 17.8201H76.6771C76.7039 18.4833 76.9843 19.1108 77.4605 19.5733C77.9234 19.9972 78.533 20.2246 79.1604 20.2074C79.5913 20.2326 80.0197 20.1263 80.3889 19.9027C80.7581 19.6791 81.0507 19.3487 81.228 18.9551H84.0364C83.746 19.937 83.1436 20.7975 82.3205 21.4064C81.4302 22.0639 80.3467 22.4069 79.2403 22.3816C78.3095 22.3942 77.3913 22.1647 76.5759 21.7155C75.7928 21.2824 75.1508 20.6331 74.7267 19.8451C74.2608 18.9886 74.0206 18.0276 74.0286 17.0527C74.0081 16.073 74.2334 15.1038 74.6841 14.2337C75.0973 13.4462 75.7329 12.7976 76.5119 12.3686C77.3496 11.9194 78.2902 11.6972 79.2403 11.7238C80.1683 11.7023 81.086 11.9207 81.9048 12.3579C82.6709 12.7671 83.3007 13.3913 83.7166 14.1538C84.1533 14.9732 84.3751 15.8898 84.3615 16.8182C84.3453 17.155 84.3025 17.49 84.2336 17.8201ZM81.6011 16.0668C81.6042 15.7636 81.5409 15.4634 81.4158 15.1872C81.2906 14.9111 81.1064 14.6656 80.8763 14.4682C80.3922 14.0574 79.7738 13.8393 79.1391 13.8553C78.5412 13.8391 77.9591 14.0483 77.5084 14.4415C77.0476 14.8696 76.7595 15.4515 76.6984 16.0775L81.6011 16.0668Z" fill="white"/>
<path d="M86.1679 14.2177C86.5469 13.4495 87.1341 12.8033 87.8625 12.3526C88.5849 11.915 89.416 11.6897 90.2605 11.7024C90.9634 11.6876 91.6591 11.8469 92.2855 12.166C92.8304 12.449 93.304 12.8516 93.6711 13.3437V11.8676H96.2929V22.2004H93.6604V20.6923C93.3011 21.1971 92.8259 21.6082 92.2749 21.8914C91.6435 22.2195 90.94 22.3844 90.2286 22.371C89.3884 22.3791 88.5635 22.1461 87.8519 21.6995C87.1273 21.2334 86.5447 20.5772 86.1679 19.8024C85.737 18.9318 85.5214 17.9706 85.5391 16.9994C85.5225 16.0351 85.7382 15.0811 86.1679 14.2177ZM93.298 15.4007C93.0712 14.9564 92.7217 14.5865 92.2909 14.3349C91.8778 14.0963 91.409 13.9713 90.932 13.9726C90.4522 13.9687 89.9805 14.0962 89.5681 14.3414C89.1557 14.5866 88.8183 14.9401 88.5926 15.3634C88.3289 15.8543 88.1967 16.405 88.2089 16.9621C88.1967 17.5294 88.3287 18.0904 88.5926 18.5927C88.8243 19.0336 89.1727 19.4023 89.5997 19.6585C90.0006 19.9042 90.4619 20.0333 90.932 20.0316C91.409 20.0328 91.8778 19.9078 92.2909 19.6692C92.7217 19.4177 93.0712 19.0477 93.298 18.6034C93.5595 18.1006 93.6879 17.5392 93.6711 16.9727C93.6749 16.4257 93.545 15.8861 93.2927 15.4007H93.298Z" fill="white"/>
<path d="M102.779 12.1874C103.344 11.8682 103.985 11.7063 104.633 11.7184V14.4628H103.946C103.277 14.4146 102.615 14.6201 102.092 15.0383C101.671 15.422 101.468 16.1041 101.468 17.0527V22.2004H98.8516V11.8676H101.468V13.4663C101.788 12.9342 102.239 12.4936 102.779 12.1874Z" fill="white"/>
<path d="M115.1 12.8854C115.495 13.3258 115.799 13.8405 115.994 14.3995C116.189 14.9584 116.271 15.5506 116.235 16.1414V22.2004H113.623V16.5198C113.671 15.8337 113.451 15.1559 113.011 14.628C112.794 14.4041 112.533 14.2293 112.243 14.1153C111.953 14.0013 111.643 13.9508 111.332 13.9672C111.017 13.9454 110.702 13.9907 110.406 14.1C110.11 14.2093 109.841 14.3802 109.616 14.6014C109.392 14.8649 109.222 15.1699 109.116 15.4991C109.01 15.8282 108.97 16.1751 108.998 16.5198V22.2004H106.387V11.8676H108.998V13.1572C109.353 12.7008 109.811 12.3354 110.335 12.0914C110.893 11.8319 111.501 11.7007 112.115 11.7077C112.667 11.686 113.218 11.7794 113.732 11.9822C114.245 12.185 114.711 12.4926 115.1 12.8854Z" fill="white"/>
<path d="M80.4613 32.1176L77.4398 42.4504H74.6261L72.7397 35.2351L70.8585 42.4504H68.0502L65.0127 32.1176H67.6772L69.457 39.9672L71.4394 32.0963H74.1998L76.1342 39.9672L77.9674 32.1176H80.4613Z" fill="white"/>
<path d="M82.0596 30.4496C81.9143 30.3072 81.7988 30.1373 81.72 29.9497C81.6412 29.7621 81.6006 29.5607 81.6006 29.3572C81.6006 29.1537 81.6412 28.9523 81.72 28.7647C81.7988 28.5772 81.9143 28.4072 82.0596 28.2648C82.375 27.9835 82.7828 27.8281 83.2054 27.8281C83.6279 27.8281 84.0357 27.9835 84.3511 28.2648C84.4964 28.4072 84.6119 28.5772 84.6907 28.7647C84.7695 28.9523 84.8101 29.1537 84.8101 29.3572C84.8101 29.5607 84.7695 29.7621 84.6907 29.9497C84.6119 30.1373 84.4964 30.3072 84.3511 30.4496C84.0357 30.7309 83.6279 30.8864 83.2054 30.8864C82.7828 30.8864 82.375 30.7309 82.0596 30.4496ZM84.495 32.1176V42.4504H81.9051V32.1176H84.495Z" fill="white"/>
<path d="M90.1066 34.2599V39.2584C90.0941 39.395 90.1098 39.5327 90.1529 39.6629C90.196 39.7931 90.2655 39.913 90.3571 40.0151C90.6017 40.1935 90.9029 40.2769 91.2044 40.2496H92.4194V42.4504H90.7781C88.579 42.4504 87.4777 41.3847 87.4741 39.2531V34.2599H86.2432V32.1283H87.4741V29.5651H90.1066V32.1176H92.4194V34.2492L90.1066 34.2599Z" fill="white"/>
<path d="M102.209 32.5067C102.827 32.855 103.325 33.3827 103.637 34.0201C104.003 34.7655 104.186 35.5877 104.17 36.4181V42.4505H101.559V36.7698C101.606 36.0838 101.387 35.4059 100.946 34.878C100.73 34.6542 100.468 34.4793 100.178 34.3653C99.8888 34.2513 99.5781 34.2008 99.2674 34.2172C98.9525 34.2004 98.6378 34.2507 98.3438 34.3646C98.0498 34.4785 97.7834 34.6535 97.5621 34.878C97.1068 35.3993 96.8752 36.079 96.9173 36.7698V42.4505H94.3008V28.6485H96.9173V33.4072C97.2637 32.9425 97.7245 32.5753 98.2549 32.3415C98.8415 32.0802 99.4778 31.9492 100.12 31.9578C100.852 31.9555 101.572 32.1447 102.209 32.5067Z" fill="white"/>
<path d="M113.111 42.0987C112.423 41.8184 111.826 41.3538 111.385 40.7559C110.956 40.1501 110.728 39.425 110.734 38.6829H113.532C113.535 38.9245 113.587 39.1629 113.685 39.3837C113.783 39.6045 113.925 39.803 114.102 39.9672C114.494 40.2986 114.997 40.4666 115.509 40.4361C116.024 40.4688 116.534 40.3135 116.943 39.9991C117.114 39.8624 117.251 39.6877 117.344 39.4889C117.436 39.2901 117.481 39.0726 117.476 38.8534C117.489 38.5015 117.363 38.1585 117.124 37.8995C116.874 37.6436 116.572 37.4438 116.239 37.3134C115.759 37.1282 115.27 36.9682 114.774 36.8338C114.069 36.6401 113.38 36.3943 112.712 36.0984C112.175 35.8504 111.708 35.4732 111.353 35.0006C110.943 34.4314 110.738 33.7401 110.772 33.0395C110.755 32.3253 110.956 31.6227 111.347 31.0252C111.75 30.438 112.315 29.9806 112.973 29.709C113.728 29.3923 114.541 29.2362 115.36 29.2507C116.53 29.196 117.685 29.5419 118.632 30.2312C119.05 30.5567 119.392 30.9704 119.632 31.4429C119.873 31.9154 120.006 32.4351 120.023 32.9649H117.151C117.141 32.7492 117.086 32.5379 116.987 32.3457C116.889 32.1534 116.75 31.9847 116.58 31.8512C116.178 31.543 115.679 31.3881 115.173 31.4142C114.732 31.392 114.298 31.5323 113.953 31.8086C113.796 31.9508 113.673 32.1268 113.594 32.3234C113.514 32.52 113.48 32.7321 113.495 32.9436C113.49 33.1045 113.518 33.2647 113.577 33.4141C113.637 33.5636 113.727 33.6992 113.841 33.8122C114.09 34.0441 114.381 34.2252 114.699 34.3451C115.172 34.535 115.654 34.7004 116.143 34.8407C116.85 35.0369 117.542 35.2863 118.211 35.5868C118.757 35.8389 119.232 36.2236 119.591 36.7059C120.002 37.2727 120.207 37.9626 120.172 38.6616C120.179 39.3452 119.994 40.0171 119.639 40.6013C119.253 41.2198 118.698 41.7152 118.04 42.0295C117.266 42.4001 116.415 42.5827 115.557 42.5624C114.719 42.5741 113.887 42.4164 113.111 42.0987Z" fill="white"/>
<path d="M132.183 32.1176V42.4504H129.551V41.1448C129.209 41.6029 128.758 41.969 128.24 42.2106C127.688 42.4686 127.085 42.5997 126.476 42.5943C125.732 42.5997 124.999 42.4164 124.344 42.0614C123.719 41.7151 123.21 41.19 122.884 40.5533C122.512 39.8176 122.329 39.0008 122.351 38.1766V32.1176H124.963V37.8356C124.915 38.5216 125.135 39.1995 125.575 39.7273C125.792 39.9512 126.053 40.1261 126.343 40.2401C126.633 40.3541 126.943 40.4045 127.254 40.3881C127.568 40.4059 127.882 40.3561 128.176 40.2421C128.469 40.1281 128.734 39.9526 128.954 39.7273C129.389 39.1971 129.603 38.5195 129.551 37.8356V32.1176H132.183Z" fill="white"/>
<path d="M150.649 33.1355C151.052 33.572 151.362 34.0854 151.562 34.6449C151.761 35.2044 151.846 35.7985 151.81 36.3914V42.4504H149.199V36.7698C149.247 36.0951 149.027 35.4287 148.586 34.9153C148.371 34.6926 148.111 34.5176 147.824 34.402C147.537 34.2863 147.228 34.2324 146.918 34.2439C146.608 34.2279 146.297 34.2771 146.006 34.3881C145.715 34.4991 145.45 34.6696 145.229 34.8887C145.005 35.1448 144.835 35.4432 144.727 35.7663C144.62 36.0893 144.579 36.4305 144.606 36.7698V42.4504H141.995V36.7698C142.04 36.0944 141.818 35.4281 141.376 34.9153C141.158 34.696 140.895 34.5252 140.606 34.4141C140.317 34.303 140.007 34.2541 139.698 34.2705C139.384 34.2536 139.071 34.3023 138.777 34.4133C138.484 34.5243 138.216 34.6953 137.992 34.9153C137.772 35.1682 137.603 35.4622 137.496 35.7804C137.389 36.0987 137.346 36.4349 137.369 36.7698V42.4504H134.758V32.1176H137.369V33.3699C137.712 32.9282 138.156 32.5754 138.664 32.3414C139.209 32.0879 139.805 31.9604 140.406 31.9684C141.161 31.9615 141.905 32.1448 142.57 32.5013C143.196 32.8333 143.71 33.3432 144.046 33.9668C144.385 33.3502 144.894 32.8436 145.512 32.5066C146.327 32.065 147.26 31.8883 148.181 32.001C149.101 32.1137 149.964 32.5102 150.649 33.1355Z" fill="white"/>
<path d="M154.481 30.4497C154.335 30.3073 154.22 30.1373 154.141 29.9497C154.062 29.7621 154.021 29.5607 154.021 29.3572C154.021 29.1538 154.062 28.9523 154.141 28.7648C154.22 28.5772 154.335 28.4072 154.481 28.2648C154.797 27.9831 155.205 27.8275 155.629 27.8275C156.052 27.8275 156.461 27.9831 156.777 28.2648C157.067 28.5546 157.23 28.9475 157.23 29.3572C157.23 29.7669 157.067 30.1599 156.777 30.4497C156.461 30.7313 156.052 30.8869 155.629 30.8869C155.205 30.8869 154.797 30.7313 154.481 30.4497ZM156.916 32.1176V42.4504H154.305V32.1176H156.916Z" fill="white"/>
<path d="M162.527 34.2599V39.2584C162.514 39.3954 162.53 39.5337 162.574 39.6642C162.618 39.7946 162.689 39.9142 162.783 40.0151C163.027 40.1949 163.329 40.2784 163.63 40.2496H164.84V42.4504H163.199C160.999 42.4504 159.9 41.3847 159.9 39.2531V34.2599H158.669V32.1283H159.9V29.5651H162.527V32.1176H164.84V34.2492L162.527 34.2599Z" fill="white"/>
</g>
<defs>
<clipPath id="clip0_155_188">
<rect width="165" height="53.2894" fill="white"/>
</clipPath>
</defs>
</svg>
