<svg width="208" height="68" viewBox="0 0 208 68" fill="none" xmlns="http://www.w3.org/2000/svg">
<g clip-path="url(#clip0_1155_1547)">
<path d="M33.7102 66.0196C51.4297 66.0196 65.7941 51.6551 65.7941 33.9356C65.7941 16.2162 51.4297 1.85168 33.7102 1.85168C15.9907 1.85168 1.62622 16.2162 1.62622 33.9356C1.62622 51.6551 15.9907 66.0196 33.7102 66.0196Z" fill="#171C2A"/>
<path d="M33.7102 67.3564C27.1002 67.3564 20.6386 65.3963 15.1426 61.724C9.6466 58.0517 5.36298 52.8321 2.83343 46.7252C0.303894 40.6184 -0.357949 33.8985 0.9316 27.4155C2.22115 20.9326 5.40417 14.9775 10.0782 10.3036C14.7521 5.62957 20.7071 2.44655 27.1901 1.157C33.6731 -0.132546 40.3929 0.529297 46.4998 3.05884C52.6067 5.58838 57.8263 9.872 61.4986 15.368C65.1709 20.864 67.131 27.3256 67.131 33.9356C67.1204 42.7961 63.5959 51.2906 57.3306 57.556C51.0652 63.8213 42.5707 67.3458 33.7102 67.3564ZM33.7102 3.18849C27.629 3.18849 21.6844 4.99178 16.628 8.37032C11.5717 11.7489 7.63075 16.5509 5.30358 22.1692C2.9764 27.7875 2.3675 33.9697 3.55389 39.9341C4.74027 45.8984 7.66865 51.3771 11.9687 55.6771C16.2688 59.9772 21.7474 62.9056 27.7118 64.0919C33.6761 65.2783 39.8583 64.6694 45.4766 62.3423C51.0949 60.0151 55.897 56.0741 59.2755 51.0178C62.6541 45.9615 64.4573 40.0168 64.4573 33.9356C64.4467 25.7842 61.2039 17.9697 55.44 12.2058C49.6761 6.44193 41.8616 3.19911 33.7102 3.18849Z" fill="#00D991"/>
<path d="M25.8048 36.4425L25.6111 36.6364C25.512 36.7357 25.5121 36.8965 25.6114 36.9957L28.5201 39.9004C28.6194 39.9995 28.7802 39.9994 28.8794 39.9001L29.073 39.7062C29.1721 39.6069 29.172 39.4461 29.0727 39.347L26.164 36.4423C26.0647 36.3432 25.9039 36.3433 25.8048 36.4425Z" fill="white"/>
<path d="M25.8684 34.9503L25.6746 35.1441C25.5755 35.2433 25.5755 35.4041 25.6746 35.5033L28.0757 37.9043C28.1749 38.0035 28.3357 38.0035 28.4349 37.9043L28.6287 37.7105C28.7278 37.6114 28.7278 37.4505 28.6287 37.3513L26.2276 34.9503C26.1284 34.8511 25.9676 34.8511 25.8684 34.9503Z" fill="white"/>
<path d="M42.2335 36.4501L42.0398 36.644C41.9407 36.7433 41.9408 36.9041 42.0401 37.0032L44.9488 39.908C45.0481 40.0071 45.2089 40.007 45.308 39.9077L45.5017 39.7138C45.6008 39.6145 45.6007 39.4537 45.5014 39.3546L42.5927 36.4499C42.4934 36.3507 42.3326 36.3509 42.2335 36.4501Z" fill="white"/>
<path d="M42.2768 34.9516L42.0828 35.1452C41.9836 35.2443 41.9834 35.4051 42.0825 35.5044L44.4814 37.9075C44.5806 38.0068 44.7414 38.007 44.8407 37.9079L45.0346 37.7142C45.1339 37.6151 45.134 37.4543 45.0349 37.355L42.636 34.9519C42.5369 34.8526 42.3761 34.8525 42.2768 34.9516Z" fill="white"/>
<path fill-rule="evenodd" clip-rule="evenodd" d="M49.0837 38.2469H48.4153C48.2257 36.6644 47.4672 35.2047 46.2813 34.1398C45.0954 33.075 43.5628 32.4775 41.969 32.4587C40.3753 32.4399 38.829 33.001 37.6183 34.0376C36.4075 35.0742 35.6148 36.5155 35.3879 38.0932C35.0336 38.1734 33.65 38.2469 33.65 38.2469C33.65 38.2469 32.3132 38.1801 31.9857 38.1065C31.7602 36.5288 30.969 35.0868 29.7593 34.0491C28.5497 33.0114 27.0041 32.4487 25.4104 32.4659C23.8167 32.483 22.2836 33.0789 21.0966 34.1424C19.9096 35.2059 19.1496 36.6647 18.9582 38.2469H18.2096C18.0749 38.2469 17.9457 38.3004 17.8504 38.3957C17.7551 38.491 17.7016 38.6202 17.7016 38.7549V39.283C17.7033 39.4154 17.7567 39.5419 17.8504 39.6355C17.944 39.7292 18.0705 39.7825 18.2029 39.7843H18.9248C19.1127 41.3671 19.8696 42.8277 21.0545 43.8939C22.2394 44.9601 23.7714 45.5593 25.3653 45.5797C26.9591 45.6002 28.506 45.0405 29.7179 44.0051C30.9297 42.9696 31.7238 41.5289 31.9522 39.9514C32.3199 39.8778 33.6166 39.8043 33.6166 39.8043C33.6166 39.8043 34.9935 39.8912 35.3545 39.9647C35.5509 41.5706 36.3328 43.0475 37.5505 44.1127C38.7682 45.1778 40.3361 45.7563 41.9538 45.7372C43.5715 45.7182 45.1253 45.103 46.3176 44.0095C47.5098 42.916 48.2568 41.421 48.4153 39.811H49.0837C49.2162 39.811 49.3434 39.7594 49.4383 39.667C49.5332 39.5746 49.5883 39.4488 49.5917 39.3164V38.7616C49.5917 38.6269 49.5382 38.4976 49.4429 38.4024C49.3477 38.3071 49.2185 38.2536 49.0837 38.2536V38.2469ZM25.4486 44.0354C24.4584 44.0354 23.4904 43.7418 22.6671 43.1917C21.8438 42.6415 21.2021 41.8596 20.8232 40.9448C20.4443 40.03 20.3451 39.0234 20.5383 38.0522C20.7315 37.0811 21.2083 36.189 21.9085 35.4889C22.6086 34.7887 23.5007 34.3119 24.4718 34.1187C25.443 33.9255 26.4496 34.0247 27.3644 34.4036C28.2792 34.7825 29.0611 35.4242 29.6113 36.2475C30.1614 37.0708 30.455 38.0388 30.455 39.029C30.455 40.3567 29.9275 41.6301 28.9886 42.569C28.0498 43.5079 26.7763 44.0354 25.4486 44.0354ZM41.8582 44.0354C40.868 44.0354 39.9 43.7418 39.0767 43.1917C38.2534 42.6415 37.6117 41.8596 37.2328 40.9448C36.8539 40.03 36.7548 39.0234 36.9479 38.0522C37.1411 37.0811 37.6179 36.189 38.3181 35.4889C39.0182 34.7887 39.9103 34.3119 40.8815 34.1187C41.8526 33.9255 42.8592 34.0247 43.774 34.4036C44.6889 34.7825 45.4708 35.4242 46.0209 36.2475C46.571 37.0708 46.8646 38.0388 46.8646 39.029C46.8646 40.3567 46.3371 41.6301 45.3982 42.569C44.4594 43.5079 43.186 44.0354 41.8582 44.0354Z" fill="white"/>
<path d="M54.8188 36.3553V24.6647H50.708C50.9484 23.3797 51.1025 22.0801 51.1692 20.7745L48.7496 22.5725C50.0864 21.0285 48.7496 13.8297 48.7496 13.8297C48.7496 13.8297 46.9849 17.2921 35.9828 16.4098C24.9807 15.5274 23.4366 19.8989 23.4366 19.8989C22.0998 18.5621 23.4366 16.3763 23.4366 16.3763C23.038 16.5605 22.6796 16.8215 22.3818 17.1442C22.0841 17.467 21.8529 17.8453 21.7014 18.2575C21.55 18.6697 21.4812 19.1077 21.4991 19.5464C21.517 19.9852 21.6212 20.4161 21.8057 20.8146L21.8993 20.9951H18.3366L20.7964 22.5725C20.0213 23.0869 19.4256 23.8298 19.0919 24.6981H12.4746V36.3553L10.0683 38.7616L12.4746 41.1679L13.143 52.8585H19.3927L18.7243 40.4861C18.7309 40.4452 18.7292 40.4033 18.7192 40.3631C18.7092 40.3228 18.6912 40.285 18.6662 40.2519C18.6412 40.2188 18.6098 40.1911 18.5738 40.1705C18.5379 40.1499 18.4981 40.1367 18.4569 40.1318C18.3755 40.1203 18.2928 40.1411 18.2266 40.1898C18.1604 40.2386 18.1159 40.3113 18.1027 40.3925C18.096 40.4233 18.096 40.4553 18.1027 40.4861V49.9776H15.302V40.3925L13.6577 38.7616L15.2953 37.1306V27.5456H18.4102C18.3366 28.2695 18.3232 28.9984 18.3701 29.7246H20.5691C20.6915 28.3896 21.3293 27.1548 22.3471 26.2823C26.0903 21.6568 41.9384 24.3572 41.9384 24.3572L43.6963 21.7638L43.0279 24.3572C46.7577 25.2462 47.0785 29.6444 47.0785 29.6444H48.7496C49.2519 29.0137 49.6471 28.3046 49.9193 27.5456H51.9914V37.1306L53.629 38.7616L51.9914 40.3925V49.9776H48.5691L49.2375 52.8585H55.4872L54.8188 41.1679L57.2251 38.7616L54.8188 36.3553Z" fill="white"/>
<path d="M86.5284 25.7676H91.9092V28.361H83.2198V12.0316H86.495L86.5284 25.7676Z" fill="white"/>
<path d="M105.946 22.8667H96.4678C96.5014 23.6985 96.8531 24.4857 97.4503 25.0657C98.031 25.5974 98.7956 25.8827 99.5826 25.8612C100.123 25.8927 100.66 25.7594 101.124 25.4789C101.587 25.1985 101.954 24.784 102.176 24.2904H105.699C105.334 25.522 104.579 26.6013 103.546 27.3651C102.43 28.1897 101.071 28.62 99.6828 28.5883C98.5152 28.6041 97.3636 28.3162 96.3408 27.7528C95.3585 27.2095 94.5533 26.3951 94.0214 25.4066C93.437 24.3324 93.1357 23.127 93.1457 21.9041C93.1199 20.6753 93.4026 19.4596 93.9679 18.3682C94.4862 17.3805 95.2835 16.5669 96.2606 16.0288C97.3113 15.4654 98.4911 15.1866 99.6828 15.22C100.847 15.1931 101.998 15.4671 103.025 16.0154C103.986 16.5287 104.776 17.3116 105.298 18.268C105.845 19.2957 106.123 20.4456 106.106 21.61C106.086 22.0325 106.032 22.4527 105.946 22.8667ZM102.644 20.6676C102.648 20.2872 102.569 19.9107 102.411 19.5643C102.254 19.2179 102.024 18.91 101.735 18.6623C101.128 18.1472 100.352 17.8735 99.5558 17.8936C98.8059 17.8733 98.0758 18.1357 97.5105 18.6289C96.9325 19.1658 96.5711 19.8958 96.4945 20.6809L102.644 20.6676Z" fill="white"/>
<path d="M108.372 18.3481C108.848 17.3846 109.584 16.574 110.498 16.0087C111.404 15.4598 112.446 15.1772 113.506 15.1932C114.387 15.1747 115.26 15.3744 116.046 15.7747C116.729 16.1296 117.323 16.6347 117.784 17.2519V15.4004H121.072V28.361H117.77V26.4694C117.319 27.1025 116.724 27.6182 116.032 27.9733C115.24 28.3849 114.358 28.5917 113.466 28.5749C112.412 28.5852 111.377 28.2929 110.484 27.7327C109.576 27.1481 108.845 26.3249 108.372 25.3531C107.832 24.2612 107.561 23.0555 107.584 21.8373C107.563 20.6278 107.833 19.4311 108.372 18.3481ZM117.316 19.832C117.031 19.2747 116.593 18.8107 116.052 18.4952C115.534 18.1959 114.946 18.0391 114.348 18.0407C113.746 18.0358 113.154 18.1958 112.637 18.5034C112.12 18.8109 111.697 19.2542 111.414 19.7852C111.083 20.4009 110.917 21.0917 110.932 21.7905C110.917 22.502 111.083 23.2058 111.414 23.8358C111.704 24.3888 112.141 24.8512 112.677 25.1727C113.18 25.4808 113.758 25.6428 114.348 25.6406C114.946 25.6422 115.534 25.4854 116.052 25.186C116.593 24.8705 117.031 24.4066 117.316 23.8492C117.644 23.2185 117.805 22.5144 117.784 21.8039C117.788 21.1177 117.625 20.4408 117.309 19.832H117.316Z" fill="white"/>
<path d="M129.207 15.8015C129.916 15.4012 130.719 15.1981 131.533 15.2133V18.6556H130.671C129.832 18.5951 129.001 18.8528 128.345 19.3775C127.816 19.8587 127.562 20.7143 127.562 21.9041V28.361H124.281V15.4004H127.562V17.4057C127.963 16.7382 128.53 16.1856 129.207 15.8015Z" fill="white"/>
<path d="M144.661 16.6771C145.157 17.2295 145.538 17.8751 145.783 18.5762C146.027 19.2773 146.129 20.02 146.084 20.7611V28.361H142.809V21.2357C142.869 20.3752 142.593 19.525 142.04 18.8628C141.769 18.582 141.441 18.3627 141.078 18.2197C140.714 18.0768 140.325 18.0134 139.935 18.034C139.54 18.0067 139.144 18.0634 138.773 18.2006C138.402 18.3377 138.065 18.552 137.783 18.8294C137.502 19.1599 137.288 19.5425 137.155 19.9554C137.022 20.3683 136.972 20.8034 137.007 21.2357V28.361H133.732V15.4004H137.007V17.018C137.452 16.4455 138.027 15.9872 138.685 15.6812C139.384 15.3556 140.147 15.1911 140.917 15.1999C141.61 15.1726 142.3 15.2898 142.945 15.5442C143.589 15.7985 144.173 16.1844 144.661 16.6771Z" fill="white"/>
<path d="M101.214 40.8002L97.4236 53.7608H93.8944L91.5282 44.7105L89.1687 53.7608H85.6461L81.8362 40.8002H85.1782L87.4107 50.646L89.8973 40.7735H93.3596L95.786 50.646L98.0853 40.8002H101.214Z" fill="white"/>
<path d="M103.219 38.7081C103.036 38.5295 102.892 38.3163 102.793 38.081C102.694 37.8457 102.643 37.5931 102.643 37.3379C102.643 37.0826 102.694 36.83 102.793 36.5947C102.892 36.3594 103.036 36.1462 103.219 35.9676C103.614 35.6148 104.126 35.4198 104.656 35.4198C105.186 35.4198 105.697 35.6148 106.093 35.9676C106.275 36.1462 106.42 36.3594 106.519 36.5947C106.618 36.83 106.669 37.0826 106.669 37.3379C106.669 37.5931 106.618 37.8457 106.519 38.081C106.42 38.3163 106.275 38.5295 106.093 38.7081C105.697 39.0609 105.186 39.2559 104.656 39.2559C104.126 39.2559 103.614 39.0609 103.219 38.7081ZM106.273 40.8003V53.7608H103.025V40.8003H106.273Z" fill="white"/>
<path d="M113.312 43.4873V49.757C113.296 49.9283 113.316 50.1011 113.37 50.2644C113.424 50.4277 113.511 50.5781 113.626 50.7062C113.933 50.93 114.311 51.0345 114.689 51.0003H116.213V53.7608H114.154C111.396 53.7608 110.014 52.424 110.01 49.7503V43.4873H108.466V40.8136H110.01V37.5985H113.312V40.8003H116.213V43.4739L113.312 43.4873Z" fill="white"/>
<path d="M128.492 41.2882C129.267 41.7251 129.892 42.3871 130.283 43.1865C130.742 44.1215 130.972 45.1528 130.951 46.1944V53.7608H127.676V46.6355C127.736 45.775 127.46 44.9248 126.907 44.2626C126.636 43.9818 126.308 43.7625 125.945 43.6196C125.581 43.4766 125.192 43.4132 124.802 43.4338C124.407 43.4127 124.012 43.4757 123.643 43.6186C123.275 43.7615 122.941 43.981 122.663 44.2626C122.092 44.9165 121.801 45.769 121.854 46.6355V53.7608H118.572V36.4489H121.854V42.4178C122.289 41.8348 122.867 41.3743 123.532 41.081C124.268 40.7532 125.066 40.589 125.871 40.5997C126.79 40.5968 127.693 40.8342 128.492 41.2882Z" fill="white"/>
<path d="M142.167 53.3197C141.304 52.9681 140.555 52.3852 140.002 51.6353C139.464 50.8755 139.179 49.9659 139.186 49.0351H142.695C142.699 49.3381 142.764 49.6372 142.887 49.9142C143.01 50.1911 143.188 50.4401 143.411 50.646C143.901 51.0618 144.533 51.2724 145.175 51.2342C145.821 51.2752 146.46 51.0804 146.973 50.6861C147.188 50.5146 147.361 50.2955 147.476 50.0462C147.592 49.7968 147.649 49.524 147.642 49.249C147.659 48.8076 147.5 48.3774 147.201 48.0526C146.887 47.7315 146.509 47.4809 146.091 47.3173C145.489 47.0851 144.876 46.8843 144.253 46.7157C143.369 46.4728 142.504 46.1645 141.666 45.7933C140.993 45.4823 140.407 45.0092 139.962 44.4164C139.448 43.7024 139.191 42.8353 139.233 41.9566C139.212 41.0607 139.464 40.1795 139.955 39.43C140.46 38.6934 141.168 38.1197 141.994 37.779C142.941 37.3818 143.961 37.186 144.988 37.2042C146.456 37.1356 147.904 37.5694 149.092 38.4341C149.617 38.8423 150.045 39.3613 150.347 39.9539C150.649 40.5466 150.816 41.1984 150.837 41.863H147.234C147.223 41.5924 147.153 41.3274 147.029 41.0863C146.906 40.8451 146.732 40.6336 146.519 40.4661C146.014 40.0794 145.389 39.8851 144.754 39.918C144.201 39.8901 143.656 40.066 143.223 40.4126C143.026 40.5909 142.872 40.8118 142.772 41.0584C142.673 41.305 142.631 41.571 142.649 41.8363C142.642 42.0381 142.677 42.239 142.752 42.4265C142.827 42.614 142.939 42.784 143.083 42.9258C143.395 43.2167 143.76 43.4437 144.159 43.5942C144.752 43.8324 145.357 44.0398 145.971 44.2159C146.858 44.4619 147.724 44.7747 148.564 45.1516C149.249 45.4679 149.844 45.9504 150.295 46.5553C150.81 47.2663 151.067 48.1316 151.024 49.0084C151.032 49.8659 150.801 50.7086 150.355 51.4414C149.871 52.2172 149.175 52.8386 148.35 53.2328C147.379 53.6977 146.312 53.9268 145.235 53.9012C144.184 53.916 143.14 53.7182 142.167 53.3197Z" fill="white"/>
<path d="M166.09 40.8002V53.7608H162.788V52.1232C162.359 52.6977 161.794 53.157 161.144 53.46C160.451 53.7835 159.695 53.948 158.931 53.9413C157.998 53.9481 157.078 53.7181 156.258 53.2729C155.473 52.8385 154.835 52.1799 154.426 51.3813C153.959 50.4584 153.73 49.4339 153.758 48.4001V40.8002H157.033V47.9723C156.973 48.8329 157.249 49.6831 157.802 50.3452C158.073 50.626 158.401 50.8453 158.764 50.9883C159.128 51.1313 159.517 51.1946 159.907 51.174C160.301 51.1963 160.695 51.1339 161.063 50.9909C161.431 50.8479 161.764 50.6277 162.039 50.3452C162.585 49.6801 162.853 48.8302 162.788 47.9723V40.8002H166.09Z" fill="white"/>
<path d="M189.251 42.0769C189.756 42.6245 190.145 43.2685 190.396 43.9703C190.646 44.6721 190.752 45.4172 190.708 46.1609V53.7608H187.432V46.6355C187.493 45.7892 187.216 44.9533 186.664 44.3094C186.394 44.03 186.068 43.8106 185.707 43.6655C185.347 43.5204 184.96 43.4529 184.572 43.4672C184.182 43.4472 183.792 43.5089 183.427 43.6481C183.062 43.7874 182.73 44.0012 182.453 44.276C182.172 44.5973 181.958 44.9716 181.823 45.3768C181.689 45.782 181.637 46.21 181.671 46.6355V53.7608H178.396V46.6355C178.453 45.7884 178.174 44.9527 177.62 44.3094C177.346 44.0343 177.016 43.8201 176.654 43.6808C176.291 43.5414 175.903 43.4801 175.515 43.5006C175.121 43.4795 174.728 43.5405 174.36 43.6797C173.992 43.819 173.656 44.0334 173.376 44.3094C173.099 44.6267 172.887 44.9954 172.753 45.3946C172.619 45.7937 172.565 46.2154 172.594 46.6355V53.7608H169.318V40.8002H172.594V42.371C173.024 41.8169 173.581 41.3745 174.218 41.081C174.902 40.7629 175.649 40.603 176.404 40.6131C177.35 40.6045 178.283 40.8343 179.117 41.2815C179.903 41.6979 180.547 42.3375 180.969 43.1197C181.394 42.3463 182.032 41.7108 182.807 41.2882C183.83 40.7343 185 40.5126 186.155 40.6539C187.309 40.7953 188.391 41.2926 189.251 42.0769Z" fill="white"/>
<path d="M194.056 38.7081C193.874 38.5295 193.729 38.3163 193.63 38.081C193.532 37.8457 193.481 37.5931 193.481 37.3379C193.481 37.0827 193.532 36.83 193.63 36.5947C193.729 36.3594 193.874 36.1462 194.056 35.9676C194.453 35.6143 194.966 35.4191 195.497 35.4191C196.028 35.4191 196.541 35.6143 196.937 35.9676C197.301 36.3311 197.505 36.824 197.505 37.3379C197.505 37.8518 197.301 38.3446 196.937 38.7081C196.541 39.0614 196.028 39.2566 195.497 39.2566C194.966 39.2566 194.453 39.0614 194.056 38.7081ZM197.111 40.8003V53.7609H193.836V40.8003H197.111Z" fill="white"/>
<path d="M204.15 43.4873V49.757C204.133 49.9289 204.153 50.1024 204.208 50.266C204.264 50.4296 204.353 50.5796 204.47 50.7062C204.776 50.9317 205.155 51.0364 205.533 51.0003H207.051V53.7608H204.992C202.233 53.7608 200.854 52.424 200.854 49.7503V43.4873H199.31V40.8136H200.854V37.5985H204.15V40.8003H207.051V43.4739L204.15 43.4873Z" fill="white"/>
</g>
<defs>
<clipPath id="clip0_1155_1547">
<rect width="206.962" height="66.8416" fill="white" transform="translate(0.289413 0.514847)"/>
</clipPath>
</defs>
</svg>
