<svg xmlns="http://www.w3.org/2000/svg" fill="none" viewBox="0 0 200 200"><g id="agency--Work-agency"><path id="folder" fill="#ff7449" d="M133.622 67.135c-1.791 9.803 -5.628 33.901 -5.628 33.901l52.479 16.069s11.161 -30.318 14.374 -39.122a2.492 2.492 0 0 0 -1.492 -3.187c-0.065 0 -8.07 -2.929 -10.306 -3.729a2.745 2.745 0 0 0 -3.458 1.492 311.408 311.408 0 0 0 -1.288 2.983s-29.222 -8.598 -40.139 -11.391c-1.95 -0.499 -4.141 0.784 -4.543 2.983l0.001 0.001Z" stroke-width="1"></path><g id="paper 2"><path id="vector" fill="#ff7449" d="M56.191 28.148 5 37.64s1.017 68.21 1.356 68.888c0.881 1.492 50.717 -7.662 50.717 -7.662l-0.881 -70.718 -0.001 -0.001Z" stroke-width="1"></path><path id="vector_2" fill="#fccac2" d="M22.56 50.645c2.93 3.594 8.853 1.458 12.488 -2.252 0.454 0.395 0.94 0.631 1.304 0.767 5.025 1.902 10.181 -2.89 13.456 -7.146a0.5 0.5 0 0 0 -0.792 -0.61c-2.554 3.321 -7.55 8.623 -12.31 6.82a3.353 3.353 0 0 1 -0.977 -0.566c1.2 -1.433 2.636 -3.549 2.24 -5.374 -0.339 -1.61 -2.19 -1.596 -3.232 -0.505 -1.543 1.616 -1.633 4.144 -0.363 5.874 -2.915 2.99 -8.275 5.532 -10.962 2.452 2.708 -1.887 3.826 -4.02 3.154 -6.038 -0.552 -1.734 -2.646 -1.39 -3.77 -0.041a5.323 5.323 0 0 0 -0.766 5.772c-3.18 1.861 -7.059 3.272 -8.858 1.889a0.5 0.5 0 1 0 -0.609 0.792c2.493 1.919 7.277 -0.246 10 -1.834h-0.003Zm14.094 -8.606c0.11 0.033 0.264 0.115 0.336 0.455 0.313 1.441 -1.012 3.24 -1.927 4.4 -1.515 -2.34 0.305 -5.242 1.591 -4.854Zm-13.098 2.635c0.485 -0.581 1.743 -1.284 2.057 -0.297 0.65 1.951 -1.027 3.687 -2.735 4.881a4.323 4.323 0 0 1 0.678 -4.584Z" stroke-width="1"></path><path id="vector_3" fill="#fccac2" d="M14.602 73.601c1.32 0.071 2.618 -0.067 3.902 -0.496 1.543 -0.475 3.115 -1.177 4.68 -2.089a3.46 3.46 0 0 0 1.165 0.962c3.65 2.067 8.437 -0.361 11.34 -3.344 0.963 0.856 2.412 1.229 3.683 1.229 4.814 0 9.255 -5.112 11.117 -7.579a0.502 0.502 0 0 0 -0.8 -0.603c-2.024 2.684 -7.275 8.72 -12.307 6.816a3.38 3.38 0 0 1 -0.976 -0.566c1.196 -1.436 2.634 -3.558 2.238 -5.374 -0.13 -0.618 -0.495 -1.045 -1.028 -1.204 -2.275 -0.679 -4.908 3.476 -2.603 6.541 -2.276 2.353 -6.755 5.035 -10.195 3.202a2.63 2.63 0 0 1 -0.805 -0.646c2.712 -1.889 3.833 -4.023 3.16 -6.042 -0.2 -0.628 -0.626 -1.036 -1.198 -1.148 -2.296 -0.449 -4.945 3.294 -3.31 6.901 -2.343 1.363 -5.993 2.964 -8.626 2.316a0.5 0.5 0 0 0 -0.804 -0.448c-0.376 0.292 -0.365 0.605 -0.325 0.766 0.15 0.602 1.035 0.691 1.69 0.806h0.002Zm22.729 -11.29c0.11 0.033 0.265 0.115 0.336 0.455 0.31 1.431 -1.013 3.251 -1.937 4.412 -1.575 -2.289 0.31 -5.245 1.6 -4.867Zm-13.166 2.703c0.348 -0.418 1.13 -0.874 1.618 -0.773 0.132 0.025 0.32 0.103 0.439 0.476 0.647 1.943 -1.015 3.673 -2.716 4.868 -0.625 -1.531 -0.383 -3.309 0.659 -4.57v-0.001Z" stroke-width="1"></path><path id="vector_4" fill="#fccac2" d="M51.475 79.55a0.5 0.5 0 0 0 -0.701 0.098c-2.025 2.684 -7.281 8.719 -12.308 6.816a3.353 3.353 0 0 1 -0.976 -0.566c1.191 -1.426 2.633 -3.558 2.238 -5.374 -0.13 -0.618 -0.495 -1.045 -1.028 -1.204 -2.296 -0.682 -4.868 3.467 -2.567 6.573 -2.287 2.345 -6.828 5.152 -10.122 3.192a3.183 3.183 0 0 1 -0.848 -0.735c2.713 -1.889 3.834 -4.024 3.161 -6.043 -0.2 -0.628 -0.625 -1.036 -1.198 -1.148 -2.276 -0.447 -5.051 3.401 -3.327 6.901 -1.534 0.903 -3.071 1.594 -4.585 2.06 -1.187 0.396 -3.074 0.65 -4.092 0.335a0.498 0.498 0 0 0 -0.08 -0.342c-0.643 -0.96 -2.584 1.472 1.22 1.472 2.73 0 5.716 -1.29 8.067 -2.678 1.008 1.283 2.578 1.811 4.188 1.811 3.119 0 6.346 -2.101 8.292 -4.086 0.455 0.394 0.941 0.631 1.304 0.768 5.005 1.895 10.231 -2.873 13.459 -7.15a0.502 0.502 0 0 0 -0.098 -0.701l0.001 0.001Zm-24.1 3.066c0.65 1.951 -1.028 3.688 -2.736 4.882 -1.591 -3.469 2.168 -6.672 2.736 -4.882Zm11.041 -2.337c0.11 0.033 0.265 0.115 0.336 0.455 0.311 1.43 -1.015 3.255 -1.929 4.401 -1.544 -2.349 0.313 -5.231 1.593 -4.856Z" stroke-width="1"></path></g><g id="paper 1"><path id="vector_5" fill="#ffc700" d="M51.445 46.252 28.12 53.168c0 0.108 0 0.242 0 0L6.899 59.406s3.05 25.426 3.526 29.223l-0.068 0c0.475 3.933 2.44 19.595 2.848 22.85 0.139 0 0.378 0 0 0 0.678 5.356 1.153 8.95 1.288 9.086 0.897 1.195 42.553 -10.936 44.41 -11.459 -1.81 -14.297 -0.36 -2.208 -7.457 -62.853l-0.001 -0.001Z" stroke-width="1"></path><g id="group"><path id="vector_6" fill="#000000" d="m57.683 97.892 -22.198 6.516 -1.38 -10.282 21.957 -6.442a0.5 0.5 0 0 0 -0.283 -0.96L33.97 93.132 32.56 82.62l22.212 -6.531a0.5 0.5 0 0 0 -0.281 -0.96l-22.064 6.498 -1.348 -10.045 22.54 -6.613a0.5 0.5 0 1 0 -0.281 -0.96l-22.393 6.58 -1.231 -9.176 22.617 -6.615a0.5 0.5 0 0 0 -0.28 -0.96l-22.47 6.583 -0.965 -7.189a0.5 0.5 0 1 0 -0.99 0.139l0.984 7.334 -20.768 6.083c-0.551 0.162 -0.434 0.98 0.14 0.98l20.76 -6.072 1.232 9.177 -20.71 6.085c-0.55 0.163 -0.432 0.979 0.143 0.979l20.7 -6.073 1.349 10.045 -21.174 6.235c-0.55 0.163 -0.433 0.979 0.142 0.979l21.166 -6.222L33 93.413 11.709 99.67c-0.551 0.162 -0.434 0.98 0.14 0.98l21.287 -6.244 1.38 10.283 -21.247 6.237c-0.552 0.162 -0.434 0.98 0.14 0.98l44.214 -13.018c0.776 0 0.7 -1 0.062 -1l-0.001 0.004Z" stroke-width="1"></path><path id="vector_7" fill="#000000" d="M51.837 104.073c-2.261 2.261 -6.678 6.014 -10.902 5.752 -0.13 0 -0.255 -0.012 -0.383 -0.038 1.397 -1.399 1.953 -2.431 1.738 -3.282 -0.354 -1.07 -2.102 -0.762 -2.823 -0.027 -1.515 1.227 -1.478 2.663 -0.653 3.506 -1.721 1.424 -3.79 2.496 -6.018 3.115 -0.98 0.28 -1.945 0.225 -2.933 0.111 2.188 -1.508 2.96 -2.798 2.365 -3.922 -0.575 -1.149 -2.326 -0.536 -3.367 0.334 -1.02 0.96 -1.573 2.413 -0.816 3.537 -2.067 1.154 -5.006 2.502 -7.372 2.589 -0.36 -0.552 -1.21 0.006 -1.025 0.575 0.113 0.353 0.46 0.43 0.884 0.43 2.61 0 6.019 -1.597 8.29 -2.883 0.305 0.187 0.683 0.345 1.063 0.342 1.22 0.162 2.262 0.113 3.183 -0.149a17.29 17.29 0 0 0 6.618 -3.506c0.434 0.185 0.834 0.239 1.218 0.269 4.586 0.29 9.26 -3.664 11.64 -6.044a0.5 0.5 0 0 0 -0.707 -0.707v-0.002Zm-20.73 5.589c0.109 0 0.2 0.021 0.232 0.084 0.333 0.629 -0.555 1.681 -2.432 2.902 -0.803 -1.051 0.808 -2.986 2.2 -2.986Zm8.462 -0.335c-0.685 -0.636 -0.177 -1.499 0.567 -2.106 1.217 -1.217 2.083 -0.107 -0.567 2.106Z" stroke-width="1"></path></g></g><g id="window"><path id="vector_8" fill="#fccac2" d="M166.371 11.74H34.02c-3.661 0 -6.645 2.983 -6.645 6.645v2.78h145.641v-2.78a6.612 6.612 0 0 0 -6.645 -6.645Z" stroke-width="1"></path><path id="vector_9" fill="#ffffff" d="M27.443 21.097v107.739c0 3.661 2.983 6.645 6.645 6.645H166.44c3.661 0 6.645 -2.983 6.645 -6.645V21.097H27.444Z" stroke-width="1"></path><path id="vector_10" fill="#000000" d="M54.564 14.113a2.286 2.286 0 0 1 2.305 2.305 2.286 2.286 0 0 1 -2.305 2.305 2.286 2.286 0 0 1 -2.305 -2.305c-0.068 -1.288 1.017 -2.305 2.305 -2.305Z" stroke-width="1"></path><g id="group_2"><path id="vector_11" fill="#ff7449" d="M125.011 25.911c-0.535 -0.55 -1.356 -0.88 -2.17 -0.88h-6.102v6.033h6.102c2.764 0 4.015 -3.254 2.17 -5.153Z" stroke-width="1"></path><path id="vector_12" fill="#ff7449" d="M45.343 14.045a2.286 2.286 0 0 0 -2.305 2.305 2.286 2.286 0 0 0 2.305 2.305 2.286 2.286 0 0 0 2.305 -2.305c0.068 -1.22 -1.017 -2.305 -2.305 -2.305Z" stroke-width="1"></path></g><path id="vector_13" fill="#ffc700" d="M36.189 14.045a2.286 2.286 0 0 1 2.305 2.305 2.286 2.286 0 0 1 -2.305 2.305 2.286 2.286 0 0 1 -2.305 -2.305 2.286 2.286 0 0 1 2.305 -2.305Z" stroke-width="1"></path><g id="group_3"><path id="vector_14" fill="#000000" d="M166.371 135.98H34.02c-3.939 0 -7.145 -3.205 -7.145 -7.145V18.317c0 -3.939 3.205 -7.145 7.145 -7.145h132.351c3.939 0 7.145 3.205 7.145 7.145v110.519a7.153 7.153 0 0 1 -7.145 7.145v-0.001ZM34.02 12.172a6.152 6.152 0 0 0 -6.145 6.145v110.519a6.152 6.152 0 0 0 6.145 6.145h132.351a6.152 6.152 0 0 0 6.145 -6.145V18.317a6.152 6.152 0 0 0 -6.145 -6.145H34.02Z" stroke-width="1"></path><path id="vector_15" fill="#000000" d="M122.842 31.632H77.889a3.555 3.555 0 0 1 -3.551 -3.551 3.555 3.555 0 0 1 3.55 -3.551h44.954a3.555 3.555 0 0 1 3.551 3.551 3.555 3.555 0 0 1 -3.551 3.551ZM77.889 25.53a2.524 2.524 0 0 0 -2.551 2.551 2.524 2.524 0 0 0 2.55 2.551h44.954a2.524 2.524 0 0 0 2.551 -2.551 2.524 2.524 0 0 0 -2.551 -2.551H77.889Z" stroke-width="1"></path></g><path id="vector_16" fill="#ffffff" d="m122.978 28.881 -0.923 -0.597c0.315 -1.09 -0.521 -2.06 -1.586 -2.06 -0.874 0 -1.585 0.742 -1.585 1.653 0 1.31 1.59 2.068 2.619 1.241 1 0.647 1.007 0.683 1.203 0.683 0.497 0 0.689 -0.65 0.272 -0.92Zm-2.441 -0.419c-0.354 0 -0.653 -0.268 -0.653 -0.585 0 -0.354 0.268 -0.653 0.585 -0.653 0.354 0 0.653 0.268 0.653 0.585 0 0.354 -0.268 0.653 -0.585 0.653Z" stroke-width="1"></path></g><g id="person 6"><path id="vector_17" fill="#ffc700" d="M162.778 88.357a3.327 3.327 0 0 0 -3.322 -3.322h-29.969a3.327 3.327 0 0 0 -3.322 3.322v36.817c0 1.356 0.814 2.509 2.034 3.051l32.749 -0.068c1.153 -0.542 1.831 -1.695 1.831 -2.983V88.357h-0.001Z" stroke-width="1"></path><path id="vector_18" fill="#ff7449" d="M159.862 123.886h-0.61c-1.259 0.21 -2.748 -1.763 -3.119 -1.763 -0.271 0.068 -0.407 0.542 -0.542 0.746 -0.203 0.678 -0.61 1.221 -1.22 1.56 -0.678 0.271 -1.492 -0.271 -1.966 -0.746 -0.542 -0.61 -1.763 -3.458 -2.848 -6.441l-0.203 0.068c-1.416 1.132 -4.581 2.17 -6.968 1.415 -0.142 -0.818 -0.334 -1.853 -0.422 -2.161 -0.179 -0.036 -6.957 0.559 -10.374 4.475 -0.348 0.399 -0.746 0.813 -1.017 1.288 -1.187 1.649 -1.997 3.958 -2.29 6.018 0.704 0.238 0.03 0.153 30.97 0.153 0.542 0 1.017 -0.136 1.492 -0.339l0.068 -0.135c0 -1.085 -0.136 -2.916 -0.949 -4.136l-0.002 -0.002Z" stroke-width="1"></path><path id="vector_19" fill="#ffffff" d="M151.387 104.02c-0.61 -1.017 -1.56 -1.085 -2.238 -0.542l-0.203 -0.203c-1.424 -0.949 -1.153 -2.712 -2.034 -4 -0.475 -0.678 -1.424 -0.271 -1.966 -0.746 -0.271 -0.271 -0.339 -1.491 -0.678 -1.491 -0.823 -0.165 -1.294 3.224 -6.645 2.034l-0.407 -0.203c-0.407 -0.34 -0.61 -1.56 -1.085 -1.627 -0.407 -0.068 -1.017 1.22 -1.22 1.424a2.417 2.417 0 0 1 -2.034 0.542c-0.15 0.6 -0.047 -0.42 0.475 4.271 0.409 3.478 0.738 6.524 3.187 9.086 1.193 1.248 2.916 1.966 4.678 2.034 0 0.608 0.25 0.02 1.33 4.381 2.351 0.657 5.368 -0.359 6.807 -1.465l0.203 -0.068a41.514 41.514 0 0 1 -1.763 -6.306c0.543 -0.906 0.455 -2.082 0.814 -2.44 0.115 0 0.498 0.145 1.153 0.407a1.779 1.779 0 0 0 1.831 -1.153c0.594 -1.386 0.471 -2.584 -0.203 -3.933l-0.002 -0.002Z" stroke-width="1"></path><path id="vector_20" fill="#fccac2" d="M136.809 106.393c0 1.419 -2.17 1.462 -2.17 0 0 -0.61 0.475 -1.085 1.085 -1.085s1.085 0.475 1.085 1.085Z" stroke-width="1"></path><path id="vector_21" fill="#fccac2" d="M144.878 107.546a1.085 1.085 0 1 0 0 -2.17 1.085 1.085 0 0 0 0 2.17Z" stroke-width="1"></path><path id="vector_22" fill="#000000" d="M145.135 102.069c-0.202 -0.182 -0.544 -0.275 -0.927 -0.034 -0.33 0.207 -0.372 0.647 -0.374 0.91 -0.022 0.712 0.106 1.376 0.815 1.376 0.927 0 1.05 -1.746 0.486 -2.253v0.001Z" stroke-width="1"></path><path id="vector_23" fill="#000000" d="M137.138 104.664c-0.276 0 -0.402 -0.078 -0.547 -0.223 -0.409 -0.407 -0.481 -1.97 0.246 -2.13 0.407 -0.198 0.812 -0.009 1.001 0.403 0.308 0.67 0.109 1.95 -0.7 1.95Z" stroke-width="1"></path><path id="vector_24" fill="#000000" d="M148.649 106.935c0 -0.4 0.417 -0.828 0.417 -0.828 0.386 -0.552 0.901 -0.926 1.521 -1.081a0.5 0.5 0 0 1 0.242 0.97c-0.385 0.096 -0.704 0.336 -1.003 0.755a1.275 1.275 0 0 0 -0.189 0.268c0 0.602 -0.988 0.641 -0.988 -0.084Z" stroke-width="1"></path><path id="vector_25" fill="#000000" d="M137.962 109.673a0.501 0.501 0 0 1 -0.474 -0.342c-0.127 -0.381 -1.126 -1.816 -0.292 -2.233 0.189 -0.071 0.456 -0.188 0.766 -0.188 0.138 0 0.277 -0.093 0.414 -0.275 0.278 -0.474 0.239 -0.684 0.239 -1.056 -0.167 -0.54 0.483 -0.861 0.854 -0.489 0.15 0.15 0.146 0.294 0.146 0.489 0 0.509 0.035 0.87 -0.41 1.613 -0.36 0.484 -0.78 0.718 -1.242 0.718 -0.017 0 -0.033 0 -0.05 0.003 0.13 0.348 0.368 0.634 0.524 1.101a0.5 0.5 0 0 1 -0.474 0.658l-0.001 0.001Z" stroke-width="1"></path><path id="vector_26" fill="#000000" d="M159.84 121.922c-1.005 -1.351 -1.14 -3.072 -1.105 -4.748 0.011 -0.516 0 -1.049 0.068 -1.56 0 -0.079 0 -0.153 0.015 -0.183a0.502 0.502 0 0 0 0.052 -0.186c0.174 -2.263 -0.602 -4.375 -1.353 -6.417 -1.293 -3.516 -1.427 -4.304 -1.372 -8.419 0.042 -3.079 0.084 -6.263 -1.771 -8.813 -0.739 -1.056 -1.727 -1.455 -2.683 -1.84 -2.497 -1.008 -3.885 -2.626 -6.582 -2.983 -2.649 -0.143 -5.238 0.628 -7.349 2.045 -1.139 0.765 -1.675 1.459 -2.535 2.12 -1.307 0.962 -2.986 1.584 -3.802 3.143 -1.03 1.854 -1.499 4.357 0.455 5.182 0.196 0.079 0.388 0.136 0.578 0.183 0.061 0.334 0.327 2.153 0.495 3.599 -0.159 0.214 0.057 0.075 -1.334 3.932 -1.3 3.608 -2.499 7.91 -1.308 11.665 1.075 2.795 1.652 2.534 2.972 5.527 0.743 2.416 -0.016 3.887 0.906 4.251 0.454 0.27 0.834 -0.035 1.182 -0.425 0.208 -0.259 0.602 -1.089 0.748 -1.171 0.267 -0.063 1.552 1.275 2.496 -0.002 0.276 -0.551 0.276 -1.184 0.033 -1.649 -0.514 -1.799 -1.144 -3.387 -0.788 -5.55 0.064 -0.388 0.129 -0.788 0.134 -1.302 1.073 -0.664 2.618 -1.356 3.712 -1.302 0.097 0.368 0.17 0.693 0.216 0.973a3.494 3.494 0 0 1 -0.399 -0.265 0.5 0.5 0 0 0 -0.61 0.792c2.274 1.754 6.177 1.061 8.515 -0.484 0.916 2.464 2.112 5.34 2.76 6.069 0.729 0.73 1.602 1.185 2.562 0.83 1.222 -0.679 1.36 -1.719 1.613 -2.199 0.069 0.061 0.16 0.161 0.237 0.276a0.495 0.495 0 0 0 0.091 0.103c1.123 0.962 1.998 1.4 2.631 1.341 0.41 0 0.661 -0.25 0.828 -0.417 0.725 -0.725 0.053 -1.629 -0.308 -2.115v-0.001Zm-16.866 -3.521c-0.058 -1.073 -0.518 -2.428 -0.909 -3.429 2.375 -0.076 4.539 -1.308 5.567 -2.666 0.372 1.662 0.852 3.26 1.429 4.765 -1.271 0.907 -3.966 1.837 -6.087 1.33Zm8.133 -10.783c-0.132 0.484 -0.623 0.811 -1.17 0.79 -0.323 -0.129 -0.65 -0.258 -1.037 -0.387 -0.168 -0.055 -0.418 -0.04 -0.579 0.121 -0.4 0.4 -0.384 1.018 -0.547 1.56 -0.101 0.607 -0.33 0.937 -0.373 1.038 -0.806 1.881 -3.282 3.395 -6.03 3.223 -4.032 -0.155 -6.329 -3.666 -6.917 -7.317 -0.389 -2.203 -0.523 -4.282 -0.957 -7.034 0.68 0.007 1.333 -0.229 1.971 -0.73 0.206 -0.205 0.568 -0.878 0.812 -1.178 0.272 0.482 0.404 1.141 0.916 1.475 0.248 0.124 0.414 0.219 0.516 0.244 2.189 0.514 4.728 0.386 6.164 -1.422 0.092 -0.092 0.338 -0.387 0.415 -0.486 0.292 0.925 0.201 1.539 1.792 1.718 0.332 0.037 0.54 0.068 0.62 0.189 0.76 1.11 0.585 2.786 1.854 3.893a3.16 3.16 0 0 0 -0.55 0.859 0.5 0.5 0 1 0 0.928 0.372c0.092 -0.23 0.294 -0.508 0.527 -0.745 0.531 -0.426 1.113 -0.227 1.478 0.375 0.19 0.381 0.37 0.741 0.428 1.141 0.128 0.831 0.052 1.543 -0.26 2.301h-0.001Z" stroke-width="1"></path><path id="vector_27" fill="#000000" d="M140.543 111.833c-0.185 0 -0.606 -0.028 -0.771 -0.111 -1.203 -0.287 -1.225 -0.709 -1.225 -0.922 0 -0.533 0.728 -0.694 0.953 -0.211 0.982 0.461 2.003 0.237 2.633 -0.462a0.499 0.499 0 1 1 0.743 0.669 3.141 3.141 0 0 1 -2.333 1.037Z" stroke-width="1"></path><path id="vector_28" fill="#000000" d="M143.047 101.401a0.501 0.501 0 0 1 -0.354 -0.854c0.84 -0.84 2.244 -0.831 2.589 -0.61 0.634 0.246 0.908 0.429 0.908 0.828 0 0.518 -0.696 0.693 -0.941 0.236 -0.12 -0.058 -0.297 -0.113 -0.406 -0.164 -0.556 -0.08 -1.105 0.077 -1.445 0.417a0.498 0.498 0 0 1 -0.354 0.146l0.003 0.001Z" stroke-width="1"></path><path id="vector_29" fill="#000000" d="M135.046 101.875a0.5 0.5 0 0 1 -0.33 -0.876c0.641 -0.561 1.432 -0.869 2.228 -0.869 0.234 0 0.558 -0.007 0.836 0.093 0.356 0.128 1.224 0.365 1.224 1.017 0 0.556 -0.777 0.695 -0.969 0.173 -0.172 -0.107 -0.505 -0.203 -0.636 -0.269 -0.061 -0.015 -0.297 -0.015 -0.454 -0.015 -0.554 0 -1.111 0.221 -1.569 0.622a0.498 0.498 0 0 1 -0.329 0.124h-0.001Z" stroke-width="1"></path></g><g id="person 5"><path id="vector_30" fill="#ffc700" d="M115.79 85.035H85.821a3.327 3.327 0 0 0 -3.322 3.322v36.885c0 1.356 0.814 2.577 2.034 3.051l31.257 0.271a3.327 3.327 0 0 0 3.322 -3.322V88.425c0 -1.898 -1.492 -3.39 -3.322 -3.39Z" stroke-width="1"></path><path id="vector_31" fill="#ffffff" d="M108.399 97.986c-0.818 -0.184 -1.966 0.475 -2.576 1.084 -0.136 0.068 -0.814 0.814 -1.017 0.746 -0.271 -0.068 -0.542 -0.61 -1.424 -1.085 -1.559 -0.678 -3.343 -0.288 -4.407 1.085a10.046 10.046 0 0 0 -1.763 3.593 4.614 4.614 0 0 0 -2.237 3.933c0 0.271 0 0.61 0.068 0.882h-0.068c-0.475 -1.492 -2.17 -1.966 -3.594 -0.746 -2.29 1.763 -1.505 4.987 1.017 6.374 0.746 0.339 1.763 -0.136 1.966 0.068 0.655 0.817 0.641 2.193 0.645 2.656 0.013 1.493 -0.168 3.638 -0.44 5.141 -0.055 0.43 -0.444 1.621 -0.704 2.366 2.277 1.696 7.335 2.481 9.652 1.567l-0.203 -0.678c0 -0.891 0.339 -3.871 0.339 -4.136 0.61 -0.068 1.288 -0.136 1.898 -0.339 4.204 -1.424 4.814 -5.017 5.221 -8.747 0.403 -4.02 1.153 -8.304 1.153 -8.204 0.135 -0.136 0.135 -0.271 0.135 -0.407 0.339 -2.441 -1.3 -4.622 -3.661 -5.153Z" stroke-width="1"></path><path id="vector_32" fill="#fccac2" d="M110.162 113.716a1.36 1.36 0 0 0 -1.356 -1.356 1.36 1.36 0 0 0 -1.356 1.356c0 0.746 0.61 1.356 1.356 1.356a1.36 1.36 0 0 0 1.356 -1.356Z" stroke-width="1"></path><path id="vector_33" fill="#fccac2" d="M98.16 111.885a1.36 1.36 0 0 0 -1.355 1.356c0 0.746 0.61 1.356 1.356 1.356a1.36 1.36 0 0 0 1.356 -1.356 1.36 1.36 0 0 0 -1.356 -1.356Z" stroke-width="1"></path><path id="vector_34" fill="#fccac2" d="M113.485 120.225c-0.113 -0.364 3.279 -1.62 3.39 -3.729 -0.068 -0.746 -0.542 -1.424 -1.22 -1.695 -0.407 -0.203 -1.085 -0.407 -1.085 -0.949 0.333 -2.164 0.796 -1.781 1.288 -5.967 -1.432 -0.179 -1.461 -0.183 0 0 0.068 -0.542 0.147 -1.151 0.203 -1.695 0.6 -5.819 -2.263 -12.326 -8.272 -14.24a7.017 7.017 0 0 0 -4.95 0.272c-0.611 0.269 -1.222 1.145 -1.831 1.288 -0.544 0.128 -1.761 -0.89 -2.305 -1.017 -1.554 -0.363 -3.168 0.03 -4.543 0.88 -4.082 2.53 -6.616 7.464 -7.323 12.07 -0.26 1.697 0.068 3.526 -0.271 5.153 -0.068 0.203 -1.082 0.411 -1.288 0.542 -0.871 0.558 -1.424 1.559 -1.424 2.577 0 1.067 0.665 2.121 1.356 2.78 0.278 0.265 1.017 0.678 1.153 1.085 0.136 0.407 -0.673 1.494 -0.814 1.898 -0.522 1.499 -0.407 3.526 0.949 4.611l0.339 0.203c2.17 -1.898 4.95 -2.848 7.797 -2.577 0.407 -2.305 0.542 -5.967 0.271 -6.78l0.136 -0.068a2.557 2.557 0 0 0 -0.61 -1.017c-0.203 -0.203 -1.227 0.285 -1.966 -0.068 -2.515 -1.2 -3.308 -4.788 -1.017 -6.373 1.424 -1.22 3.119 -0.746 3.594 0.678h0.068c-0.068 -0.271 -0.068 -0.61 -0.068 -0.881 0 -1.627 0.814 -3.051 2.237 -3.933a10.453 10.453 0 0 1 1.763 -3.594c1.085 -1.288 2.843 -1.752 4.407 -1.017 0.879 0.413 1.153 1.017 1.424 1.017 0.387 0 2.031 -2.117 3.594 -1.831 2.38 0.436 4 2.712 3.661 5.153 0 0.618 -0.54 3.173 -0.61 3.526 -0.546 4.093 -0.378 2.907 -0.61 5.017 -0.411 3.729 -1.003 7.363 -5.221 8.814a5.723 5.723 0 0 1 -1.898 0.339c0 0.599 -0.271 1.575 -0.271 2.237 1.075 0.134 2 0.404 2.848 0.814 2.021 0.977 3.933 2.17 5.628 3.729a0.696 0.696 0 0 0 0.271 -0.068c2.957 -0.806 5.203 -3.658 3.119 -5.831 -0.266 -0.277 -1.753 -0.885 -1.898 -1.356l-0.001 0.003Z" stroke-width="1"></path><path id="vector_35" fill="#000000" d="M110.221 106.874c-0.513 -0.769 -1.404 -1.334 -2.116 -0.928a0.5 0.5 0 0 1 -0.682 -0.186c-0.527 -0.923 2.066 -1.787 3.63 0.56 0.37 0.555 -0.471 1.095 -0.832 0.555v-0.001Z" stroke-width="1"></path><path id="vector_36" fill="#000000" d="M97.483 106.486a0.501 0.501 0 0 1 -0.411 -0.785c0.7 -1.011 1.871 -1.639 3.055 -1.639 0.358 0.062 0.864 0.192 1.342 0.478 0.414 0.337 0.692 0.568 0.559 0.934 -0.136 0.377 -0.742 0.399 -0.918 0.069a4.852 4.852 0 0 0 -0.218 -0.19 3.242 3.242 0 0 0 -0.863 -0.301c-0.763 0.01 -1.619 0.473 -2.135 1.219a0.5 0.5 0 0 1 -0.412 0.215h0.001Z" stroke-width="1"></path><path id="vector_37" fill="#000000" d="M99.509 109.128c-1.045 0 -1.17 -2.1 -0.497 -2.593 0.103 -0.076 0.472 -0.291 0.924 0.054 0.404 0.259 0.352 0.88 0.354 0.998 0.015 0.704 -0.062 1.54 -0.781 1.54v0.001Z" stroke-width="1"></path><path id="vector_38" fill="#000000" d="M108.523 109.535c-1.053 0 -1.186 -2.197 -0.528 -2.708 0.104 -0.08 0.474 -0.311 0.949 0.028 0.411 0.255 0.361 0.921 0.364 1.073 0.015 0.724 -0.053 1.607 -0.786 1.607h0.001Z" stroke-width="1"></path><path id="vector_39" fill="#000000" d="M94.093 112.114a0.5 0.5 0 0 1 -0.474 -0.342 2.19 2.19 0 0 0 -1.324 -1.383 0.5 0.5 0 1 1 0.342 -0.94 3.186 3.186 0 0 1 1.931 2.007 0.5 0.5 0 0 1 -0.474 0.658h-0.001Z" stroke-width="1"></path><path id="vector_40" fill="#000000" d="M105.499 113.586c0.571 -1.316 0.471 -1.182 0.536 -1.331 -0.55 -0.133 -1.051 -0.61 -1.151 -0.863 -0.194 -0.485 -0.385 -1.121 -0.297 -1.779a0.498 0.498 0 0 1 0.136 -0.455c0.337 -0.337 0.995 -0.126 0.859 0.557 -0.007 0.43 -0.035 0.625 0.204 1.24 0.252 0.305 0.412 0.287 0.531 0.347a0.793 0.793 0 0 1 0.604 0.229c0.391 0.392 0.116 0.94 0.026 1.12 -0.095 0.371 -0.296 0.79 -0.53 1.329 -0.264 0.608 -1.182 0.212 -0.919 -0.394h0.001Z" stroke-width="1"></path><path id="vector_41" fill="#000000" d="M112.949 127.741c-0.128 -0.085 -0.347 -0.351 -0.481 -0.426 -3.273 -3.011 -7.251 -4.607 -8.205 -4.619 0.082 -0.696 -0.069 -0.244 0.154 -1.373 7.743 -1.267 6.376 -8.824 7.727 -15.578l-0.01 -0.002c0.092 -0.37 0.343 -1.454 0.349 -2.073 0.077 -0.202 0.076 -0.381 0.073 -0.463a5.118 5.118 0 0 0 -4.075 -5.715c-0.975 -0.163 -2.246 0.482 -2.971 1.184 -0.131 0.09 -0.439 0.373 -0.662 0.548 -0.382 -0.396 -0.706 -0.693 -1.268 -0.951 -1.733 -0.754 -3.738 -0.263 -5.006 1.243 -0.875 1.166 -1.496 2.433 -1.838 3.735 -0.256 0.769 -0.532 1.415 -0.871 2.21 -0.242 0.567 -0.614 1.07 -1.092 1.412a3.111 3.111 0 0 0 -0.12 0.037c-0.923 -0.842 -2.418 -0.883 -3.626 0.157 -2.601 1.801 -1.787 5.864 1.095 7.24 0.677 0.323 1.439 0.109 1.91 0.063 0.163 0.188 0.288 0.409 0.376 0.656 -0.009 0.098 0.496 2.11 -0.188 6.224 -4.055 -0.182 -8.5 2.036 -9.892 6.208a0.5 0.5 0 0 0 0.232 0.595c-0.286 0.711 -1.396 0.511 27.832 0.521a0.5 0.5 0 1 0 0.554 -0.832l0.003 -0.001Zm-9.975 -2.334c-2.192 0.545 -6.247 -0.069 -8.356 -1.429 0.597 -1.783 0.877 -4.459 0.945 -6.337 1.746 2.288 4.442 3.773 7.821 3.761 -0.091 0.469 -0.358 3.236 -0.41 4.005Zm-6.738 -8.524c-1.115 -2.233 -0.727 -2.459 -1.585 -3.317 -0.495 -0.496 -1.481 0.131 -2.096 -0.162 -2.164 -1.031 -2.953 -4.126 -0.915 -5.547 1.152 -0.988 2.425 -0.631 2.792 0.518a0.5 0.5 0 0 0 0.953 -0.303 2.702 2.702 0 0 0 -0.123 -0.319c0.675 -0.453 1.202 -1.142 1.525 -1.898 0.345 -0.808 0.633 -1.483 0.91 -2.317a9.87 9.87 0 0 1 1.662 -3.399c0.963 -1.143 2.501 -1.524 3.815 -0.953 0.45 0.208 0.708 0.476 0.917 0.692 0.69 0.717 0.97 0.496 1.768 -0.192 0.289 -0.25 0.256 -0.197 0.32 -0.261 0.527 -0.528 1.537 -1.047 2.125 -0.948 2.129 0.426 3.563 2.444 3.26 4.663 0 0.079 0 0.153 -0.015 0.184a0.496 0.496 0 0 0 -0.045 0.307c-0.022 0.321 -0.25 1.642 -0.293 1.794 -0.177 0.353 -0.504 3.009 -0.66 4.304 -0.562 4.666 -0.571 8.763 -5.017 10.294 -3.244 1.081 -7.154 -0.158 -9.294 -3.139l-0.004 -0.001Z" stroke-width="1"></path><path id="vector_42" fill="#000000" d="M101.04 116.215a0.5 0.5 0 1 1 0.753 -0.659c0.786 0.898 2.017 1.15 3.062 0.628 0.356 -0.178 0.706 -0.452 0.759 -0.56a0.487 0.487 0 0 1 0.584 -0.378c0.569 0.114 0.725 1.022 -0.896 1.833 -1.461 0.731 -3.173 0.381 -4.261 -0.864h-0.001Z" stroke-width="1"></path><path id="vector_43" fill="#000000" d="M112.284 102.691c-2.704 -1.296 -6.105 0.258 -6.808 3.395a1.566 1.566 0 0 0 -1.106 0.013c-0.812 -3.321 -4.666 -4.769 -7.415 -3.119 -1.51 0.906 -2.413 2.562 -2.413 4.429 0 2.777 2.28 4.975 5.057 4.975 2.6 -0.072 4.903 -2.109 4.893 -5.183 0.498 -0.364 0.656 -0.183 0.899 0 0 2.994 2.344 5.116 4.975 5.116 2.551 0 4.907 -2.118 4.907 -5.043 0 -1.952 -1.194 -3.723 -2.989 -4.583Zm-12.699 8.694c-2.212 0 -4.043 -1.763 -4.043 -3.975 0 -2.231 1.579 -4.11 3.976 -4.11 2.051 0 3.798 1.586 3.975 3.568 0 2.966 -1.85 4.46 -3.907 4.518l-0.001 -0.001Zm10.781 -0.068c-3.084 0 -4.893 -3.304 -3.553 -5.989 0.923 -1.847 3.293 -2.61 5.04 -1.735 1.47 0.674 2.416 2.119 2.42 3.681 0.007 2.42 -1.977 4.043 -3.907 4.043Z" stroke-width="1"></path></g><g id="person 4"><path id="vector_44" fill="#ffc700" d="M72.193 85.035H42.224a3.327 3.327 0 0 0 -3.322 3.322v36.817c0 1.559 1.153 2.983 2.712 3.255l32.206 -0.339c1.085 -0.542 1.763 -1.695 1.763 -2.916V88.357c-0.068 -1.831 -1.559 -3.322 -3.39 -3.322Z" stroke-width="1"></path><path id="vector_45" fill="#ff7449" d="M65.209 99.138c-0.949 0.203 -2.044 0.08 -2.848 -0.542 -0.343 -0.266 -0.678 -0.881 -1.017 -1.017 -0.339 -0.068 -0.881 0.61 -1.085 0.814 -1.265 0.984 -2.725 0.8 -3.797 -0.271 -0.136 -0.136 -0.407 -0.61 -0.61 -0.61 -0.271 0.068 -0.542 0.678 -0.678 0.881 -0.407 0.542 -0.949 1.017 -1.559 1.288a2.803 2.803 0 0 1 -2.305 -0.407c-0.202 -0.138 -0.746 -0.746 -1.017 -0.678 -0.271 0.068 -0.475 0.61 -0.542 0.814a2.288 2.288 0 0 1 -1.22 0.881 5.482 5.482 0 0 1 -1.492 0c0 1.032 -0.106 1.454 0.136 3.187 0.151 1.083 0.271 2.237 0.475 3.119l-0.203 0.068a3.429 3.429 0 0 0 -1.085 -0.61 1.39 1.39 0 0 0 -0.746 0c-0.191 -0.762 -0.724 -2.295 -0.881 -3.187 -1.491 -8.461 1.556 -9.245 2.644 -10.645 0.475 -0.814 1.153 -1.492 1.898 -2.034 1.288 -0.746 3.386 -1.109 4.814 -1.356 4.328 -0.75 9.551 0.143 12.476 3.797 2.501 3.125 2.577 7.119 2.034 11.323l-0.068 0.203c-0.271 -0.068 -0.542 0 -0.814 0.136 -0.475 0.203 -0.61 0.542 -0.949 0.814h-0.339c0 -1.966 -0.136 -3.933 -0.407 -5.899l-0.814 -0.068 -0.001 -0.001Z" stroke-width="1"></path><path id="vector_46" fill="#ffffff" d="M70.294 106.325c-0.177 -1.411 -1.288 -2.713 -2.509 -2.102 -0.363 0.155 -0.897 0.642 -1.28 0.983 -0.018 -1.903 -0.16 -4.228 -0.416 -6.069h-0.88c-0.95 0.204 -2.035 0.068 -2.849 -0.542 -0.339 -0.271 -0.678 -0.881 -1.017 -1.017 -0.339 -0.135 -0.88 0.61 -1.085 0.814 -0.61 0.475 -1.356 0.746 -2.17 0.61 -1.734 -0.384 -1.83 -1.491 -2.306 -1.491 -0.27 0.067 -0.542 0.678 -0.678 0.881 -0.407 0.542 -0.949 1.017 -1.56 1.288 -0.813 0.204 -1.627 0.068 -2.305 -0.407 -0.204 -0.136 -0.746 -0.746 -1.017 -0.678 -0.27 0.068 -0.407 0.61 -0.542 0.814a2.288 2.288 0 0 1 -1.22 0.881 5.482 5.482 0 0 1 -1.492 0c0 1.084 -0.109 1.596 0.135 3.187 0.12 0.961 0.241 1.976 0.408 2.808 -0.593 -0.288 -1.427 -0.434 -1.967 -0.299 -0.88 0.271 -1.424 1.356 -1.356 2.509 0.136 2.169 2.78 4.678 4.68 3.322l0.134 -0.068c0.938 2.578 2.721 4.352 4.06 4.982 0.114 0.956 0.212 2.271 0.212 3.087h0.203c3.12 1.084 6.848 0.135 9.425 -1.017l0.34 -0.068c-0.108 -0.96 -0.19 -2.427 -0.22 -3.273 1.528 -1.292 2.644 -3.064 3 -5.202l0.338 0.068c2.102 1.153 4.204 -1.831 3.933 -4l0.001 -0.001Z" stroke-width="1"></path><path id="vector_47" fill="#fccac2" d="M51.648 110.732a1.287 1.287 0 1 1 0 -2.576 1.287 1.287 0 1 1 0 2.576Z" stroke-width="1"></path><path id="vector_48" fill="#fccac2" d="M63.717 108.495a1.288 1.288 0 1 0 0 -2.576 1.288 1.288 0 0 0 0 2.576Z" stroke-width="1"></path><path id="vector_49" fill="#000000" d="m56.51 105.848 0.406 3.119a0.5 0.5 0 1 0 0.991 -0.132c-0.53 -4.026 -0.545 -3.926 -0.55 -4.026 0.111 -0.488 -0.49 -0.819 -0.843 -0.464 -0.329 0.33 -0.05 0.96 -0.005 1.503Z" stroke-width="1"></path><path id="vector_50" fill="#000000" d="M53.901 101.915a0.5 0.5 0 0 0 -0.153 -0.69c-1.746 -1.111 -3.976 -0.004 -4.856 1.833a0.5 0.5 0 0 0 0.902 0.432c0.626 -1.31 2.205 -2.192 3.417 -1.421a0.5 0.5 0 0 0 0.69 -0.153v-0.001Z" stroke-width="1"></path><path id="vector_51" fill="#000000" d="M60.802 101.192c0.266 -0.203 0.262 -0.197 0.276 -0.208a3.38 3.38 0 0 1 0.74 -0.265c0.857 -0.115 1.64 0.166 2.207 0.79a0.5 0.5 0 0 0 0.74 -0.673c-0.782 -0.861 -1.905 -1.265 -3.112 -1.103 -0.652 0.13 -1.957 0.688 -1.75 1.316 0.117 0.366 0.691 0.433 0.9 0.143Z" stroke-width="1"></path><path id="vector_52" fill="#000000" d="M59.325 113.594c0.284 -0.283 0.604 -0.604 0.781 -1.093 0.29 -0.514 0.355 -1.26 0.3 -1.483 -0.319 -1.279 -3.193 -0.111 -4.484 0.164 -0.056 0.018 -0.098 0.007 -0.146 0.021a0.5 0.5 0 0 0 -0.262 0.77c0.911 1.351 2.476 2.644 3.812 1.622l-0.001 -0.001Zm0.081 -2.166c-0.049 0.446 -0.187 0.576 -0.23 0.706 -0.098 0.294 -0.311 0.507 -0.504 0.707 -0.562 0.422 -1.417 -0.331 -1.884 -0.856 0.869 -0.245 1.856 -0.538 2.619 -0.557h-0.001Z" stroke-width="1"></path><path id="vector_53" fill="#000000" d="M62.539 102.819c-0.449 -0.334 -1.288 -0.075 -1.288 0.862 0 0.722 0.142 1.383 0.864 1.383 0.953 0 1.095 -1.747 0.424 -2.245Z" stroke-width="1"></path><path id="vector_54" fill="#000000" d="M52.666 104.434c-0.513 -0.365 -1.357 0.098 -1.179 0.874 0 0.652 0.23 1.383 0.923 1.383 0.924 0 0.905 -1.795 0.255 -2.256l0.001 -0.001Z" stroke-width="1"></path><path id="vector_55" fill="#000000" d="M74.073 127.818c-1.054 -2.356 -3.166 -4.363 -6.473 -6.143 -0.815 -0.408 -1.658 -0.829 -2.476 -1.101 -0.325 -0.13 -0.659 -0.264 -1.01 -0.345a1.514 1.514 0 0 0 -0.29 -0.107c-0.07 -0.551 -0.413 -3.494 -0.419 -4.205 1.446 -1.22 2.56 -2.845 3.055 -4.9 2.371 0.878 4.704 -2.316 4.4 -4.755 -0.286 -2.277 -2.415 -3.393 -3.804 -2.178a43.856 43.856 0 0 0 -0.388 -4.98 0.707 0.707 0 0 0 0.18 -0.321c0.14 -0.564 -0.64 -0.873 -0.923 -0.365 -0.185 0.083 -0.532 0.124 -0.634 0.166 -1.327 0.333 -2.253 -0.09 -2.644 -0.343 -0.257 -0.255 -0.61 -0.938 -1.272 -1.154 -0.305 -0.061 -0.75 0.026 -1.49 0.909a2.62 2.62 0 0 1 -1.754 0.517 2.996 2.996 0 0 1 -1.33 -0.697c-0.154 -0.28 -0.597 -0.973 -1.138 -0.792 -0.417 0.104 -0.673 0.56 -0.878 0.926 -0.298 0.529 -0.595 0.932 -1.37 1.247a2.262 2.262 0 0 1 -2.077 -0.498c-0.366 -0.33 -0.782 -0.703 -1.234 -0.59 -0.854 0.213 -0.477 1.328 -1.779 1.699 -0.365 0.104 -0.815 0.053 -1.354 -0.02a0.648 0.648 0 0 1 -0.4 -0.12c-0.59 -0.391 -1.373 0.667 -0.088 1.059 -0.184 0.902 0.285 4.137 0.418 4.97 -1.89 -0.925 -3.326 0.838 -3.208 2.828 0.15 2.385 2.844 4.981 5.058 3.938 0.921 2.159 2.357 3.697 3.688 4.499 -0.01 0.508 0.203 0.43 0.203 3.641 -3.625 0.04 -9.796 3.907 -11.408 7.199a0.5 0.5 0 0 0 0.448 0.72l31.936 0a0.5 0.5 0 0 0 0.456 -0.704Zm-7.16 -19.669c0.082 -0.181 0.808 -0.492 1.361 -0.584a0.5 0.5 0 0 0 -0.164 -0.987 5.202 5.202 0 0 0 -1.1 0.328c0.027 -0.464 0.044 -0.938 0.051 -1.423 0.29 -0.146 0.493 -0.651 0.95 -0.813 0.877 -0.439 1.73 0.706 1.855 1.717 0.227 1.819 -1.605 4.429 -3.21 3.628a26.54 26.54 0 0 0 0.256 -1.866Zm-13.407 9.341c2.995 1.282 6.354 0.935 8.94 -0.83 0.04 0.491 0.104 1.104 0.176 1.756 -1.567 0.7 -5.546 2.182 -8.988 1.016a22.11 22.11 0 0 0 -0.128 -1.943v0.001Zm-8.816 -9.024c-0.06 -1.019 0.513 -2.227 1.444 -2.005 0.58 0.193 0.873 0.505 1.011 0.578 0.108 0.658 0.208 1.125 0.298 1.412 -0.145 -0.067 -0.29 -0.13 -0.434 -0.192 -0.25 -0.164 -0.764 -0.355 -1.07 -0.049 -0.345 0.345 -0.04 0.93 0.44 0.846 0.026 0.008 0.047 0.012 0.035 -0.002 0.045 0.044 0.1 0.081 0.158 0.106 1.007 0.432 0.977 0.5 1.271 0.699 0.166 0.558 0.35 1.115 0.548 1.669 -1.509 0.794 -3.59 -1.307 -3.7 -3.061l0 -0.001Zm7.234 6.853c-2.844 -2.553 -3.813 -7.825 -4.29 -11.651 -0.296 -2.364 -0.165 -2.272 -0.165 -2.814 1.298 0.103 2.481 -0.457 2.874 -1.686 0.196 0.148 0.478 0.428 0.612 0.517a3.344 3.344 0 0 0 2.777 0.461c1.415 -0.566 1.727 -1.396 2.093 -1.994 0.102 0.142 0.153 0.26 0.216 0.324 0.483 0.483 1.184 0.863 1.936 1.025a3.622 3.622 0 0 0 2.568 -0.754c0.164 -0.174 0.476 -0.525 0.66 -0.643 0.234 0.18 0.474 0.599 0.811 0.909 0.944 0.629 2.156 0.89 3.554 0.533 0.034 -0.011 0.084 -0.021 0.142 -0.033 0.471 3.642 0.69 9.644 -0.81 12.953 -2.765 5.219 -9.236 6.213 -12.979 2.854l0.001 -0.001Z" stroke-width="1"></path></g><g id="person 3"><path id="vector_56" fill="#ffc700" d="M159.455 36.759h-29.969a3.327 3.327 0 0 0 -3.322 3.322v36.953c0 1.795 1.418 2.916 2.916 2.916h30.783c1.605 0 2.848 -1.131 2.848 -3.051V40.082c0.068 -1.831 -1.424 -3.322 -3.255 -3.322l-0.001 -0.001Z" stroke-width="1"></path><path id="vector_57" fill="#fccac2" d="M160.54 79.475c-1.017 -1.966 -3.458 -4.543 -5.085 -4.95 -2.786 -0.76 -6.425 2.51 -11.662 2.51a10.962 10.962 0 0 1 -6.441 -2.307c-0.881 -0.678 -1.559 -1.83 -2.509 -2.305 -0.542 -0.27 -1.288 0.204 -1.763 0.475 -1.2 0.667 -5.194 3.674 -6.423 5.772 0.623 1 1.664 1.618 2.829 1.618 34.005 0 31.477 0.316 31.054 -0.813Z" stroke-width="1"></path><path id="vector_58" fill="#fccac2" d="M157.76 52.422c-1.651 -0.184 -2.983 -1.695 -2.983 -1.695 -0.068 0 -0.407 1.56 -0.475 1.695 -0.85 2.38 -3.854 3.522 -6.916 1.221 -0.466 -0.35 -1.017 -1.221 -1.627 -1.356 -0.542 -0.068 -1.356 0.949 -1.831 1.152a3.376 3.376 0 0 1 -3.119 -0.136c-0.333 0.444 -0.675 3.195 -2.238 3.865 -1.487 -3.122 -4.871 -1.224 -4.95 2.576 -0.034 1.628 0.542 4.475 2.509 4.814 0.475 0.068 1.831 -0.678 2.034 -0.475 0.716 0.895 0.73 2.261 0.721 3.333 -0.02 2.192 -0.532 6.147 -0.987 7.668 2.866 1.896 6.525 2.422 10.436 1.001 0 0 0.339 -3.51 0.339 -4.339a11.553 11.553 0 0 0 2.102 -0.407c5.424 -1.831 5.424 -6.983 5.967 -11.729 0.056 -0.5 0.886 -6.792 1.017 -7.188h0.001Z" stroke-width="1"></path><path id="vector_59" fill="#fccac2" d="M154.099 59.541c-0.814 0 -1.492 0.678 -1.492 1.492s0.678 1.492 1.492 1.492 1.492 -0.678 1.492 -1.492 -0.678 -1.492 -1.492 -1.492Z" stroke-width="1"></path><path id="vector_60" fill="#fccac2" d="M142.301 59.338c-0.814 0 -1.492 0.678 -1.492 1.492s0.678 1.492 1.492 1.492 1.492 -0.678 1.492 -1.492 -0.678 -1.492 -1.492 -1.492Z" stroke-width="1"></path><path id="vector_61" fill="#ff7449" d="M158.642 47.133c-0.204 -0.678 0.678 -1.831 0.746 -2.576 0.204 -2.848 -2.848 -3.323 -4.814 -2.78 -1.017 -1.966 -4.339 -2.237 -6.238 -1.56 -0.746 0.27 -1.561 1.068 -2.373 1.153 -0.544 0.057 -1.153 -0.678 -1.627 -0.95 -2.661 -1.565 -5.827 0.232 -6.102 3.255 -0.782 0 -2.957 1.235 -4.068 3.458 -2.285 4.868 -0.963 10.288 -0.068 10.645 0.902 -2.405 3.438 -2.862 4.543 -0.542 1.444 -0.618 2.004 -3.253 2.299 -3.831a3.379 3.379 0 0 0 3.058 0.102c0.475 -0.271 1.288 -1.288 1.831 -1.153 0.61 0.136 1.145 0.959 1.627 1.356 2.838 2.336 5.782 1.426 6.916 -1.221 0.068 -0.136 0.407 -1.695 0.475 -1.695 0.271 0 1.085 0.88 1.356 1.084a3.942 3.942 0 0 0 1.695 0.61c1.017 0.27 2.17 -0.136 2.78 -1.017 1.311 -2.185 -1.606 -2.797 -2.034 -4.34l-0.002 0.002Z" stroke-width="1"></path><path id="vector_62" fill="#000000" d="M156.404 56.515a0.497 0.497 0 0 1 -0.38 -0.175c-0.737 -0.86 -1.86 -1.288 -2.933 -1.12a0.5 0.5 0 0 1 -0.156 -0.988c1.412 -0.222 2.886 0.335 3.848 1.457a0.5 0.5 0 0 1 -0.379 0.825Z" stroke-width="1"></path><path id="vector_63" fill="#000000" d="M141.139 55.263a3.942 3.942 0 0 1 3.332 -1.782c0.919 0 2.663 0.918 1.985 1.596 -0.226 0.225 -0.646 0.155 -0.792 -0.104 -1.064 -0.934 -2.832 -0.446 -3.692 0.844 -0.361 0.54 -1.202 0 -0.832 -0.555l-0.001 0.001Z" stroke-width="1"></path><path id="vector_64" fill="#000000" d="M143.714 58.683c-1.049 0 -1.252 -2.037 -0.549 -2.577 0.106 -0.081 0.484 -0.313 0.968 0.031 0.677 0.415 0.635 2.546 -0.419 2.546Z" stroke-width="1"></path><path id="vector_65" fill="#000000" d="M153.002 58.474c-0.241 -0.537 -0.283 -1.546 0.198 -1.969 0.275 -0.242 0.652 -0.257 1.01 -0.044 0.388 0.215 0.388 0.736 0.388 0.91 0.044 2.061 -1.23 1.917 -1.596 1.102v0.001Z" stroke-width="1"></path><path id="vector_66" fill="#000000" d="M137.487 61.804a0.499 0.499 0 0 1 -0.491 -0.41c-0.084 -0.46 -1.141 -1.314 -1.767 -1.428a0.5 0.5 0 0 1 0.178 -0.984c0.885 0.161 2.389 1.225 2.572 2.233a0.5 0.5 0 0 1 -0.492 0.59Z" stroke-width="1"></path><path id="vector_67" fill="#000000" d="M150.98 64.516a0.5 0.5 0 0 1 -0.468 -0.676c0.211 -0.563 0.57 -1.408 0.632 -1.54 -1.375 -0.2 -1.68 -1.37 -1.68 -2.76 0 -0.016 0.005 -0.06 0.01 -0.101a0.5 0.5 0 0 1 0.136 -0.456c0.333 -0.332 0.996 -0.13 0.858 0.558 -0.006 0.447 -0.041 0.762 0.23 1.44 0.21 0.326 0.461 0.259 0.641 0.35 0.701 -0.03 1.14 0.532 0.698 1.416 -0.188 0.44 -0.389 0.909 -0.589 1.444a0.5 0.5 0 0 1 -0.468 0.325Z" stroke-width="1"></path><path id="vector_68" fill="#000000" d="M155.519 74.043c-1.552 -0.422 -3.301 0.249 -4.706 0.789 0 0 -1.448 0.509 -2.013 0.713 0.105 -1.862 0.074 -1.474 0.375 -3.285 8.901 -1.175 7.297 -10.252 8.669 -17.095l-0.013 -0.002c0.083 -0.362 0.305 -1.412 0.345 -2.096 1.727 0.098 3.135 -1.232 3.135 -2.68 0 -0.965 -0.696 -1.597 -1.309 -2.153 -1.173 -1.065 -1.107 -1.183 -0.601 -2.315 0.187 -0.42 0.381 -0.852 0.417 -1.258 0.197 -2.83 -2.304 -3.94 -5.066 -3.385 -1.336 -2.01 -4.693 -2.23 -6.67 -1.453 -0.635 0.254 -1.63 1.069 -2.119 1.117 -0.284 0 -0.981 -0.656 -1.374 -0.88 -2.835 -1.667 -6.248 0.063 -6.801 3.249a0.542 0.542 0 0 0 -0.114 0.086c-0.449 0.072 -0.712 0.24 -1.134 0.507 -1.214 0.766 -2.153 1.74 -2.827 3.09 -2.389 5.09 -0.85 10.48 -0.303 11.012 -0.753 2.28 -0.114 6.66 2.64 7.119 0.475 0.079 1.291 -0.33 1.862 -0.478 0.223 0.3 0.376 0.577 0.458 0.82 0.322 0.967 -0.162 7.569 -0.748 8.896 -0.375 -0.29 -0.643 -0.587 -0.998 -0.977 -1.717 -1.888 -2.263 -1.834 -3.759 -0.973 -1.852 1.066 -5.357 3.868 -6.46 5.878a0.5 0.5 0 0 0 0.877 0.48c1.251 -2.281 6.545 -6.258 7.271 -5.895 0.47 0.235 0.888 0.695 1.331 1.182 2.085 2.295 5.001 3.4 7.842 3.48 5.228 0 9.019 -3.21 11.527 -2.526 1.561 0.437 3.965 2.93 4.915 4.704 0.309 0.577 1.195 0.113 0.881 -0.472 -1.085 -2.025 -3.679 -4.678 -5.53 -5.196v-0.003Zm-16.788 -30.25c0.274 -2.718 3.037 -4.235 5.357 -2.871 0.479 0.274 1.096 1.013 1.916 1.013 0.92 -0.084 1.809 -0.93 2.448 -1.186 1.647 -0.646 4.723 -0.451 5.608 1.318a0.5 0.5 0 0 0 0.576 0.26c1.133 -0.302 2.661 -0.29 3.521 0.419 0.498 0.41 0.722 1.03 0.666 1.832 -0.06 0.667 -1.002 1.847 -0.729 2.756 0.38 1.369 2.219 2.016 2.219 3.053 0 0.96 -1.11 1.96 -2.564 1.605 -0.558 -0.062 -1.131 -0.322 -1.515 -0.554 -0.258 -0.156 -0.975 -1.144 -1.592 -1.144 -0.431 0 -0.483 0.21 -0.774 1.383 -0.069 0.278 -0.13 0.533 -0.171 0.644 -0.76 2.128 -3.504 3.159 -6.12 1.009 -0.456 -0.375 -1.011 -1.28 -1.891 -1.473 -0.836 -0.104 -1.679 1.013 -2.104 1.196 -1.464 0.684 -3.042 -0.025 -3.867 -1.14 -0.792 -1.068 -0.52 -1.68 -0.081 -2.624 0.98 -2.113 0.64 -2.522 -0.252 -3.45 -0.19 -0.197 -0.427 -0.443 -0.459 -0.522 -0.128 -0.513 -0.244 -1.001 -0.191 -1.523l-0.001 -0.001Zm-4.119 3.63c1.042 -2.083 2.95 -2.998 3.117 -3.027 0.036 0.417 0.135 0.81 0.239 1.217 0.209 0.556 1.261 1.392 1.257 1.637 -0.028 1.644 -2.044 2.922 -0.314 5.258 0.329 0.444 0.736 0.834 1.2 1.12 -0.173 0.714 -0.244 1.59 -1.291 2.952 -1.247 -2.006 -3.594 -1.874 -4.844 0.16 -0.969 -3.08 -0.75 -6.362 0.637 -9.316h-0.001Zm2.36 16.474c-0.247 0.087 -0.659 0.233 -0.759 0.236 -1.65 -0.275 -2.123 -2.722 -2.091 -4.321 0.066 -3.322 2.749 -5.021 4.033 -2.367 0.086 0.128 0.137 0.26 0.202 0.522 0.147 0.587 1.193 0.528 0.921 -0.425 0.243 -0.128 1.199 -1.394 1.609 -2.83 0.043 -0.171 0.085 -0.367 0.144 -0.627a3.874 3.874 0 0 0 2.958 -0.12c0.25 -0.106 0.509 -0.326 0.783 -0.56 0.224 -0.19 0.641 -0.544 0.742 -0.563 0.271 0.06 0.627 0.442 0.912 0.749 1.092 1.172 2.59 1.905 4.12 1.905 1.99 0 3.551 -1.323 4.066 -2.783 0.069 -0.137 0.138 -0.457 0.31 -1.138 0.327 0.309 0.617 0.635 0.826 0.738 0.514 0.294 1.009 0.496 1.446 0.597a29.04 29.04 0 0 1 -0.289 1.932 0.482 0.482 0 0 0 -0.043 0.126c-1.429 7.155 0.065 13.834 -6.23 15.959 -3.794 1.138 -8.036 -0.263 -10.334 -3.49 -1.09 -2 -0.724 -2.332 -1.781 -3.64 -0.331 -0.332 -0.815 -0.16 -1.546 0.099l0.001 0Zm1.484 11.043c0.495 -1.045 0.938 -4.49 0.99 -6.985l0.006 0.012c1.869 2.63 4.932 4.354 8.7 4.346 -0.394 2.43 -0.231 1.587 -0.379 3.594 -3.534 1.13 -6.722 0.665 -9.318 -0.966l0.001 -0.001Z" stroke-width="1"></path><path id="vector_69" fill="#000000" d="M148.631 67.311c-1.402 0 -2.726 -0.8 -3.387 -2.122a0.5 0.5 0 1 1 0.895 -0.447c0.583 1.166 1.861 1.781 3.103 1.5 0.6 -0.12 0.974 -0.302 1.042 -0.387a0.497 0.497 0 0 1 0.684 -0.168 0.502 0.502 0 0 1 0.169 0.69c-0.376 0.626 -1.775 0.934 -2.506 0.934Z" stroke-width="1"></path></g><g id="person 2"><path id="vector_70" fill="#ffc700" d="M119.112 40.082a3.327 3.327 0 0 0 -3.322 -3.322H85.821a3.327 3.327 0 0 0 -3.322 3.322v36.817a3.327 3.327 0 0 0 3.322 3.322h30.85c1.424 -0.407 2.441 -1.831 2.441 -3.322V40.082Z" stroke-width="1"></path><path id="vector_71" fill="#ffffff" d="M113.146 76.831c-2.373 -1.898 -5.56 -3.458 -7.73 -3.39h-0.339c0 -0.99 -0.027 -2.5 0.276 -4.106 1.154 -0.609 2.938 -2.462 3.724 -4.708l0.135 0.068c1.627 1.221 3.933 -0.813 4.272 -2.78 0 -0.068 0 -0.204 0.068 -0.339 0.104 -2.073 -1.537 -3.209 -2.983 -1.763 -0.265 0 -0.122 0.316 0.339 -2.916 0.136 -0.813 0.136 -1.627 0.068 -2.44l0.068 -0.34c-2.577 -0.407 -5.899 -0.61 -8.204 -1.763 -0.61 -0.407 -1.153 -1.017 -1.356 -1.695 -0.067 -0.204 -0.271 -0.88 -0.542 -0.949 -0.271 -0.068 -0.475 0.542 -0.542 0.678 -0.97 2.666 -3.034 2.252 -6.035 1.966 -0.407 0 -0.813 -0.067 -1.152 -0.135 -0.229 1.834 -0.407 2.928 -0.407 6.102h-0.339c-0.27 -0.27 -0.47 -0.62 -0.88 -0.813 -1.209 -0.57 -2.239 0.678 -2.374 1.966 0 0.856 -0.016 0.85 0.068 1.017 0.34 1.831 2.034 3.73 3.661 2.916l0.34 -0.068c0.332 1.832 1.29 3.636 2.872 4.928 -0.035 1.301 -0.269 3.427 -0.432 4.564 -0.616 0 -2.892 0.967 -3.729 1.424 -3.549 1.822 -5.045 3.806 -6.029 6.001l30.118 0.012c-0.631 -0.898 -1.015 -1.876 -2.935 -3.436l-0.001 0Z" stroke-width="1"></path><path id="vector_72" fill="#fccac2" d="M106.704 63.609a1.288 1.288 0 1 0 0 -2.576 1.288 1.288 0 0 0 0 2.576Z" stroke-width="1"></path><path id="vector_73" fill="#fccac2" d="M95.585 60.083a1.287 1.287 0 1 0 0 2.576c0.746 0 1.288 -0.542 1.288 -1.288s-0.61 -1.288 -1.288 -1.288Z" stroke-width="1"></path><path id="vector_74" fill="#000000" d="M101.077 62.55a0.5 0.5 0 0 1 -0.496 -0.571c0.528 -3.749 0.541 -3.651 0.549 -3.752 -0.108 -0.487 0.487 -0.815 0.841 -0.464 0.332 0.331 0.055 0.936 0.011 1.394l-0.411 2.964a0.5 0.5 0 0 1 -0.494 0.429Z" stroke-width="1"></path><path id="vector_75" fill="#000000" d="M108.148 57.036c-0.55 -1.209 -2.048 -2.056 -3.137 -1.347a0.5 0.5 0 1 1 -0.545 -0.839c1.628 -1.058 3.792 0.011 4.592 1.772 0.273 0.601 -0.637 1.015 -0.91 0.414Z" stroke-width="1"></path><path id="vector_76" fill="#000000" d="M94.567 55.363a0.5 0.5 0 0 1 -0.371 -0.834c0.731 -0.812 1.834 -1.203 2.951 -1.042 0.344 -0.03 0.68 0.143 0.968 0.286 0.436 0.105 0.847 0.58 0.744 0.9 -0.118 0.366 -0.694 0.433 -0.902 0.141a1.05 1.05 0 0 1 -0.082 -0.072c-0.078 0 -0.072 -0.008 -0.142 -0.042 -0.951 -0.476 -2.136 -0.232 -2.794 0.498a0.499 0.499 0 0 1 -0.372 0.166Z" stroke-width="1"></path><path id="vector_77" fill="#000000" d="M96.351 56.305c-0.666 0.462 -0.572 2.245 0.387 2.245 0.642 0 0.8 -0.84 0.8 -1.482 0.001 -0.757 -0.716 -1.09 -1.187 -0.762Z" stroke-width="1"></path><path id="vector_78" fill="#000000" d="M98.162 64.784a0.5 0.5 0 1 1 0.948 -0.316c0.58 1.743 2.699 1.677 4.076 0.461a0.501 0.501 0 0 1 0.662 0.75c-1.939 1.71 -4.88 1.528 -5.687 -0.895Z" stroke-width="1"></path><path id="vector_79" fill="#000000" d="M106.516 57.967c-0.244 -0.244 -0.657 -0.314 -0.964 -0.102 -0.673 0.467 -0.618 2.176 0.339 2.176 0.918 0 1.019 -1.682 0.625 -2.074Z" stroke-width="1"></path><path id="vector_80" fill="#000000" d="M114.202 77.126c2.097 -0.399 2.121 -2.304 1.06 -3.149 0.054 -0.042 0.101 -0.08 0.136 -0.115 0.687 -0.687 1.399 -2.02 0.542 -2.877 -0.617 -0.616 -1.573 -0.138 -1.996 0.08a2.245 2.245 0 0 1 -1.86 0.342c-0.814 -0.272 -1.513 -0.84 -2.412 -1.115a13.882 13.882 0 0 0 5.888 -7.816c0.091 -0.183 0.082 -0.28 0.17 -0.499 2.274 -8.366 -0.544 -16.975 -9.233 -19.53 -3.005 -0.884 -7.333 -0.792 -10.709 0.636 -5.54 2.463 -8.595 8.431 -8.906 14.255 -0.416 6.253 2.045 12.464 8.311 13.142 0.219 0.024 0.188 -0.117 0.163 0.211a32.724 32.724 0 0 1 -0.213 1.827 1.306 1.306 0 0 0 -0.295 0.115c-0.153 0.036 -0.295 0.083 -0.437 0.13 -3.595 1.194 -7.372 3.522 -8.91 6.984a0.5 0.5 0 1 0 0.914 0.406c1.436 -3.235 5.442 -5.658 8.57 -6.522 -0.03 0.174 -0.059 0.32 -0.088 0.434a0.5 0.5 0 1 0 0.969 0.243c0.121 -0.482 0.224 -1.304 0.349 -2.29 2.558 1.064 5.61 1.654 8.294 0.964 0 0.74 -0.018 1.501 0.078 1.981a0.499 0.499 0 1 0 0.98 -0.196 4.531 4.531 0 0 1 -0.056 -0.76c1.854 -0.018 4.876 1.388 7.334 3.292a11.17 11.17 0 0 1 2.653 2.98 0.501 0.501 0 0 0 0.854 -0.523c-0.612 -1 -1.347 -1.896 -2.151 -2.63h0.001ZM110.858 60.3c0.993 -0.989 2.149 -0.494 2.127 1.432a0.486 0.486 0 0 0 -0.06 0.166c-0.255 1.476 -1.935 3.182 -3.202 2.627 0.229 -0.59 0.418 -1.145 0.57 -1.667 1.089 -0.723 1.047 -0.462 1.224 -0.639a0.564 0.564 0 0 1 0.086 -0.037 0.502 0.502 0 0 0 0.437 -0.139c0.442 -0.44 -0.119 -1.248 -1.048 -0.675a3.32 3.32 0 0 0 -0.369 0.143c0.06 -0.27 0.144 -0.695 0.235 -1.21Zm-19.58 2.717c-0.851 -0.45 -1.697 -1.66 -1.704 -3.355 0.099 -0.942 0.829 -1.959 1.651 -1.57 0.328 0.154 0.609 0.66 1.164 1.072 0.013 0.358 0.033 0.713 0.055 1.06 -0.592 -0.286 -1.309 -0.358 -1.32 -0.36a0.5 0.5 0 1 0 -0.164 0.987c0.397 0.066 1.247 0.414 1.558 0.622 0.028 0.535 0.11 1.062 0.202 1.58 -0.166 0.027 -0.675 0.373 -1.442 -0.034v-0.002Zm13.289 8.912c-2.266 0.68 -5.321 0.33 -8.23 -0.946 0.136 -1.704 0.071 -1.037 0.127 -1.827 2.351 1.733 5.426 2.156 8.246 1.054 -0.188 1.715 -0.11 1.236 -0.142 1.72h-0.001ZM93.772 63.25c-0.442 -2.429 -0.564 -6.932 -0.082 -10.3 0.185 0.024 0.369 0.04 0.557 0.04 1.575 0.155 3.607 0.566 5.103 -0.308 0.73 -0.568 1.235 -1.264 1.429 -1.934l0.036 -0.08c0.347 0.923 0.72 1.6 1.729 2.268 2.181 1.123 5.351 1.386 7.879 1.741 0.051 0.86 -0.044 1.9 -0.158 2.764 -0.498 3.777 -1.136 7.784 -3.845 10.495 -3.984 3.984 -11.556 1.333 -12.647 -4.686h-0.001Z" stroke-width="1"></path></g><g id="person 1"><path id="vector_81" fill="#ffc700" d="M75.515 76.899V40.082a3.327 3.327 0 0 0 -3.322 -3.322H42.224a3.327 3.327 0 0 0 -3.322 3.322v36.817a3.327 3.327 0 0 0 3.322 3.322h30.444c1.627 -0.203 2.916 -1.695 2.848 -3.322Z" stroke-width="1"></path><path id="vector_82" fill="#ffffff" d="M67.311 50.116C63.157 40.08 51.01 39.868 46.7 46.862c-3.77 6.17 -2.28 16.83 1.085 20.612 -0.413 0.413 -0.746 1.422 -0.746 2.373 0.067 2.577 2.44 5.085 4.678 6.17 4.407 2.034 9.56 1.56 13.561 -1.22a7.254 7.254 0 0 0 2.848 -7.866c-0.155 -0.465 -0.46 -1.662 -1.09 -2.875a23.53 23.53 0 0 0 1.43 -6.21 15.854 15.854 0 0 0 -1.153 -7.73Z" stroke-width="1"></path><path id="vector_83" fill="#fccac2" d="M62.497 55.066c-4.22 -6.554 -11.95 -5.902 -15.294 -1.728 0.23 3.637 0.193 9.33 2.005 12.305 2.51 4.136 9.696 3.73 12.543 0.475 1.017 -3.526 0.95 -7.865 0.746 -11.052Z" stroke-width="1"></path><path id="vector_84" fill="#ff7449" d="M46.156 70.661c0.936 -0.936 0.76 -0.814 0.95 -0.814 0.067 2.577 2.43 5.107 4.677 6.17 4.388 2.076 9.624 1.554 13.561 -1.22 2.506 -1.766 3.661 -4.882 2.848 -7.865l0.136 -0.068c1.695 0.814 4.475 6.577 4.204 13.086l-0.007 0.268 -29.758 0.003c0 -2.101 0.59 -5.937 1.898 -7.865 0.475 -0.542 0.95 -1.153 1.492 -1.695Z" stroke-width="1"></path><path id="vector_85" fill="#fccac2" d="M50.496 60.287c0 0.542 -0.475 1.017 -1.017 1.017a1.043 1.043 0 0 1 -1.017 -1.017c0 -0.542 0.475 -1.017 1.017 -1.017 0.542 0.068 1.017 0.475 1.017 1.017Z" stroke-width="1"></path><path id="vector_86" fill="#fccac2" d="M58.632 60.287c0 -0.542 0.475 -1.017 1.017 -1.017 0.542 0 1.017 0.475 1.017 1.017 0 0.542 -0.475 1.017 -1.017 1.017a0.999 0.999 0 0 1 -1.017 -1.017Z" stroke-width="1"></path><path id="vector_87" fill="#000000" d="M62.655 50.807a0.499 0.499 0 1 0 -0.993 0.111c0.086 0.778 0.173 1.59 0.242 2.408 -4.884 -5.874 -12.893 -3.973 -15.4 0.153a4.98 4.98 0 0 0 -0.904 2.033 0.499 0.499 0 1 0 0.98 0.195c0.043 -0.219 0.104 -0.432 0.178 -0.633 0.382 7.028 0.647 13.361 7.701 13.974 2.13 0.188 4.383 -0.318 6.11 -1.445a7.442 7.442 0 0 1 -1.217 1.77 0.5 0.5 0 0 0 0.731 0.682c3.846 -4.122 3.207 -13.527 2.572 -19.246v-0.002Zm-1.36 14.86a0.476 0.476 0 0 0 -0.056 0.054c-1.417 1.62 -4.104 2.556 -6.694 2.33 -6.078 -0.528 -6.438 -6.088 -6.748 -12.232 -0.007 -0.147 -0.102 -2.089 -0.14 -2.232a7.569 7.569 0 0 1 3.928 -2.583c4.094 -1.197 7.98 0.354 10.416 4.148 0.278 4.425 0.048 7.87 -0.707 10.516l0.001 0Z" stroke-width="1"></path><path id="vector_88" fill="#000000" d="M53.928 41.688c-8.316 1.252 -10.828 9.549 -9.623 17.849 0.29 2.242 0.856 4.284 1.762 6.295 0.343 0.572 0.696 1.16 1.127 1.702 -1.876 3.187 0.99 7.292 4.381 8.937 4.06 1.969 9.66 1.792 14.058 -1.266 2.688 -1.867 3.9 -5.26 3.035 -8.433 -0.105 -0.313 -0.193 -1.301 -1.079 -2.77 4.876 -13.268 -3.516 -23.842 -13.66 -22.315l0 0.001ZM66.5 64.055c-0.483 1.39 -1.272 2.688 -2.41 3.968a0.5 0.5 0 1 0 0.747 0.664c1 -1.125 1.751 -2.268 2.277 -3.464 0.456 0.949 0.375 1.2 0.596 1.839a6.795 6.795 0 0 1 -2.65 7.323c-3.83 2.692 -8.889 3.203 -13.058 1.181 -2.633 -1.277 -5.28 -4.5 -4.104 -7.208 0.42 0.452 0.928 0.915 1.54 1.404a0.5 0.5 0 0 0 0.624 -0.781c-1.492 -1.194 -2.238 -2.174 -3.11 -3.611 -0.838 -1.868 -1.38 -3.818 -1.658 -5.969 -1.12 -7.726 1.056 -15.562 8.782 -16.725 9.437 -1.417 17.371 8.589 12.423 21.378l0.001 0.001Z" stroke-width="1"></path><path id="vector_89" fill="#000000" d="M59.717 74.822c-3.483 0 -6.93 -1.612 -8.239 -3.083a0.5 0.5 0 1 1 0.747 -0.665c1.133 1.274 4.325 2.748 7.492 2.748a0.5 0.5 0 0 1 0 1Z" stroke-width="1"></path><path id="vector_90" fill="#000000" d="M47.444 55.77a0.5 0.5 0 0 1 -0.379 -0.826 3.458 3.458 0 0 1 3.801 -1.027 0.5 0.5 0 0 1 -0.333 0.943 2.467 2.467 0 0 0 -2.708 0.735 0.5 0.5 0 0 1 -0.38 0.175Z" stroke-width="1"></path><path id="vector_91" fill="#000000" d="M60.931 54.291c-0.709 -0.946 -1.745 -1.488 -2.84 -1.488 -0.396 0 -0.81 0.132 -1.266 0.405 -0.468 0.21 -0.813 0.694 -0.449 1.056 0.223 0.222 0.637 0.158 0.787 -0.095 0.972 -0.748 2.253 -0.23 2.967 0.722a0.5 0.5 0 1 0 0.8 -0.6h0.001Z" stroke-width="1"></path><path id="vector_92" fill="#000000" d="M59.118 55.846c-0.255 -0.19 -0.583 -0.184 -0.883 0.013 -0.249 0.144 -0.375 0.427 -0.376 0.91 -0.01 0.333 -0.038 1.221 0.773 1.373 0.948 0 1.13 -1.816 0.486 -2.296Z" stroke-width="1"></path><path id="vector_93" fill="#000000" d="M50.597 56.277c-0.2 -0.165 -0.541 -0.251 -0.904 -0.011 -0.249 0.144 -0.375 0.428 -0.377 0.91 -0.01 0.334 -0.041 1.236 0.703 1.368 0.96 0.17 1.241 -1.723 0.579 -2.267h-0.001Z" stroke-width="1"></path><path id="vector_94" fill="#000000" d="M52.87 62.685c-0.366 0 -0.463 -0.306 -0.6 -0.571 -0.156 -0.301 -0.305 -0.583 -0.418 -0.924 -0.345 -0.593 -0.094 -1.175 0.702 -1.229 0.052 -0.026 0.37 0.008 0.661 -0.382 0.151 -0.257 0.24 -0.506 0.24 -0.717 0 -0.49 0.01 -0.746 0.28 -0.912a0.538 0.538 0 0 1 0.64 0.083c0.202 0.202 0.166 0.709 0.075 0.942 -0.057 0.905 -0.67 1.776 -1.628 1.96 0.091 0.252 0.175 0.396 0.494 1.025a0.5 0.5 0 0 1 -0.447 0.723v0.002Z" stroke-width="1"></path><path id="vector_95" fill="#000000" d="M56.288 64.362a0.5 0.5 0 0 0 -0.7 0.1c-0.689 0.92 -2.122 0.765 -2.694 0 -0.034 -0.568 -0.846 -0.644 -0.984 -0.09 -0.18 0.717 0.992 1.404 1.143 1.45 1.162 0.58 2.568 0.266 3.336 -0.759a0.5 0.5 0 0 0 -0.1 -0.7Z" stroke-width="1"></path></g><g id="hand left"><path id="vector_96" fill="#ffffff" d="M65.887 137.854c-1.695 0.475 -3.119 1.763 -4.407 2.983 -0.068 0.136 -2.17 2.102 -2.238 1.899 -0.339 -0.746 1.221 -3.594 1.492 -4.272 1.627 -4.339 3.323 -8.747 4.679 -13.221 0.339 -0.882 1.695 -5.221 0.135 -5.696 -1.424 -0.407 -2.983 3.254 -3.458 4.136 -0.996 1.793 -1.862 3.651 -2.726 5.575 -1.956 -2.534 -4.468 0.334 -5.004 1.138a17.56 17.56 0 0 0 -0.647 1.006c-1.361 -1.691 -3.679 0.3 -4.167 0.96 -0.459 0.622 -0.813 1.288 -1.152 1.966 -0.753 -0.377 -2.587 -2.67 -4.882 2.577 -2.433 5.965 -3.458 11.285 -3.865 17.019a87.22 87.22 0 0 1 14.51 2.237v-0.068c0.068 0 0.747 -0.88 0.813 -0.949 0.899 -0.933 1.695 -1.898 2.577 -2.848 2.78 -3.051 5.763 -6.035 8.068 -9.425 0.814 -1.152 1.966 -2.712 1.966 -4.136 0 -1.017 -0.949 -1.085 -1.695 -0.881h0.001Z" stroke-width="1"></path><path id="vector_97" fill="#000000" d="M67.644 137.5c-0.414 -0.323 -1.039 -0.392 -1.823 -0.195 -2.405 0.674 -4.168 2.754 -5.88 4.285 0.272 -0.784 0.772 -1.828 0.985 -2.271 0.471 -0.982 3.3 -8.393 5.062 -14.095 0.582 -1.883 1.677 -5.728 -0.235 -6.225 -1.8 -0.514 -3.175 2.781 -4.036 4.38 -0.923 1.724 -1.743 3.462 -2.535 5.165 -1.715 -1.881 -3.895 -0.615 -5.25 1.526 -0.215 0.338 -0.204 0.319 -0.388 0.597 -1.327 -1.312 -3.3 -0.16 -4.393 1.32a11.461 11.461 0 0 0 -0.954 1.551c-0.529 -0.617 -1.107 -0.7 -1.512 -0.654 -1.937 0.22 -3.549 3.717 -3.569 3.764 -2.104 5.159 -3.47 11.173 -3.9 16.647 -0.524 -0.038 -1.119 0.007 -1.829 0.136 -1.064 0.193 -15.327 19.962 -15.327 20.9a0.5 0.5 0 0 0 0.192 0.394c5.351 4.176 26.297 9.642 28.288 7.994 0.614 -0.502 2.584 -8.291 3.704 -12.888 3.022 -12.414 2.651 -12.878 2.473 -13.102 -0.12 -0.15 -0.824 -0.643 -1.647 -0.929 2.414 -3.078 15.853 -15.747 12.573 -18.301l0.001 0.001Zm-2.037 4.514c-3.45 5.18 -7.964 9.059 -11.594 13.514a87.096 87.096 0 0 0 -13.74 -2.125c0.414 -5.389 1.696 -11.292 3.766 -16.366 0.47 -1.075 1.795 -3.05 2.761 -3.16 0.44 -0.047 1.025 0.344 0.64 1.286 -0.552 1.347 -0.936 2.687 -1.414 4.012a0.501 0.501 0 0 0 0.941 0.339c0.765 -2.124 1.458 -4.856 2.99 -6.934 0.362 -0.491 1.391 -1.483 2.212 -1.492 1.314 -0.008 0.52 1.011 0.267 1.487 -0.985 1.851 -1.807 3.762 -2.904 5.484 -0.357 0.563 0.496 1.085 0.844 0.537 2.146 -3.371 4.402 -9.92 6.916 -9.969 0.764 -0.026 1.685 0.366 0.955 1.97 -1.055 2.316 -2.154 4.663 -3.374 6.88a0.499 0.499 0 1 0 0.876 0.482c2.647 -4.814 4.363 -9.463 6.85 -14.107 0.396 -0.731 1.944 -4.159 2.891 -3.889 0.058 0.015 0.126 0.046 0.191 0.165 0.202 0.362 0.378 1.465 -0.647 4.8 -1.628 5.298 -4.559 13.022 -5.01 13.959 -0.992 2.07 -1.473 3.319 -1.188 3.939a0.537 0.537 0 0 0 0.375 0.342c1.041 0.243 3.775 -4.032 6.865 -4.897 0.52 -0.13 0.833 -0.077 0.952 0.017 0.081 0.063 0.126 0.19 0.122 0.356 -0.024 1.141 -0.88 2.375 -1.544 3.37h0.001Z" stroke-width="1"></path></g><g id="hand right"><path id="vector_98" fill="#ff7449" d="M134.571 161.517c1.763 1.627 11.866 22.036 11.866 22.307 -6.102 3.526 -27.125 5.495 -28.477 4 -0.612 -0.677 -3.051 -25.291 -2.441 -25.901 1.982 -1.321 17.497 -1.185 19.053 -0.407l-0.001 0.001Z" stroke-width="1"></path><path id="vector_99" fill="#fccac2" d="M131.317 147.278c-1.159 -3.31 -2.057 -4.123 -4.339 -3.797 -0.967 -1.74 -2.748 -3.318 -4.678 -2.034 -0.339 -0.61 -0.746 -1.22 -1.288 -1.695 -0.817 -0.817 -2.204 -0.736 -2.934 0.553 -0.201 -1.981 -0.464 -4.297 -0.66 -6.249 -0.135 -1.288 -0.203 -3.729 -1.356 -4.475 -1.56 -1.017 -2.238 3.458 -2.305 4.339 -0.407 3.729 -0.407 8.95 0.542 12.882 -3.904 0.868 -3.029 6.458 -1.22 10.238 1.516 3.249 2.37 3.974 3.119 4.611 2.848 -0.882 13.425 -0.882 17.154 -0.407l0.068 -0.746c-0.339 -4.407 -0.746 -9.085 -2.102 -13.222l-0.001 0.002Z" stroke-width="1"></path><path id="vector_100" fill="#000000" d="M133.782 160.469c-0.254 -4.127 -0.991 -14.637 -4.349 -17.138 -0.218 -0.218 -1.687 -0.792 -2.215 -0.426 -1.471 -2.362 -3.677 -2.864 -4.793 -2.251a5.116 5.116 0 0 0 -1.06 -1.323c-0.846 -0.847 -2.126 -0.885 -3.066 -0.186 -0.063 -0.691 -0.499 -5.646 -0.499 -5.646 -0.134 -1.498 -0.316 -3.549 -1.532 -4.335 -0.403 -0.263 -0.84 -0.301 -1.231 -0.109 -1.492 0.736 -1.842 4.789 -1.844 4.813 -0.305 3.431 -0.445 8.426 0.427 12.498 -4.5 2.438 -2.225 8.456 -1.061 10.889 1.225 2.561 2.072 3.334 3.083 4.346a0.5 0.5 0 0 0 0.707 -0.707c-0.971 -0.972 -1.767 -1.728 -2.886 -4.066 -1.024 -2.141 -3.031 -7.34 0.401 -9.448 0.098 0.368 0.196 0.712 0.294 1.055a0.5 0.5 0 1 0 0.961 -0.275 46.635 46.635 0 0 1 -0.402 -1.471c-0.975 -4.04 -0.896 -9.372 -0.53 -12.727 0.095 -1.235 0.657 -3.696 1.291 -4.009 0.035 -0.017 0.095 -0.047 0.244 0.051 1.584 1.024 0.808 6.913 2.493 15.676a0.499 0.499 0 1 0 0.981 -0.189c-0.253 -1.316 -0.493 -2.611 -0.656 -3.9 -0.302 -2.381 2.007 -2.769 3.236 0 0.672 1.465 1.215 3.119 1.662 5.057a0.5 0.5 0 0 0 0.975 -0.225c-0.349 -1.512 -0.756 -2.86 -1.235 -4.084 -0.609 -1.559 1.327 -0.865 2.181 -0.106 0.465 0.407 0.84 0.881 1.163 1.458 0.631 1.39 1.039 2.873 1.247 4.534a0.5 0.5 0 1 0 0.992 -0.124c-0.19 -1.518 -0.539 -2.899 -1.074 -4.223a0.466 0.466 0 0 0 0.119 -0.091c0.287 0.044 0.835 0.23 0.973 0.301 3.041 2.281 3.772 12.67 4.005 16.446a0.5 0.5 0 1 0 0.999 -0.062l-0.001 -0.003Z" stroke-width="1"></path></g></g></svg>