<svg width="25" height="25" viewBox="0 0 25 25" fill="none" xmlns="http://www.w3.org/2000/svg">
    <g clip-path="url(#clip0_155_346)">
        <path
            d="M9.5459 12.5C9.5459 13.2956 9.86197 14.0587 10.4246 14.6213C10.9872 15.1839 11.7502 15.5 12.5459 15.5C13.3415 15.5 14.1046 15.1839 14.6672 14.6213C15.2298 14.0587 15.5459 13.2956 15.5459 12.5C15.5459 11.7044 15.2298 10.9413 14.6672 10.3787C14.1046 9.81607 13.3415 9.5 12.5459 9.5C11.7502 9.5 10.9872 9.81607 10.4246 10.3787C9.86197 10.9413 9.5459 11.7044 9.5459 12.5Z"
            stroke="#F9FAFB" stroke-width="2" stroke-linecap="round" stroke-linejoin="round" />
        <path
            d="M6.5459 6.5H10.0459L12.5459 4L15.0459 6.5H18.5459V10L21.0459 12.5L18.5459 15V18.5H15.0459L12.5459 21L10.0459 18.5H6.5459V15L4.0459 12.5L6.5459 10V6.5Z"
            stroke="#F9FAFB" stroke-width="2" stroke-linecap="round" stroke-linejoin="round" />
    </g>
    <defs>
        <clipPath id="clip0_155_346">
            <rect width="24" height="24" fill="white" transform="translate(0.545898 0.5)" />
        </clipPath>
    </defs>
</svg>