<svg xmlns="http://www.w3.org/2000/svg" width="14" height="26" viewBox="0 0 14 26"
											fill="none">
											<path
												d="M8.14831 16.8763V11.2272C8.14831 10.9138 8.02569 10.6132 7.80743 10.3916C7.58917 10.1699 7.29314 10.0454 6.98448 10.0454C6.67581 10.0454 6.37978 10.1699 6.16152 10.3916C5.94326 10.6132 5.82064 10.9138 5.82064 11.2272V16.8763C5.46884 17.0826 5.17632 17.3787 4.97214 17.7353C4.76797 18.0919 4.65925 18.4965 4.6568 18.909C4.6568 19.5359 4.90204 20.1371 5.33856 20.5804C5.77508 21.0236 6.36714 21.2727 6.98448 21.2727C7.60181 21.2727 8.19387 21.0236 8.63039 20.5804C9.06691 20.1371 9.31215 19.5359 9.31215 18.909C9.3097 18.4965 9.20098 18.0919 8.99681 17.7353C8.79263 17.3787 8.50011 17.0826 8.14831 16.8763ZM12.2217 14.1818V5.31817C12.2217 3.9077 11.67 2.555 10.6878 1.55765C9.7056 0.560305 8.37348 0 6.98448 0C5.59547 0 4.26335 0.560305 3.28117 1.55765C2.29899 2.555 1.74721 3.9077 1.74721 5.31817V14.1818C0.942814 15.1074 0.390323 16.2302 0.144386 17.4391C-0.101551 18.6481 -0.0324115 19.9013 0.344965 21.0748C0.722341 22.2483 1.39488 23.3014 2.29605 24.13C3.19722 24.9585 4.2958 25.5339 5.48313 25.799C5.97635 25.9132 6.47897 25.9804 6.98448 25.9999C8.33525 26.0063 9.65886 25.6147 10.7949 24.8726C11.9309 24.1305 12.8306 23.0698 13.3849 21.819C13.9393 20.5681 14.1244 19.1809 13.9179 17.8253C13.7115 16.4698 13.1223 15.2041 12.2217 14.1818ZM9.89407 22.5372C8.96806 23.3709 7.75382 23.797 6.51846 23.7216C5.28309 23.6463 4.12781 23.0757 3.30675 22.1354C2.48569 21.1951 2.06612 19.9621 2.14032 18.7076C2.21453 17.4532 2.77645 16.2801 3.70245 15.4463C3.81242 15.3369 3.89991 15.2063 3.95984 15.0623C4.01978 14.9183 4.05097 14.7636 4.05161 14.6072V5.31817C4.05161 4.53457 4.35815 3.78308 4.90381 3.22899C5.44946 2.67491 6.18953 2.36363 6.9612 2.36363C7.73287 2.36363 8.47294 2.67491 9.01859 3.22899C9.56425 3.78308 9.87079 4.53457 9.87079 5.31817V14.7018C9.87143 14.8581 9.90262 15.0128 9.96255 15.1569C10.0225 15.3009 10.11 15.4314 10.2199 15.5409C10.6957 16.0075 11.068 16.5718 11.3121 17.196C11.5562 17.8203 11.6666 18.4902 11.6357 19.1611C11.6049 19.8321 11.4336 20.4886 11.1333 21.0871C10.833 21.6855 10.4105 22.2121 9.89407 22.6318V22.5372Z"
												fill="#6D97CA" />
										</svg>