<svg class="h-5 w-5" width="25" height="24" viewBox="0 0 25 24" fill="none" xmlns="http://www.w3.org/2000/svg">
    <g clip-path="url(#clip0_155_473)">
        <path d="M15.2158 8H15.2258" stroke="white" stroke-width="2" stroke-linecap="round"
            stroke-linejoin="round" />
        <path
            d="M3.21582 6C3.21582 5.20435 3.53189 4.44129 4.0945 3.87868C4.65711 3.31607 5.42017 3 6.21582 3H18.2158C19.0115 3 19.7745 3.31607 20.3371 3.87868C20.8998 4.44129 21.2158 5.20435 21.2158 6V18C21.2158 18.7956 20.8998 19.5587 20.3371 20.1213C19.7745 20.6839 19.0115 21 18.2158 21H6.21582C5.42017 21 4.65711 20.6839 4.0945 20.1213C3.53189 19.5587 3.21582 18.7956 3.21582 18V6Z"
            stroke="white" stroke-width="2" stroke-linecap="round" stroke-linejoin="round" />
        <path d="M3.21582 16L8.21582 11C9.14382 10.107 10.2878 10.107 11.2158 11L16.2158 16" stroke="white"
            stroke-width="2" stroke-linecap="round" stroke-linejoin="round" />
        <path d="M14.2158 14L15.2158 13C16.1438 12.107 17.2878 12.107 18.2158 13L21.2158 16" stroke="white"
            stroke-width="2" stroke-linecap="round" stroke-linejoin="round" />
    </g>
    <defs>
        <clipPath id="clip0_155_473">
            <rect width="24" height="24" fill="white" transform="translate(0.21582)" />
        </clipPath>
    </defs>
</svg>