<svg width="50" height="50" viewBox="0 0 50 50" fill="none" xmlns="http://www.w3.org/2000/svg">
    <path
        d="M24.9766 31.1094C21.8875 31.1094 19.375 28.6 19.375 25.5156C19.375 22.4266 21.8875 19.9141 24.9766 19.9141C28.0656 19.9141 30.5781 22.4266 30.5781 25.5156C30.5781 28.6 28.0656 31.1094 24.9766 31.1094ZM24.9766 21.4766C22.7492 21.4766 20.9375 23.2883 20.9375 25.5156C20.9375 27.7383 22.7492 29.5469 24.9766 29.5469C27.2039 29.5469 29.0156 27.7383 29.0156 25.5156C29.0156 23.2883 27.2039 21.4766 24.9766 21.4766Z"
        fill="#D9D9D9" />
    <path
        d="M24.9766 31.1094C21.8875 31.1094 19.375 28.6 19.375 25.5156C19.375 22.4266 21.8875 19.9141 24.9766 19.9141C28.0656 19.9141 30.5781 22.4266 30.5781 25.5156C30.5781 28.6 28.0656 31.1094 24.9766 31.1094ZM24.9766 21.4766C22.7492 21.4766 20.9375 23.2883 20.9375 25.5156C20.9375 27.7383 22.7492 29.5469 24.9766 29.5469C27.2039 29.5469 29.0156 27.7383 29.0156 25.5156C29.0156 23.2883 27.2039 21.4766 24.9766 21.4766Z"
        fill="#D9D9D9" />
    <path
        d="M34.8203 35.1641H15.1328C12.4672 35.1641 10 34.6812 10 31.1789V19.5617C10 17.4328 10.8711 16.25 12.8047 15.8008V14H17.6641V15.5852H34.8203C37.4859 15.5852 39.9531 16.0672 39.9531 19.5617V31.1789C39.9531 34.682 37.4859 35.1641 34.8203 35.1641ZM14.3672 15.5625V17.1367L13.6898 17.2273C12.0797 17.443 11.5625 18.0102 11.5625 19.5617V31.1789C11.5625 32.8539 12.0781 33.6016 15.1328 33.6016H34.8203C37.875 33.6016 38.3906 32.8539 38.3906 31.1789V19.5617C38.3906 17.8922 37.875 17.1477 34.8203 17.1477H16.1016V15.5625H14.3672ZM24.9766 31.1094C21.8875 31.1094 19.375 28.6 19.375 25.5156C19.375 22.4266 21.8875 19.9141 24.9766 19.9141C28.0656 19.9141 30.5781 22.4266 30.5781 25.5156C30.5781 28.6 28.0656 31.1094 24.9766 31.1094ZM24.9766 21.4766C22.7492 21.4766 20.9375 23.2883 20.9375 25.5156C20.9375 27.7383 22.7492 29.5469 24.9766 29.5469C27.2039 29.5469 29.0156 27.7383 29.0156 25.5156C29.0156 23.2883 27.2039 21.4766 24.9766 21.4766Z"
        fill="#D9D9D9" />
</svg>