<svg class="max-lg:w-8 md:mb-4 max-md:order-2" xmlns="http://www.w3.org/2000/svg" width="18" height="24"
									viewBox="0 0 62 62" fill="none">
									<path fill-rule="evenodd" clip-rule="evenodd"
										d="M21.2257 13.6224C22.0001 13.5415 22.7857 13.5 23.5806 13.5C34.2133 13.5 43.1758 20.9151 45.921 31.0303C46.1407 31.0161 46.3618 31.0068 46.584 31.0026C46.4937 31.001 46.4031 31.0002 46.3124 31.0002L46.2391 31.0004L46.239 31H49.5937H49.7254V30.9989C53.8931 30.9286 57.2499 27.5282 57.2499 23.3438C57.2499 19.1153 53.8221 15.6875 49.5937 15.6875C48.1739 15.6875 46.8445 16.0739 45.7047 16.7474C45.7013 15.5251 45.5157 14.3458 45.1736 13.235C43.4691 8.29696 38.7802 4.75 33.263 4.75C27.6025 4.75 22.814 8.48353 21.2257 13.6224ZM55.4489 33.8566C59.1884 36.6347 61.625 41.1785 61.625 46.3125C61.625 54.7693 55.0135 61.6249 46.8578 61.6249C46.6753 61.6249 46.4935 61.6215 46.3125 61.6147V61.625H23.9281V61.6224C23.8125 61.6241 23.6966 61.625 23.5806 61.625C10.7645 61.625 0.375 50.8519 0.375 37.5625C0.375 26.8313 7.14954 17.7409 16.5059 14.6387C17.8026 6.55263 24.8114 0.375 33.263 0.375C40.5142 0.375 46.7034 4.92246 49.1341 11.3211C49.2866 11.3154 49.4398 11.3125 49.5937 11.3125C56.2384 11.3125 61.6249 16.6991 61.6249 23.3438C61.6249 27.8629 59.1333 31.8001 55.4489 33.8566ZM46.3125 57.25H23.9281H23.6763V57.2497L23.5806 57.25C13.3289 57.25 4.75 48.5865 4.75 37.5625C4.75 26.5385 13.3289 17.875 23.5806 17.875C32.2772 17.875 39.77 24.1095 41.8431 32.7306L41.8497 32.7279C42.1425 33.9241 42.3292 35.1643 42.3987 36.437C43.7617 35.7538 45.2782 35.375 46.8578 35.375C52.4491 35.375 57.25 40.121 57.25 46.3125C57.25 52.4606 52.5161 57.1834 46.9752 57.2492V57.25H46.3125Z"
										fill="white" />
								</svg>