<svg width="21" height="20" viewBox="0 0 21 20" fill="none" xmlns="http://www.w3.org/2000/svg">
    <g clip-path="url(#clip0_155_247)">
        <path
            d="M15.1074 1.66016H1.78711C1.31836 1.66016 0.921224 1.82292 0.595703 2.14844C0.270182 2.47396 0.107422 2.87109 0.107422 3.33984V18.3398L4.56055 15H15.1074C15.5762 15 15.9733 14.8372 16.2988 14.5117C16.6243 14.1862 16.7871 13.7956 16.7871 13.3398V3.33984C16.7871 2.87109 16.6243 2.47396 16.2988 2.14844C15.9733 1.82292 15.5762 1.66016 15.1074 1.66016ZM15.1074 13.3398H3.99414L1.78711 15V3.33984H15.1074V13.3398Z"
            fill="#B8BBBF" />
    </g>
    <defs>
        <clipPath id="clip0_155_247">
            <rect width="20" height="20" fill="white" transform="matrix(1 0 0 -1 0.107422 20)" />
        </clipPath>
    </defs>
</svg>