<svg width="19" height="19" viewBox="0 0 19 19" fill="none" xmlns="http://www.w3.org/2000/svg">
    <g clip-path="url(#clip0_155_277)">
        <path
            d="M15.7443 5.0289C15.941 5.02912 16.1303 5.10447 16.2734 5.23955C16.4165 5.37464 16.5026 5.55927 16.5141 5.75571C16.5257 5.95216 16.4618 6.14559 16.3355 6.29649C16.2092 6.44739 16.03 6.54437 15.8346 6.56761L15.7443 6.57302H15.6817L14.9722 15.0657C14.9722 15.6565 14.7465 16.2249 14.3412 16.6548C13.9359 17.0846 13.3817 17.3433 12.7919 17.378L12.656 17.3818H6.47956C5.24581 17.3818 4.2375 16.4175 4.16956 15.2587L4.1657 15.1297L3.45309 6.57302H3.39132C3.19454 6.5728 3.00527 6.49745 2.86218 6.36236C2.71909 6.22728 2.63298 6.04265 2.62145 5.84621C2.60991 5.64976 2.67383 5.45633 2.80013 5.30543C2.92643 5.15453 3.10558 5.05755 3.30099 5.0343L3.39132 5.0289H15.7443Z"
            fill="white" />
        <path
            d="M11.1118 1.94101C11.5214 1.94101 11.9141 2.10369 12.2037 2.39327C12.4933 2.68285 12.656 3.0756 12.656 3.48513C12.6557 3.68191 12.5804 3.87118 12.4453 4.01427C12.3102 4.15736 12.1256 4.24347 11.9292 4.255C11.7327 4.26653 11.5393 4.20262 11.3884 4.07632C11.2375 3.95002 11.1405 3.77086 11.1172 3.57546L11.1118 3.48513H8.02361L8.01821 3.57546C7.99496 3.77086 7.89798 3.95002 7.74708 4.07632C7.59618 4.20262 7.40275 4.26653 7.2063 4.255C7.00986 4.24347 6.82523 4.15736 6.69015 4.01427C6.55506 3.87118 6.47971 3.68191 6.47949 3.48513C6.47937 3.09556 6.6265 2.72035 6.89138 2.4347C7.15627 2.14906 7.51934 1.97409 7.9078 1.94487L8.02361 1.94101H11.1118Z"
            fill="white" />
    </g>
    <defs>
        <clipPath id="clip0_155_277">
            <rect width="18.5294" height="18.5294" fill="white" transform="translate(0.301758 0.397064)" />
        </clipPath>
    </defs>
</svg>