<svg width="22" height="19" viewBox="0 0 22 19" fill="none" xmlns="http://www.w3.org/2000/svg">
    <path
        d="M17.7799 6.43867L21.0376 9.41597C21.4312 9.78083 21.3188 10.0621 20.785 10.0621H18.3415V17.841C18.3415 18.3749 17.8922 18.852 17.3584 18.852H13.1176V13.4034C13.1176 12.8696 12.6404 12.3924 12.1065 12.3924H9.43838C8.90457 12.3924 8.42737 12.8696 8.42737 13.4034V18.852H4.18653C3.65272 18.852 3.17552 18.3749 3.17552 17.841V10.0621H0.759889C0.226077 10.0621 0.113743 9.78083 0.507362 9.41597L10.0279 0.766237C10.4215 0.401375 11.0955 0.401375 11.5161 0.766237L13.6783 2.70378V1.15896C13.6783 0.625145 14.1555 0.147949 14.6893 0.147949H16.7958C17.3296 0.147949 17.779 0.625145 17.779 1.15896L17.7799 6.43867Z"
        fill="#F9FAFB" />
</svg>