<svg width="21" height="20" viewBox="0 0 21 20" fill="none" xmlns="http://www.w3.org/2000/svg">
    <g clip-path="url(#clip0_155_239)">
        <path
            d="M15.4805 6.66016H10.8125L11.75 3.86719C11.8281 3.60677 11.8477 3.3431 11.8086 3.07617C11.7695 2.80925 11.6719 2.57161 11.5156 2.36328C11.3594 2.14193 11.1608 1.9694 10.9199 1.8457C10.679 1.722 10.4284 1.66016 10.168 1.66016H8.82031C8.6901 1.66016 8.56966 1.6862 8.45898 1.73828C8.34831 1.79036 8.25391 1.86849 8.17578 1.97266L4.26953 6.66016H2.16016C1.69141 6.66016 1.29427 6.82292 0.96875 7.14844C0.643229 7.47396 0.480469 7.87109 0.480469 8.33984V15.8398C0.480469 16.2956 0.643229 16.6862 0.96875 17.0117C1.29427 17.3372 1.69141 17.5 2.16016 17.5H13.2344C13.5859 17.5 13.9049 17.3991 14.1914 17.1973C14.4779 16.9954 14.6797 16.7383 14.7969 16.4258L17.1016 10.293C17.1146 10.2409 17.1276 10.1921 17.1406 10.1465C17.1536 10.1009 17.1602 10.0521 17.1602 10V8.33984C17.1602 7.87109 16.9974 7.47396 16.6719 7.14844C16.3464 6.82292 15.9492 6.66016 15.4805 6.66016ZM2.16016 8.33984H3.82031V15.8398H2.16016V8.33984ZM15.4805 9.84375L13.2344 15.8398H5.48047V7.79297L9.21094 3.33984H10.168L8.85938 7.22656C8.82031 7.35677 8.81055 7.49023 8.83008 7.62695C8.84961 7.76367 8.89844 7.88411 8.97656 7.98828C9.05469 8.09245 9.15234 8.17708 9.26953 8.24219C9.38672 8.30729 9.51693 8.33984 9.66016 8.33984H15.4805V9.84375Z"
            fill="white" />
    </g>
    <defs>
        <clipPath id="clip0_155_239">
            <rect width="20" height="20" fill="white" transform="matrix(1 0 0 -1 0.480469 20)" />
        </clipPath>
    </defs>
</svg>