<svg class="h-[16px] w-[16px]" width="15" height="15" viewBox="0 0 15 15" fill="none"
    xmlns="http://www.w3.org/2000/svg">
    <g clip-path="url(#clip0_155_222)">
        <path
            d="M14.375 7.5C14.375 11.2969 11.2969 14.375 7.5 14.375C3.70304 14.375 0.625 11.2969 0.625 7.5C0.625 3.70304 3.70304 0.625 7.5 0.625C11.2969 0.625 14.375 3.70304 14.375 7.5ZM1.87927 7.5C1.87927 10.6042 4.39575 13.1207 7.5 13.1207C10.6042 13.1207 13.1207 10.6042 13.1207 7.5C13.1207 4.39575 10.6042 1.87927 7.5 1.87927C4.39575 1.87927 1.87927 4.39575 1.87927 7.5Z"
            fill="#9CA3AF" />
        <path
            d="M7.5 3.125C7.15481 3.125 6.875 3.40482 6.875 3.75V7.79169C6.875 7.79169 6.875 7.95463 6.95419 8.07719C7.00719 8.18113 7.08981 8.27144 7.19837 8.33413L10.0857 10.0012C10.3847 10.1737 10.7669 10.0713 10.9395 9.77238C11.1121 9.47344 11.0097 9.09119 10.7108 8.91862L8.125 7.42575V3.75C8.125 3.40483 7.84519 3.125 7.5 3.125Z"
            fill="#9CA3AF" />
    </g>
    <defs>
        <clipPath id="clip0_155_222">
            <rect width="15" height="15" fill="white" />
        </clipPath>
    </defs>
</svg>