<svg xmlns="http://www.w3.org/2000/svg" width="24" height="19" viewBox="0 0 24 19"
											fill="none">
											<path fill-rule="evenodd" clip-rule="evenodd"
												d="M10.0001 3.99437L10.0001 3.98848L4.33939 3.98841L9.76934 2.02633L9.76876 2.02471C9.87275 1.9985 9.98036 1.98917 10.0875 1.99715C10.1016 1.99821 10.1157 1.99956 10.1298 2.00122L10.13 2.00125C10.2771 2.01857 10.4184 2.06835 10.5439 2.14699L10.5439 2.147C10.6694 2.22565 10.7759 2.33119 10.8556 2.456L10.8557 2.4562C10.9354 2.58102 10.9864 2.72199 11.0049 2.86892L11.005 2.8692C11.0235 3.01619 11.0092 3.16546 10.963 3.30623L10.963 3.30634C10.9168 3.44714 10.8398 3.57591 10.7378 3.68333L10.7377 3.68343C10.6356 3.79081 10.511 3.87416 10.3728 3.92747L10.3726 3.92757C10.3596 3.93258 10.3465 3.93731 10.3333 3.94176C10.226 3.97806 10.1133 3.99584 10.0001 3.99437ZM0 3.42958V5.98852L9.97957 5.98865C10.3586 5.9929 10.7355 5.92511 11.0903 5.78827L11.0905 5.78816C11.3605 5.68397 11.6132 5.54146 11.8412 5.36566C11.9625 5.27205 12.0768 5.16899 12.183 5.05725L12.1831 5.05715C12.4886 4.73555 12.7189 4.35005 12.8573 3.92853L12.8573 3.92842C12.9956 3.50691 13.0386 3.05991 12.9831 2.61975L12.9831 2.61947C12.9275 2.1793 12.7749 1.75698 12.5362 1.38303L12.5361 1.38283C12.2974 1.00884 11.9785 0.692604 11.6026 0.456991L11.6026 0.456979C11.472 0.375101 11.3356 0.303671 11.1947 0.243141C10.9302 0.12949 10.65 0.0542673 10.3625 0.0204703L10.3623 0.0204452C9.93403 -0.0298761 9.50007 0.0129745 9.09012 0.145888L9.08981 0.145035L9.05912 0.156123L9.05551 0.157341L9.05509 0.157482L9.05512 0.157571L0 3.42958ZM0 11.998V14.0525L13.2058 18.7506L13.2057 18.751C13.6836 18.9417 14.1977 19.0246 14.7113 18.9938C14.9088 18.982 15.1043 18.9534 15.2959 18.9088C15.6026 18.8373 15.8991 18.7245 16.1771 18.5728C16.6288 18.3264 17.0206 17.9833 17.3246 17.568C17.6286 17.1527 17.8372 16.6755 17.9357 16.1703C18.0342 15.6652 18.0201 15.1445 17.8943 14.6454C17.7686 14.1463 17.5344 13.6811 17.2083 13.283C17.0076 13.0379 16.7752 12.8219 16.5178 12.6404C16.357 12.527 16.1866 12.4271 16.008 12.3419C15.5443 12.1207 15.0376 12.0043 14.5239 12.0011V11.9981L0 11.998ZM14.5103 13.9983L5.8151 13.9982L13.9842 16.9045L13.9835 16.9065C14.1776 16.9782 14.3847 17.0089 14.5916 16.9964C14.8115 16.9833 15.0258 16.9217 15.2193 16.8162C15.4127 16.7106 15.5805 16.5637 15.7106 16.3859C15.8408 16.2081 15.9302 16.0037 15.9723 15.7874C16.0145 15.571 16.0085 15.3481 15.9546 15.1344C15.9008 14.9206 15.8005 14.7214 15.6608 14.5509C15.5212 14.3804 15.3457 14.2428 15.1468 14.1479C14.9483 14.0532 14.7312 14.0034 14.5112 14.002L14.5103 14.002L14.5103 14.0016L14.5103 13.9983ZM19.018 4.24812L19.0172 4.24861L18.0336 2.50716L18.0325 2.50515L18.0345 2.50404C18.567 2.2035 19.1613 2.02907 19.7718 1.99417C19.8603 1.98911 19.9489 1.987 20.0373 1.98783C20.559 1.99269 21.0757 2.09965 21.5579 2.3036C22.1218 2.54211 22.6234 2.90691 23.0241 3.36989C23.4248 3.83287 23.7139 4.38168 23.8692 4.97405C24.0245 5.56641 24.0417 6.18652 23.9197 6.78662C23.7976 7.38671 23.5395 7.95077 23.1651 8.43534C22.8451 8.84967 22.4474 9.19644 21.9952 9.45676C21.9185 9.50089 21.8403 9.54254 21.7606 9.58161C21.2108 9.85115 20.6066 9.99087 19.9944 9.99002V9.98973H0V7.98973H19.9972L19.9972 7.98756C20.303 7.98799 20.6049 7.9182 20.8795 7.78355C21.1541 7.64891 21.3941 7.45301 21.5811 7.21095C21.7681 6.96889 21.897 6.68712 21.958 6.38735C22.019 6.08759 22.0104 5.77782 21.9328 5.48191C21.8552 5.18601 21.7108 4.91186 21.5106 4.68058C21.3105 4.44931 21.0599 4.26708 20.7782 4.14794C20.4966 4.02879 20.1913 3.97591 19.886 3.99336C19.581 4.0108 19.2841 4.09795 19.018 4.24812Z"
												fill="white" />
										</svg>