<svg xmlns="http://www.w3.org/2000/svg" width="14" height="14" viewBox="0 0 14 14" fill="none">
<g clip-path="url(#clip0_58_945)">
<path d="M2.42139 4.62512H11.1982" stroke="white" stroke-width="1.0971" stroke-linecap="round" stroke-linejoin="round"/>
<path d="M2.96875 4.62512L3.5173 11.2077C3.5173 11.4987 3.63289 11.7777 3.83863 11.9835C4.04438 12.1892 4.32343 12.3048 4.6144 12.3048H9.00278C9.29375 12.3048 9.5728 12.1892 9.77855 11.9835C9.98429 11.7777 10.0999 11.4987 10.0999 11.2077L10.6484 4.62512" stroke="white" stroke-width="1.0971" stroke-linecap="round" stroke-linejoin="round"/>
<path d="M5.16309 4.6251V2.97946C5.16309 2.83397 5.22088 2.69445 5.32375 2.59157C5.42662 2.4887 5.56615 2.43091 5.71163 2.43091H7.90583C8.05131 2.43091 8.19084 2.4887 8.29371 2.59157C8.39658 2.69445 8.45438 2.83397 8.45438 2.97946V4.6251" stroke="white" stroke-width="1.0971" stroke-linecap="round" stroke-linejoin="round"/>
<path d="M5.71484 7.36884L7.90904 9.56303M7.90904 7.36884L5.71484 9.56303" stroke="white" stroke-width="1.0971" stroke-linecap="round" stroke-linejoin="round"/>
</g>
<defs>
<clipPath id="clip0_58_945">
<rect width="13.1652" height="13.1652" fill="white" transform="translate(0.227051 0.786682)"/>
</clipPath>
</defs>
</svg>