<svg width="340" height="40" viewBox="0 0 340 40" fill="none" xmlns="http://www.w3.org/2000/svg">
<path d="M298.115 38.9997V10.3323H305.693V15.3901H306.029C306.626 13.7104 307.621 12.3853 309.015 11.4147C310.408 10.4442 312.076 9.95898 314.017 9.95898C315.983 9.95898 317.656 10.4505 319.037 11.4334C320.418 12.4039 321.339 13.7228 321.799 15.3901H322.098C322.683 13.7477 323.74 12.435 325.271 11.4521C326.814 10.4567 328.637 9.95898 330.739 9.95898C333.415 9.95898 335.586 10.8113 337.253 12.5159C338.933 14.2081 339.773 16.6095 339.773 19.7201V38.9997H331.841V21.2878C331.841 19.6952 331.417 18.5007 330.571 17.7044C329.725 16.9081 328.668 16.5099 327.399 16.5099C325.955 16.5099 324.829 16.9703 324.02 17.8911C323.212 18.7994 322.807 20 322.807 21.4931V38.9997H315.099V21.1199C315.099 19.7139 314.695 18.5941 313.886 17.7604C313.09 16.9268 312.038 16.5099 310.732 16.5099C309.848 16.5099 309.052 16.7339 308.343 17.1818C307.646 17.6173 307.092 18.2332 306.682 19.0295C306.271 19.8134 306.066 20.7342 306.066 21.7918V38.9997H298.115Z" fill="#F10989"/>
<path d="M275.804 39.5409C273.975 39.5409 272.345 39.2237 270.914 38.5891C269.483 37.9421 268.351 36.9902 267.517 35.7335C266.696 34.4644 266.285 32.8842 266.285 30.993C266.285 29.4003 266.578 28.0628 267.162 26.9803C267.747 25.8978 268.543 25.0268 269.551 24.3674C270.559 23.7079 271.704 23.2102 272.985 22.8743C274.279 22.5383 275.636 22.3019 277.054 22.165C278.721 21.9908 280.065 21.8291 281.085 21.6798C282.106 21.518 282.846 21.2816 283.306 20.9706C283.767 20.6595 283.997 20.1991 283.997 19.5894V19.4775C283.997 18.2954 283.624 17.3809 282.877 16.7339C282.143 16.0869 281.098 15.7634 279.742 15.7634C278.311 15.7634 277.172 16.0807 276.326 16.7152C275.48 17.3374 274.92 18.1212 274.646 19.0669L267.293 18.4696C267.666 16.7277 268.4 15.2221 269.495 13.953C270.59 12.6714 272.002 11.6885 273.732 11.0041C275.474 10.3074 277.49 9.95898 279.779 9.95898C281.372 9.95898 282.896 10.1456 284.352 10.5189C285.82 10.8922 287.12 11.4707 288.252 12.2546C289.397 13.0385 290.299 14.0463 290.959 15.2781C291.618 16.4975 291.948 17.9595 291.948 19.6641V38.9997H284.408V35.0243H284.184C283.723 35.9202 283.107 36.7103 282.336 37.3946C281.565 38.0665 280.638 38.5953 279.555 38.981C278.473 39.3543 277.222 39.5409 275.804 39.5409ZM278.081 34.0538C279.25 34.0538 280.283 33.8236 281.179 33.3633C282.075 32.8904 282.778 32.2559 283.288 31.4596C283.798 30.6632 284.053 29.7612 284.053 28.7533V25.7111C283.804 25.8729 283.462 26.0222 283.026 26.1591C282.603 26.2835 282.124 26.4017 281.589 26.5137C281.054 26.6132 280.519 26.7065 279.984 26.7936C279.449 26.8683 278.964 26.9367 278.529 26.9989C277.595 27.1358 276.78 27.3535 276.084 27.6522C275.387 27.9508 274.846 28.3552 274.46 28.8653C274.074 29.363 273.881 29.9851 273.881 30.7317C273.881 31.8142 274.273 32.6416 275.057 33.2139C275.853 33.7739 276.861 34.0538 278.081 34.0538Z" fill="#F10989"/>
<path d="M249.282 39.5596C246.333 39.5596 243.795 38.9624 241.667 37.7679C239.552 36.561 237.922 34.8563 236.778 32.654C235.633 30.4393 235.061 27.8201 235.061 24.7966C235.061 21.8478 235.633 19.2597 236.778 17.0325C237.922 14.8053 239.534 13.0696 241.611 11.8254C243.702 10.5811 246.153 9.95898 248.965 9.95898C250.856 9.95898 252.617 10.2638 254.247 10.8735C255.889 11.4707 257.32 12.3728 258.539 13.5797C259.771 14.7867 260.729 16.3046 261.414 18.1337C262.098 19.9503 262.44 22.0779 262.44 24.5167V26.7003H238.233V21.7731H254.956C254.956 20.6284 254.707 19.6143 254.21 18.7309C253.712 17.8475 253.021 17.1569 252.138 16.6593C251.267 16.1491 250.253 15.894 249.096 15.894C247.889 15.894 246.819 16.174 245.885 16.7339C244.965 17.2814 244.243 18.0217 243.72 18.9549C243.198 19.8756 242.93 20.9021 242.918 22.0344V26.719C242.918 28.1374 243.179 29.363 243.702 30.3957C244.237 31.4285 244.99 32.2248 245.96 32.7847C246.931 33.3446 248.082 33.6245 249.413 33.6245C250.296 33.6245 251.105 33.5001 251.839 33.2513C252.573 33.0024 253.202 32.6291 253.724 32.1315C254.247 31.6338 254.645 31.0241 254.919 30.3024L262.272 30.7877C261.899 32.5545 261.134 34.0974 259.977 35.4163C258.832 36.7227 257.351 37.743 255.535 38.4771C253.73 39.1988 251.646 39.5596 249.282 39.5596Z" fill="#F10989"/>
<path d="M216.047 38.9999V10.3325H223.755V15.3343H224.054C224.576 13.5551 225.453 12.2113 226.685 11.303C227.917 10.3822 229.335 9.92188 230.941 9.92188C231.339 9.92188 231.768 9.94676 232.228 9.99653C232.689 10.0463 233.093 10.1147 233.441 10.2018V17.2567C233.068 17.1447 232.552 17.0452 231.892 16.9581C231.233 16.871 230.629 16.8274 230.082 16.8274C228.912 16.8274 227.867 17.0825 226.946 17.5927C226.038 18.0904 225.317 18.7871 224.781 19.683C224.259 20.5788 223.998 21.6116 223.998 22.7812V38.9999H216.047Z" fill="#F10989"/>
<path d="M210.867 10.3331V16.3055H193.604V10.3331H210.867ZM197.523 3.46484H205.474V30.1913C205.474 30.9254 205.586 31.4977 205.81 31.9083C206.034 32.3065 206.345 32.5864 206.743 32.7482C207.153 32.9099 207.626 32.9908 208.161 32.9908C208.534 32.9908 208.908 32.9597 209.281 32.8975C209.654 32.8228 209.94 32.7668 210.14 32.7295L211.39 38.6459C210.992 38.7703 210.432 38.9134 209.71 39.0752C208.989 39.2494 208.111 39.3551 207.079 39.3925C205.163 39.4671 203.483 39.212 202.04 38.6272C200.609 38.0424 199.495 37.1341 198.699 35.9023C197.902 34.6705 197.51 33.1152 197.523 31.2364V3.46484Z" fill="#F10989"/>
<path d="M189.959 18.507L182.68 18.9549C182.556 18.3328 182.288 17.7729 181.878 17.2752C181.467 16.765 180.926 16.3606 180.254 16.062C179.595 15.7509 178.805 15.5954 177.884 15.5954C176.652 15.5954 175.613 15.8567 174.767 16.3793C173.921 16.8894 173.498 17.5738 173.498 18.4323C173.498 19.1166 173.772 19.6952 174.319 20.168C174.867 20.6408 175.806 21.0203 177.137 21.3065L182.326 22.3517C185.113 22.924 187.191 23.8448 188.559 25.1139C189.928 26.383 190.612 28.0503 190.612 30.1158C190.612 31.9946 190.059 33.6432 188.951 35.0617C187.856 36.4801 186.351 37.5875 184.435 38.3838C182.531 39.1677 180.335 39.5596 177.846 39.5596C174.052 39.5596 171.028 38.7695 168.776 37.1893C166.536 35.5967 165.224 33.4317 164.838 30.6943L172.658 30.2837C172.894 31.4409 173.467 32.3243 174.375 32.934C175.283 33.5312 176.447 33.8298 177.865 33.8298C179.259 33.8298 180.379 33.5623 181.225 33.0273C182.083 32.4798 182.519 31.7768 182.531 30.9183C182.519 30.1966 182.214 29.6056 181.617 29.1453C181.019 28.6724 180.099 28.3116 178.854 28.0628L173.89 27.0736C171.09 26.5137 169.006 25.5432 167.637 24.1621C166.281 22.7809 165.603 21.0203 165.603 18.8802C165.603 17.0387 166.101 15.4523 167.096 14.121C168.104 12.7896 169.516 11.7631 171.333 11.0415C173.162 10.3198 175.302 9.95898 177.753 9.95898C181.374 9.95898 184.223 10.7242 186.301 12.2546C188.391 13.785 189.611 15.8692 189.959 18.507Z" fill="#F10989"/>
<path d="M136.263 0.777344L143.971 13.8046H144.27L152.015 0.777344H161.142L149.477 19.889L161.403 39.0006H152.108L144.27 25.9547H143.971L136.132 39.0006H126.875L138.838 19.889L127.099 0.777344H136.263Z" fill="#F10989"/>
<path d="M102.819 11.7694C102.669 10.2639 102.029 9.09428 100.896 8.26063C99.7641 7.42699 98.2275 7.01016 96.2864 7.01016C94.9675 7.01016 93.8539 7.1968 92.9456 7.57008C92.0373 7.93091 91.3406 8.43483 90.8553 9.08183C90.3825 9.72884 90.1461 10.4629 90.1461 11.2842C90.1212 11.9685 90.2643 12.5657 90.5753 13.0759C90.8989 13.586 91.3406 14.0277 91.9005 14.401C92.4604 14.7618 93.1074 15.0791 93.8415 15.3528C94.5756 15.6141 95.3595 15.8381 96.1931 16.0247L99.6272 16.8459C101.295 17.2192 102.825 17.7169 104.219 18.339C105.612 18.9612 106.819 19.7264 107.839 20.6347C108.86 21.543 109.65 22.613 110.21 23.8448C110.782 25.0766 111.074 26.4888 111.087 28.0815C111.074 30.4207 110.477 32.4488 109.295 34.1658C108.125 35.8705 106.433 37.1956 104.219 38.1412C102.016 39.0744 99.3597 39.541 96.2491 39.541C93.1634 39.541 90.4758 39.0682 88.1864 38.1225C85.9094 37.1769 84.1302 35.7771 82.8486 33.9232C81.5794 32.0568 80.9138 29.7488 80.8516 26.999H88.6717C88.7588 28.2806 89.1258 29.3506 89.7728 30.2091C90.4323 31.0552 91.3095 31.696 92.4044 32.1315C93.5118 32.5545 94.7622 32.7661 96.1558 32.7661C97.5245 32.7661 98.7127 32.567 99.7206 32.1688C100.741 31.7707 101.531 31.217 102.091 30.5078C102.651 29.7985 102.931 28.9836 102.931 28.0628C102.931 27.2043 102.676 26.4826 102.166 25.8978C101.668 25.313 100.934 24.8153 99.9632 24.4047C99.0051 23.9941 97.8293 23.6209 96.4357 23.2849L92.2737 22.2397C89.0511 21.4559 86.5067 20.2303 84.6403 18.563C82.7739 16.8957 81.847 14.6498 81.8594 11.8254C81.847 9.5111 82.4629 7.4892 83.7071 5.7597C84.9638 4.0302 86.6871 2.68019 88.877 1.70967C91.0668 0.739162 93.5553 0.253906 96.3424 0.253906C99.1793 0.253906 101.655 0.739162 103.771 1.70967C105.898 2.68019 107.553 4.0302 108.735 5.7597C109.917 7.4892 110.527 9.49244 110.564 11.7694H102.819Z" fill="white"/>
<path d="M36.5912 39.0006L25.6543 0.777344H34.4822L40.8092 27.3358H41.1265L48.1067 0.777344H55.6655L62.6271 27.3918H62.963L69.29 0.777344H78.1179L67.181 39.0006H59.3049L52.0261 14.0099H51.7275L44.4673 39.0006H36.5912Z" fill="white"/>
<path d="M0.322266 39.0006V0.777344H8.40364V32.3376H24.7904V39.0006H0.322266Z" fill="white"/>
</svg>
