<svg width="97" height="26" viewBox="0 0 97 26" fill="none" xmlns="http://www.w3.org/2000/svg">
<path d="M5.20476 23C4.94143 23 4.72198 22.9067 4.54643 22.7202L1.25478 19.4286C1.06825 19.253 0.97499 19.0336 0.97499 18.7702V5.27447C0.97499 5.02211 1.06825 4.80266 1.25478 4.61614L4.54643 1.32449C4.72198 1.14893 4.94143 1.06115 5.20476 1.06115H11.8374C12.0898 1.06115 12.3092 1.14893 12.4958 1.32449L15.7874 4.61614C15.9739 4.80266 16.0672 5.02211 16.0672 5.27447V18.7702C16.0672 19.0336 15.9739 19.253 15.7874 19.4286L12.4958 22.7202C12.3092 22.9067 12.0898 23 11.8374 23H5.20476ZM6.94933 25.7485C6.67503 25.7485 6.53788 25.6114 6.53788 25.3371V23H10.7347L11.4589 25.1067C11.5138 25.2712 11.4863 25.4194 11.3766 25.551C11.2779 25.6827 11.1462 25.7485 10.9816 25.7485H6.94933ZM7.36079 18.6056H9.66494C10.1258 18.6056 10.3562 18.2984 10.3562 17.684V6.37717C10.3562 5.75176 10.1258 5.43905 9.66494 5.43905H7.36079C6.91093 5.43905 6.686 5.75176 6.686 6.37717V17.684C6.686 18.2984 6.91093 18.6056 7.36079 18.6056ZM24.2346 23C23.9713 23 23.7518 22.9067 23.5763 22.7202L20.2846 19.4286C20.0981 19.253 20.0048 19.0336 20.0048 18.7702V5.30738C20.0048 5.03308 20.142 4.89593 20.4163 4.89593H24.8106C25.085 4.89593 25.2221 5.03308 25.2221 5.30738V18.1119C25.2221 18.6276 25.4745 18.8854 25.9792 18.8854H28.234V5.30738C28.234 5.03308 28.3711 4.89593 28.6454 4.89593H33.0398C33.3141 4.89593 33.4512 5.03308 33.4512 5.30738V22.5885C33.4512 22.8628 33.3141 23 33.0398 23H24.2346ZM37.7103 23C37.436 23 37.2989 22.8628 37.2989 22.5885V5.30738C37.2989 5.03308 37.436 4.89593 37.7103 4.89593H42.0882C42.3625 4.89593 42.4997 5.03308 42.4997 5.30738V22.5885C42.4997 22.8628 42.3625 23 42.0882 23H37.7103ZM37.628 3.52989C37.4086 3.52989 37.2989 3.42017 37.2989 3.20073V1.11053C37.2989 0.891086 37.4086 0.781365 37.628 0.781365H42.2034C42.4009 0.781365 42.4997 0.891086 42.4997 1.11053V3.20073C42.4997 3.42017 42.4009 3.52989 42.2034 3.52989H37.628ZM47.9281 23C47.7525 23 47.6099 22.9781 47.5001 22.9342C47.4014 22.8903 47.3246 22.819 47.2697 22.7202L45.3441 19.4286C45.2124 19.1872 45.1466 19.0061 45.1466 18.8854C45.1466 18.7099 45.2124 18.5179 45.3441 18.3094L50.6108 10.0144V9.01049H45.2618C44.9875 9.01049 44.8504 8.87334 44.8504 8.59903V5.30738C44.8504 5.03308 44.9875 4.89593 45.2618 4.89593H53.3593C53.5348 4.89593 53.672 4.91787 53.7707 4.96176C53.8805 5.00565 53.9627 5.07697 54.0176 5.17572L55.9268 8.46737C55.9816 8.55514 56.0255 8.64841 56.0584 8.74716C56.1023 8.84591 56.1243 8.94466 56.1243 9.0434C56.1243 9.22993 56.042 9.44938 55.8774 9.70174L50.5778 17.9144V18.8854H56.0091C56.2834 18.8854 56.4205 19.0226 56.4205 19.2969V22.5885C56.4205 22.8628 56.2834 23 56.0091 23H47.9281ZM60.4968 23C60.3212 23 60.1786 22.9781 60.0688 22.9342C59.9701 22.8903 59.8933 22.819 59.8384 22.7202L57.9128 19.4286C57.7811 19.1872 57.7153 19.0061 57.7153 18.8854C57.7153 18.7099 57.7811 18.5179 57.9128 18.3094L63.1795 10.0144V9.01049H57.8305C57.5562 9.01049 57.4191 8.87334 57.4191 8.59903V5.30738C57.4191 5.03308 57.5562 4.89593 57.8305 4.89593H65.928C66.1035 4.89593 66.2407 4.91787 66.3394 4.96176C66.4492 5.00565 66.5314 5.07697 66.5863 5.17572L68.4955 8.46737C68.5503 8.55514 68.5942 8.64841 68.6271 8.74716C68.671 8.84591 68.693 8.94466 68.693 9.0434C68.693 9.22993 68.6107 9.44938 68.4461 9.70174L63.1465 17.9144V18.8854H68.5778C68.8521 18.8854 68.9892 19.0226 68.9892 19.2969V22.5885C68.9892 22.8628 68.8521 23 68.5778 23H60.4968ZM78.8423 23C78.7326 23 78.6119 22.9835 78.4802 22.9506C78.3595 22.9177 78.2443 22.8903 78.1346 22.8683L75.205 22.1442L71.8475 21.025C71.5184 20.9153 71.3538 20.5971 71.3538 20.0704V9.1257C71.3538 8.86236 71.4471 8.64292 71.6336 8.46737L74.9252 5.17572C75.1118 4.98919 75.3312 4.89593 75.5836 4.89593H80.8502C81.1026 4.89593 81.322 4.98919 81.5085 5.17572L84.8002 8.46737C84.9867 8.64292 85.08 8.86236 85.08 9.1257V15.8736H76.2419L76.1267 18.0625L78.4638 18.8361L82.6606 19.1323C82.8471 19.1652 82.9404 19.2914 82.9404 19.5109V22.5885C82.9404 22.8628 82.8033 23 82.529 23H78.8423ZM78.184 13.2896H78.4967C79.0343 13.2896 79.4622 13.0866 79.7804 12.6807C80.1096 12.2747 80.2742 11.7261 80.2742 11.0349V10.7057C80.2742 10.0254 80.1096 9.48229 79.7804 9.07632C79.4622 8.67035 79.0343 8.46737 78.4967 8.46737H78.1675C77.6409 8.46737 77.2184 8.67035 76.9002 9.07632C76.593 9.48229 76.4394 10.0254 76.4394 10.7057V11.0349C76.4394 11.7261 76.593 12.2747 76.9002 12.6807C77.2184 13.0866 77.6463 13.2896 78.184 13.2896ZM88.4071 23C88.1328 23 87.9957 22.8628 87.9957 22.5885V19.9223C87.9957 19.6699 88.078 19.5054 88.2425 19.4286L91.6 17.4371V15.7255L88.2425 13.915C88.078 13.8163 87.9957 13.6462 87.9957 13.4048V8.15466C87.9957 8.03397 88.0121 7.93522 88.045 7.85841C88.0889 7.78161 88.1493 7.71577 88.2261 7.66091L91.7317 5.09343C91.8524 5.00565 91.9511 4.95079 92.0279 4.92884C92.1047 4.9069 92.1815 4.89593 92.2583 4.89593H96.2577C96.532 4.89593 96.6692 5.03308 96.6692 5.30738V7.89133C96.6692 8.07785 96.6527 8.20403 96.6198 8.26987C96.5978 8.3357 96.543 8.39056 96.4552 8.43445L93.3446 10.1132V12.0223L96.6692 13.6682C96.8557 13.745 96.9489 13.9096 96.9489 14.1619V19.2146C96.9489 19.4889 96.8557 19.7084 96.6692 19.8729L93.1636 22.786C92.988 22.9287 92.7686 23 92.5052 23H88.4071Z" fill="white"/>
</svg>
