<svg width="170" height="55" viewBox="0 0 170 55" fill="none" xmlns="http://www.w3.org/2000/svg">
<g clip-path="url(#clip0_89_376)">
<path d="M27.7997 53.5079C42.2739 53.5079 54.0076 41.7742 54.0076 27.3C54.0076 12.8257 42.2739 1.09204 27.7997 1.09204C13.3255 1.09204 1.5918 12.8257 1.5918 27.3C1.5918 41.7742 13.3255 53.5079 27.7997 53.5079Z" fill="#171C2A"/>
<path d="M27.7999 54.5998C22.4005 54.5998 17.1223 52.9987 12.6329 49.999C8.14346 46.9992 4.64436 42.7355 2.57809 37.7471C0.511829 32.7587 -0.0288005 27.2696 1.02457 21.974C2.07794 16.6783 4.67801 11.8139 8.49597 7.99597C12.3139 4.17801 17.1783 1.57794 22.474 0.524572C27.7696 -0.5288 33.2587 0.0118286 38.2471 2.07809C43.2355 4.14436 47.4992 7.64346 50.499 12.1329C53.4987 16.6223 55.0998 21.9005 55.0998 27.2999C55.0911 34.5376 52.2121 41.4764 47.0943 46.5943C41.9764 51.7121 35.0376 54.5911 27.7999 54.5998ZM27.7999 2.184C22.8325 2.184 17.9766 3.65703 13.8463 6.4168C9.71597 9.17657 6.4968 13.0991 4.59584 17.6885C2.69488 22.2778 2.1975 27.3278 3.1666 32.1998C4.1357 37.0718 6.52776 41.547 10.0403 45.0595C13.5528 48.5721 18.028 50.9641 22.9 51.9332C27.7721 52.9023 32.822 52.405 37.4114 50.504C42.0007 48.603 45.9233 45.3839 48.683 41.2536C51.4428 37.1233 52.9158 32.2674 52.9158 27.2999C52.9072 20.6414 50.2582 14.2581 45.55 9.54986C40.8417 4.84159 34.4584 2.19267 27.7999 2.184Z" fill="#00D991"/>
<path d="M21.3419 29.3479L21.1837 29.5063C21.1027 29.5873 21.1028 29.7187 21.1839 29.7997L23.56 32.1724C23.641 32.2534 23.7724 32.2533 23.8534 32.1722L24.0116 32.0138C24.0925 31.9327 24.0924 31.8014 24.0114 31.7204L21.6353 29.3477C21.5542 29.2667 21.4229 29.2668 21.3419 29.3479Z" fill="white"/>
<path d="M21.3939 28.1291L21.2356 28.2874C21.1546 28.3684 21.1546 28.4998 21.2356 28.5808L23.1969 30.5421C23.2779 30.6231 23.4093 30.6231 23.4903 30.5421L23.6486 30.3838C23.7296 30.3028 23.7296 30.1714 23.6486 30.0904L21.6873 28.1291C21.6063 28.0481 21.4749 28.0481 21.3939 28.1291Z" fill="white"/>
<path d="M34.7608 29.354L34.6027 29.5124C34.5217 29.5935 34.5218 29.7248 34.6029 29.8058L36.9789 32.1785C37.06 32.2595 37.1914 32.2594 37.2723 32.1783L37.4305 32.0199C37.5115 31.9388 37.5114 31.8075 37.4303 31.7265L35.0543 29.3538C34.9732 29.2728 34.8418 29.2729 34.7608 29.354Z" fill="white"/>
<path d="M34.7965 28.1301L34.638 28.2882C34.557 28.3692 34.5568 28.5006 34.6378 28.5817L36.5974 30.5446C36.6783 30.6257 36.8097 30.6259 36.8908 30.5449L37.0492 30.3867C37.1303 30.3058 37.1304 30.1744 37.0495 30.0933L35.0899 28.1303C35.0089 28.0492 34.8776 28.0491 34.7965 28.1301Z" fill="white"/>
<path fill-rule="evenodd" clip-rule="evenodd" d="M40.3573 30.8218H39.8113C39.6564 29.5291 39.0368 28.3367 38.0681 27.4669C37.0993 26.5971 35.8474 26.109 34.5456 26.0936C33.2437 26.0783 31.9806 26.5367 30.9916 27.3834C30.0026 28.2301 29.3552 29.4075 29.1698 30.6962C28.8804 30.7617 27.7502 30.8218 27.7502 30.8218C27.7502 30.8218 26.6582 30.7672 26.3906 30.7071C26.2065 29.4183 25.5602 28.2404 24.572 27.3928C23.5839 26.5451 22.3214 26.0855 21.0196 26.0995C19.7178 26.1135 18.4655 26.6003 17.4959 27.469C16.5263 28.3378 15.9055 29.5293 15.7491 30.8218H15.1376C15.0276 30.8218 14.922 30.8655 14.8442 30.9433C14.7664 31.0211 14.7227 31.1267 14.7227 31.2367V31.6681C14.7241 31.7762 14.7677 31.8796 14.8442 31.9561C14.9207 32.0326 15.024 32.0762 15.1322 32.0776H15.7218C15.8753 33.3705 16.4936 34.5636 17.4615 35.4346C18.4293 36.3055 19.6808 36.7949 20.9827 36.8116C22.2847 36.8283 23.5483 36.3712 24.5382 35.5253C25.5281 34.6795 26.1767 33.5027 26.3633 32.2141C26.6636 32.154 27.7229 32.094 27.7229 32.094C27.7229 32.094 28.8476 32.1649 29.1425 32.225C29.3029 33.5367 29.9416 34.7432 30.9363 35.6133C31.931 36.4833 33.2117 36.9558 34.5331 36.9403C35.8545 36.9247 37.1238 36.4222 38.0977 35.529C39.0716 34.6357 39.6818 33.4146 39.8113 32.0994H40.3573C40.4655 32.0995 40.5694 32.0572 40.6469 31.9818C40.7244 31.9063 40.7694 31.8035 40.7722 31.6954V31.2422C40.7722 31.1321 40.7285 31.0266 40.6507 30.9488C40.5729 30.871 40.4673 30.8272 40.3573 30.8272V30.8218ZM21.0508 35.5501C20.2419 35.5501 19.4513 35.3103 18.7788 34.8609C18.1062 34.4115 17.5821 33.7729 17.2725 33.0256C16.963 32.2783 16.882 31.4561 17.0398 30.6628C17.1976 29.8695 17.5871 29.1408 18.159 28.5689C18.731 27.9969 19.4597 27.6074 20.2529 27.4496C21.0462 27.2919 21.8685 27.3728 22.6158 27.6824C23.363 27.9919 24.0017 28.5161 24.4511 29.1886C24.9005 29.8611 25.1403 30.6518 25.1403 31.4606C25.1403 32.5452 24.7094 33.5854 23.9425 34.3523C23.1756 35.1193 22.1354 35.5501 21.0508 35.5501ZM34.455 35.5501C33.6462 35.5501 32.8555 35.3103 32.183 34.8609C31.5105 34.4115 30.9863 33.7729 30.6768 33.0256C30.3673 32.2783 30.2863 31.4561 30.4441 30.6628C30.6019 29.8695 30.9914 29.1408 31.5633 28.5689C32.1352 27.9969 32.8639 27.6074 33.6572 27.4496C34.4505 27.2919 35.2728 27.3728 36.02 27.6824C36.7673 27.9919 37.406 28.5161 37.8553 29.1886C38.3047 29.8611 38.5446 30.6518 38.5446 31.4606C38.5446 32.5452 38.1137 33.5854 37.3468 34.3523C36.5798 35.1193 35.5396 35.5501 34.455 35.5501Z" fill="white"/>
<path d="M45.0409 29.2766V19.7271H41.683C41.8794 18.6775 42.0053 17.6158 42.0598 16.5494L40.0832 18.0181C41.1752 16.7569 40.0832 10.8765 40.0832 10.8765C40.0832 10.8765 38.6418 13.7047 29.6547 12.984C20.6675 12.2633 19.4063 15.8341 19.4063 15.8341C18.3143 14.7421 19.4063 12.9567 19.4063 12.9567C19.0807 13.1072 18.7879 13.3203 18.5447 13.584C18.3015 13.8476 18.1126 14.1567 17.9889 14.4933C17.8651 14.83 17.809 15.1878 17.8236 15.5462C17.8382 15.9046 17.9233 16.2566 18.0741 16.5821L18.1505 16.7296H15.2403L17.2496 18.0181C16.6164 18.4382 16.1298 19.0451 15.8573 19.7544H10.4519V29.2766L8.48633 31.2422L10.4519 33.2078L10.9979 42.7573H16.103L15.557 32.6509C15.5624 32.6174 15.561 32.5833 15.5528 32.5504C15.5446 32.5175 15.5299 32.4866 15.5095 32.4596C15.4891 32.4326 15.4635 32.4099 15.4341 32.3931C15.4047 32.3762 15.3722 32.3655 15.3386 32.3615C15.2721 32.352 15.2045 32.3691 15.1504 32.4089C15.0963 32.4487 15.06 32.5081 15.0492 32.5744C15.0438 32.5996 15.0438 32.6257 15.0492 32.6509V40.404H12.7615V32.5744L11.4183 31.2422L12.756 29.91V22.0803H15.3004C15.2403 22.6717 15.2293 23.2671 15.2676 23.8603H17.064C17.1639 22.7698 17.6849 21.7611 18.5163 21.0484C21.5739 17.2701 34.5195 19.4759 34.5195 19.4759L35.9555 17.3575L35.4095 19.4759C38.4562 20.2021 38.7182 23.7948 38.7182 23.7948H40.0832C40.4936 23.2796 40.8164 22.7004 41.0387 22.0803H42.7313V29.91L44.069 31.2422L42.7313 32.5744V40.404H39.9358L40.4818 42.7573H45.5869L45.0409 33.2078L47.0065 31.2422L45.0409 29.2766Z" fill="white"/>
<path d="M70.9449 20.6277H75.3402V22.7462H68.2422V9.40747H70.9176L70.9449 20.6277Z" fill="white"/>
<path d="M86.8058 18.2582H79.0636C79.091 18.9377 79.3783 19.5807 79.8662 20.0545C80.3405 20.4888 80.965 20.7218 81.6079 20.7042C82.0494 20.73 82.4883 20.6211 82.8666 20.392C83.2449 20.1629 83.5447 19.8244 83.7264 19.4211H86.6038C86.3063 20.4272 85.6891 21.3089 84.8457 21.9327C83.9335 22.6063 82.8234 22.9578 81.6898 22.9319C80.7361 22.9448 79.7953 22.7096 78.9598 22.2494C78.1575 21.8056 77.4998 21.1404 77.0652 20.333C76.5879 19.4554 76.3417 18.4709 76.35 17.4719C76.3289 16.4682 76.5598 15.4751 77.0215 14.5836C77.4449 13.7768 78.0962 13.1122 78.8943 12.6726C79.7526 12.2124 80.7163 11.9847 81.6898 12.012C82.6406 11.99 83.5809 12.2138 84.4198 12.6617C85.2047 13.081 85.85 13.7205 86.2762 14.5017C86.7236 15.3413 86.9509 16.2805 86.9369 17.2317C86.9203 17.5768 86.8765 17.92 86.8058 18.2582ZM84.1086 16.4618C84.1118 16.1512 84.047 15.8436 83.9187 15.5606C83.7904 15.2776 83.6018 15.0262 83.366 14.8238C82.87 14.403 82.2364 14.1795 81.5861 14.1959C80.9735 14.1793 80.3771 14.3937 79.9153 14.7965C79.4432 15.2351 79.148 15.8314 79.0854 16.4728L84.1086 16.4618Z" fill="white"/>
<path d="M88.7879 14.5671C89.1762 13.78 89.7778 13.1179 90.5242 12.6561C91.2644 12.2078 92.1159 11.9769 92.9811 11.99C93.7013 11.9748 94.4141 12.138 95.0559 12.465C95.6142 12.7549 96.0995 13.1674 96.4755 13.6717V12.1592H99.1618V22.7461H96.4646V21.201C96.0965 21.7181 95.6096 22.1394 95.045 22.4295C94.3981 22.7657 93.6773 22.9346 92.9484 22.9209C92.0876 22.9292 91.2424 22.6905 90.5132 22.2329C89.7708 21.7554 89.174 21.083 88.7879 20.2892C88.3464 19.3972 88.1255 18.4123 88.1436 17.4172C88.1266 16.4292 88.3476 15.4517 88.7879 14.5671ZM96.0933 15.7792C95.861 15.3239 95.5028 14.9449 95.0614 14.6872C94.6382 14.4427 94.1578 14.3146 93.6691 14.3159C93.1775 14.312 92.6943 14.4427 92.2717 14.6939C91.8492 14.9451 91.5035 15.3072 91.2722 15.741C91.002 16.2439 90.8666 16.8082 90.8791 17.379C90.8666 17.9602 91.0018 18.5351 91.2722 19.0497C91.5096 19.5014 91.8666 19.8792 92.3041 20.1417C92.7148 20.3934 93.1874 20.5258 93.6691 20.5239C94.1578 20.5253 94.6382 20.3972 95.0614 20.1527C95.5028 19.8949 95.861 19.5159 96.0933 19.0607C96.3613 18.5455 96.4928 17.9703 96.4755 17.3899C96.4795 16.8294 96.3464 16.2765 96.0879 15.7792H96.0933Z" fill="white"/>
<path d="M105.806 12.487C106.385 12.16 107.041 11.9941 107.706 12.0065V14.8184H107.002C106.317 14.769 105.639 14.9795 105.102 15.4081C104.671 15.8012 104.463 16.5001 104.463 17.4719V22.7463H101.782V12.1594H104.463V13.7974C104.79 13.2522 105.253 12.8008 105.806 12.487Z" fill="white"/>
<path d="M118.43 13.2023C118.835 13.6535 119.147 14.1808 119.346 14.7535C119.546 15.3262 119.63 15.9329 119.593 16.5383V22.7463H116.918V16.926C116.966 16.223 116.741 15.5285 116.29 14.9877C116.068 14.7583 115.8 14.5792 115.503 14.4624C115.207 14.3456 114.888 14.2938 114.57 14.3106C114.247 14.2883 113.924 14.3347 113.621 14.4467C113.318 14.5587 113.042 14.7338 112.812 14.9604C112.582 15.2303 112.408 15.5429 112.299 15.8802C112.191 16.2174 112.15 16.5728 112.178 16.926V22.7463H109.503V12.1594H112.178V13.4807C112.542 13.013 113.012 12.6387 113.549 12.3887C114.12 12.1228 114.743 11.9884 115.372 11.9956C115.938 11.9733 116.502 12.069 117.028 12.2768C117.555 12.4846 118.032 12.7997 118.43 13.2023Z" fill="white"/>
<path d="M82.9398 32.9073L79.844 43.4942H76.9611L75.0283 36.1014L73.1009 43.4942H70.2235L67.1113 32.9073H69.8413L71.665 40.9499L73.6961 32.8855H76.5243L78.5063 40.9499L80.3845 32.9073H82.9398Z" fill="white"/>
<path d="M84.5777 31.1983C84.4288 31.0524 84.3105 30.8782 84.2298 30.686C84.149 30.4938 84.1074 30.2874 84.1074 30.079C84.1074 29.8705 84.149 29.6641 84.2298 29.4719C84.3105 29.2797 84.4288 29.1056 84.5777 28.9597C84.9009 28.6715 85.3187 28.5122 85.7516 28.5122C86.1846 28.5122 86.6024 28.6715 86.9255 28.9597C87.0745 29.1056 87.1928 29.2797 87.2735 29.4719C87.3543 29.6641 87.3959 29.8705 87.3959 30.079C87.3959 30.2874 87.3543 30.4938 87.2735 30.686C87.1928 30.8782 87.0745 31.0524 86.9255 31.1983C86.6024 31.4864 86.1846 31.6457 85.7516 31.6457C85.3187 31.6457 84.9009 31.4864 84.5777 31.1983ZM87.073 32.9072V43.4941H84.4194V32.9072H87.073Z" fill="white"/>
<path d="M92.8227 35.1022V40.2237C92.8099 40.3636 92.826 40.5047 92.8702 40.6381C92.9143 40.7715 92.9855 40.8944 93.0794 40.999C93.33 41.1818 93.6386 41.2672 93.9475 41.2393H95.1924V43.4942H93.5107C91.2575 43.4942 90.1292 42.4022 90.1255 40.2182V35.1022H88.8643V32.9182H90.1255V30.292H92.8227V32.9073H95.1924V35.0913L92.8227 35.1022Z" fill="white"/>
<path d="M105.223 33.3058C105.856 33.6627 106.366 34.2034 106.686 34.8564C107.061 35.6202 107.249 36.4626 107.232 37.3134V43.4941H104.557V37.6738C104.605 36.9709 104.38 36.2764 103.929 35.7355C103.707 35.5061 103.439 35.327 103.142 35.2102C102.846 35.0934 102.527 35.0416 102.209 35.0585C101.886 35.0412 101.564 35.0927 101.263 35.2094C100.961 35.3261 100.688 35.5054 100.462 35.7355C99.9952 36.2696 99.7578 36.966 99.801 37.6738V43.4941H97.1201V29.3528H99.801V34.2285C100.156 33.7523 100.628 33.3761 101.171 33.1366C101.772 32.8688 102.424 32.7347 103.082 32.7434C103.833 32.7411 104.571 32.9349 105.223 33.3058Z" fill="white"/>
<path d="M116.393 43.1339C115.688 42.8467 115.076 42.3706 114.624 41.758C114.185 41.1374 113.952 40.3943 113.958 39.634H116.825C116.828 39.8815 116.881 40.1258 116.981 40.352C117.082 40.5783 117.227 40.7817 117.409 40.9499C117.81 41.2895 118.326 41.4616 118.85 41.4304C119.378 41.4638 119.9 41.3047 120.319 40.9826C120.495 40.8425 120.635 40.6636 120.73 40.4599C120.825 40.2562 120.871 40.0333 120.865 39.8088C120.879 39.4481 120.749 39.0967 120.505 38.8314C120.249 38.5692 119.94 38.3644 119.598 38.2308C119.107 38.0411 118.605 37.8771 118.097 37.7394C117.375 37.541 116.668 37.2891 115.984 36.9859C115.434 36.7319 114.955 36.3454 114.591 35.8612C114.172 35.278 113.962 34.5697 113.996 33.8519C113.979 33.1201 114.185 32.4003 114.586 31.788C114.998 31.1863 115.577 30.7177 116.251 30.4394C117.025 30.1149 117.858 29.955 118.697 29.9699C119.897 29.9139 121.079 30.2682 122.05 30.9745C122.479 31.308 122.829 31.7319 123.075 32.216C123.321 32.7001 123.458 33.2326 123.475 33.7755H120.532C120.523 33.5544 120.466 33.3379 120.365 33.141C120.264 32.944 120.122 32.7712 119.948 32.6343C119.536 32.3185 119.025 32.1598 118.506 32.1866C118.054 32.1638 117.609 32.3076 117.256 32.5907C117.095 32.7364 116.969 32.9167 116.887 33.1182C116.806 33.3196 116.772 33.5369 116.786 33.7536C116.781 33.9184 116.81 34.0826 116.871 34.2357C116.932 34.3889 117.024 34.5277 117.141 34.6436C117.396 34.8812 117.695 35.0667 118.02 35.1896C118.505 35.3841 118.998 35.5536 119.5 35.6974C120.224 35.8983 120.933 36.1539 121.618 36.4618C122.178 36.7201 122.664 37.1143 123.033 37.6084C123.453 38.1891 123.663 38.896 123.628 39.6122C123.635 40.3126 123.445 41.001 123.082 41.5996C122.686 42.2333 122.118 42.7409 121.444 43.0629C120.65 43.4427 119.779 43.6298 118.899 43.6089C118.041 43.6209 117.188 43.4594 116.393 43.1339Z" fill="white"/>
<path d="M135.934 32.9072V43.4941H133.237V42.1564C132.886 42.6257 132.425 43.0009 131.894 43.2484C131.328 43.5127 130.711 43.647 130.086 43.6416C129.324 43.6471 128.572 43.4592 127.902 43.0956C127.261 42.7407 126.74 42.2027 126.406 41.5504C126.025 40.7966 125.837 39.9597 125.86 39.1152V32.9072H128.536V38.7658C128.487 39.4687 128.712 40.1632 129.164 40.7041C129.385 40.9335 129.653 41.1126 129.95 41.2294C130.247 41.3462 130.565 41.3979 130.883 41.3811C131.205 41.3993 131.527 41.3483 131.828 41.2315C132.128 41.1147 132.4 40.9349 132.625 40.7041C133.071 40.1608 133.29 39.4665 133.237 38.7658V32.9072H135.934Z" fill="white"/>
<path d="M154.854 33.9502C155.267 34.3975 155.585 34.9235 155.789 35.4968C155.994 36.07 156.081 36.6787 156.044 37.2862V43.4942H153.369V37.6739C153.418 36.9826 153.192 36.2998 152.741 35.7738C152.52 35.5456 152.254 35.3664 151.96 35.2478C151.665 35.1293 151.349 35.0741 151.032 35.0858C150.713 35.0695 150.395 35.1199 150.097 35.2336C149.799 35.3474 149.528 35.5221 149.301 35.7465C149.072 36.009 148.897 36.3147 148.787 36.6457C148.677 36.9767 148.635 37.3263 148.662 37.6739V43.4942H145.987V37.6739C146.034 36.9819 145.806 36.2992 145.354 35.7738C145.129 35.5491 144.86 35.3741 144.564 35.2603C144.268 35.1465 143.951 35.0963 143.634 35.1131C143.313 35.0959 142.991 35.1457 142.69 35.2594C142.39 35.3732 142.116 35.5484 141.886 35.7738C141.66 36.0329 141.487 36.3342 141.378 36.6602C141.268 36.9863 141.224 37.3307 141.248 37.6739V43.4942H138.572V32.9073H141.248V34.1904C141.599 33.7378 142.054 33.3764 142.574 33.1366C143.133 32.8768 143.744 32.7462 144.36 32.7544C145.133 32.7474 145.895 32.9352 146.577 33.3004C147.218 33.6405 147.744 34.163 148.089 34.8019C148.437 34.1702 148.958 33.6511 149.591 33.3059C150.426 32.8534 151.382 32.6724 152.325 32.7878C153.268 32.9033 154.152 33.3095 154.854 33.9502Z" fill="white"/>
<path d="M158.779 31.1983C158.63 31.0524 158.512 30.8783 158.431 30.6861C158.35 30.4939 158.309 30.2875 158.309 30.0791C158.309 29.8706 158.35 29.6642 158.431 29.472C158.512 29.2798 158.63 29.1057 158.779 28.9598C159.103 28.6712 159.522 28.5117 159.956 28.5117C160.389 28.5117 160.808 28.6712 161.132 28.9598C161.429 29.2567 161.596 29.6593 161.596 30.0791C161.596 30.4988 161.429 30.9014 161.132 31.1983C160.808 31.4869 160.389 31.6464 159.956 31.6464C159.522 31.6464 159.103 31.4869 158.779 31.1983ZM161.274 32.9073V43.4942H158.599V32.9073H161.274Z" fill="white"/>
<path d="M167.024 35.1022V40.2237C167.011 40.3641 167.027 40.5058 167.072 40.6394C167.118 40.7731 167.19 40.8956 167.286 40.999C167.536 41.1832 167.845 41.2688 168.155 41.2393H169.394V43.4942H167.712C165.459 43.4942 164.333 42.4022 164.333 40.2182V35.1022H163.071V32.9182H164.333V30.292H167.024V32.9073H169.394V35.0913L167.024 35.1022Z" fill="white"/>
</g>
<defs>
<clipPath id="clip0_89_376">
<rect width="169.057" height="54.5998" fill="white" transform="translate(0.5)"/>
</clipPath>
</defs>
</svg>
