<svg width="170" height="45" viewBox="0 0 170 45" fill="none" xmlns="http://www.w3.org/2000/svg">
<path d="M7.68582 39.561C7.22179 39.561 6.8351 39.3966 6.52574 39.0679L0.725347 33.2675C0.396658 32.9582 0.232313 32.5715 0.232313 32.1075V8.32584C0.232313 7.88114 0.396658 7.49445 0.725347 7.16576L6.52574 1.36537C6.8351 1.05601 7.22179 0.901333 7.68582 0.901333H19.3736C19.8183 0.901333 20.205 1.05601 20.5337 1.36537L26.3341 7.16576C26.6628 7.49445 26.8271 7.88114 26.8271 8.32584V32.1075C26.8271 32.5715 26.6628 32.9582 26.3341 33.2675L20.5337 39.0679C20.205 39.3966 19.8183 39.561 19.3736 39.561H7.68582ZM10.76 44.4043C10.2767 44.4043 10.035 44.1626 10.035 43.6793V39.561H17.4305L18.7066 43.2732C18.8032 43.5632 18.7549 43.8243 18.5616 44.0563C18.3876 44.2883 18.1555 44.4043 17.8655 44.4043H10.76ZM11.4851 31.8174H15.5454C16.3574 31.8174 16.7634 31.2761 16.7634 30.1933V10.269C16.7634 9.1669 16.3574 8.61586 15.5454 8.61586H11.4851C10.6924 8.61586 10.296 9.1669 10.296 10.269V30.1933C10.296 31.2761 10.6924 31.8174 11.4851 31.8174ZM41.2194 39.561C40.7553 39.561 40.3686 39.3966 40.0593 39.0679L34.2589 33.2675C33.9302 32.9582 33.7659 32.5715 33.7659 32.1075V8.38384C33.7659 7.90048 34.0075 7.6588 34.4909 7.6588H42.2344C42.7178 7.6588 42.9595 7.90048 42.9595 8.38384V30.9474C42.9595 31.8561 43.4042 32.3105 44.2936 32.3105H48.2668V8.38384C48.2668 7.90048 48.5085 7.6588 48.9919 7.6588H56.7354C57.2188 7.6588 57.4605 7.90048 57.4605 8.38384V38.8359C57.4605 39.3193 57.2188 39.561 56.7354 39.561H41.2194ZM64.9656 39.561C64.4823 39.561 64.2406 39.3193 64.2406 38.8359V8.38384C64.2406 7.90048 64.4823 7.6588 64.9656 7.6588H72.6802C73.1635 7.6588 73.4052 7.90048 73.4052 8.38384V38.8359C73.4052 39.3193 73.1635 39.561 72.6802 39.561H64.9656ZM64.8206 5.25163C64.4339 5.25163 64.2406 5.05828 64.2406 4.67159V0.98834C64.2406 0.601647 64.4339 0.408301 64.8206 0.408301H72.8832C73.2312 0.408301 73.4052 0.601647 73.4052 0.98834V4.67159C73.4052 5.05828 73.2312 5.25163 72.8832 5.25163H64.8206ZM82.9709 39.561C82.6615 39.561 82.4102 39.5223 82.2168 39.445C82.0428 39.3676 81.9075 39.242 81.8108 39.0679L78.4176 33.2675C78.1856 32.8422 78.0695 32.5232 78.0695 32.3105C78.0695 32.0011 78.1856 31.6628 78.4176 31.2954L87.6982 16.6784V14.9093H78.2726C77.7892 14.9093 77.5475 14.6676 77.5475 14.1842V8.38384C77.5475 7.90048 77.7892 7.6588 78.2726 7.6588H92.5415C92.8509 7.6588 93.0926 7.69746 93.2666 7.7748C93.4599 7.85214 93.6049 7.97782 93.7016 8.15183L97.0658 13.9522C97.1625 14.1069 97.2399 14.2712 97.2979 14.4453C97.3752 14.6193 97.4139 14.7933 97.4139 14.9673C97.4139 15.296 97.2689 15.6827 96.9788 16.1274L87.6402 30.5994V32.3105H97.2109C97.6942 32.3105 97.9359 32.5522 97.9359 33.0355V38.8359C97.9359 39.3193 97.6942 39.561 97.2109 39.561H82.9709ZM105.119 39.561C104.81 39.561 104.558 39.5223 104.365 39.445C104.191 39.3676 104.055 39.242 103.959 39.0679L100.566 33.2675C100.334 32.8422 100.218 32.5232 100.218 32.3105C100.218 32.0011 100.334 31.6628 100.566 31.2954L109.846 16.6784V14.9093H100.421C99.9372 14.9093 99.6955 14.6676 99.6955 14.1842V8.38384C99.6955 7.90048 99.9372 7.6588 100.421 7.6588H114.69C114.999 7.6588 115.241 7.69746 115.415 7.7748C115.608 7.85214 115.753 7.97782 115.85 8.15183L119.214 13.9522C119.311 14.1069 119.388 14.2712 119.446 14.4453C119.523 14.6193 119.562 14.7933 119.562 14.9673C119.562 15.296 119.417 15.6827 119.127 16.1274L109.788 30.5994V32.3105H119.359C119.842 32.3105 120.084 32.5522 120.084 33.0355V38.8359C120.084 39.3193 119.842 39.561 119.359 39.561H105.119ZM137.447 39.561C137.253 39.561 137.041 39.532 136.809 39.474C136.596 39.416 136.393 39.3676 136.199 39.329L131.037 38.0529L125.121 36.0807C124.541 35.8874 124.251 35.3267 124.251 34.3986V15.1123C124.251 14.6483 124.415 14.2616 124.744 13.9522L130.544 8.15183C130.873 7.82314 131.259 7.6588 131.704 7.6588H140.985C141.43 7.6588 141.816 7.82314 142.145 8.15183L147.945 13.9522C148.274 14.2616 148.438 14.6483 148.438 15.1123V27.0031H132.864L132.661 30.8604L136.78 32.2235L144.175 32.7455C144.504 32.8035 144.668 33.0259 144.668 33.4126V38.8359C144.668 39.3193 144.426 39.561 143.943 39.561H137.447ZM136.286 22.4498H136.838C137.785 22.4498 138.539 22.0921 139.1 21.3767C139.68 20.6613 139.97 19.6946 139.97 18.4765V17.8965C139.97 16.6977 139.68 15.7407 139.1 15.0253C138.539 14.3099 137.785 13.9522 136.838 13.9522H136.257C135.329 13.9522 134.585 14.3099 134.024 15.0253C133.483 15.7407 133.212 16.6977 133.212 17.8965V18.4765C133.212 19.6946 133.483 20.6613 134.024 21.3767C134.585 22.0921 135.339 22.4498 136.286 22.4498ZM154.301 39.561C153.818 39.561 153.576 39.3193 153.576 38.8359V34.1376C153.576 33.6929 153.721 33.4029 154.011 33.2675L159.928 29.7583V26.7421L154.011 23.5519C153.721 23.3779 153.576 23.0782 153.576 22.6528V13.4012C153.576 13.1885 153.605 13.0145 153.663 12.8792C153.741 12.7438 153.847 12.6278 153.982 12.5311L160.16 8.00682C160.372 7.85214 160.546 7.75547 160.682 7.7168C160.817 7.67813 160.952 7.6588 161.088 7.6588H168.135C168.619 7.6588 168.86 7.90048 168.86 8.38384V12.9372C168.86 13.2658 168.831 13.4882 168.773 13.6042C168.735 13.7202 168.638 13.8169 168.483 13.8942L163.002 16.8524V20.2167L168.86 23.1169C169.189 23.2522 169.353 23.5422 169.353 23.9869V32.8905C169.353 33.3739 169.189 33.7606 168.86 34.0506L162.683 39.1839C162.373 39.4353 161.987 39.561 161.523 39.561H154.301Z" fill="#7D49F8"/>
</svg>
