<svg width="165" height="54" viewBox="0 0 165 54" fill="none" xmlns="http://www.w3.org/2000/svg">
<g clip-path="url(#clip0_2_1685)">
<path d="M26.6447 52.2236C40.7716 52.2236 52.2236 40.7716 52.2236 26.6447C52.2236 12.5179 40.7716 1.0658 26.6447 1.0658C12.5179 1.0658 1.0658 12.5179 1.0658 26.6447C1.0658 40.7716 12.5179 52.2236 26.6447 52.2236Z" fill="#171C2A"/>
<path d="M26.6447 53.2894C21.3749 53.2894 16.2234 51.7267 11.8417 48.799C7.46001 45.8712 4.04489 41.7099 2.02822 36.8412C0.0115447 31.9725 -0.516109 26.6152 0.511982 21.4466C1.54007 16.278 4.07774 11.5304 7.80406 7.80406C11.5304 4.07774 16.278 1.54007 21.4466 0.511982C26.6152 -0.516109 31.9725 0.0115447 36.8412 2.02822C41.7099 4.04489 45.8712 7.46001 48.799 11.8417C51.7267 16.2234 53.2894 21.3749 53.2894 26.6447C53.281 33.7087 50.471 40.481 45.476 45.476C40.481 50.471 33.7087 53.281 26.6447 53.2894ZM26.6447 2.13159C21.7965 2.13159 17.0571 3.56926 13.026 6.26279C8.99479 8.95633 5.85288 12.7848 3.99754 17.2639C2.1422 21.7431 1.65676 26.6719 2.6026 31.427C3.54845 36.1821 5.88309 40.5499 9.31132 43.9781C12.7395 47.4063 17.1074 49.741 21.8624 50.6868C26.6175 51.6327 31.5463 51.1472 36.0255 49.2919C40.5047 47.4365 44.3331 44.2946 47.0266 40.2635C49.7202 36.2323 51.1578 31.493 51.1578 26.6447C51.1494 20.146 48.564 13.9159 43.9688 9.32066C39.3735 4.72539 33.1434 2.14005 26.6447 2.13159Z" fill="#00D991"/>
<path d="M20.3421 28.6433L20.1877 28.7979C20.1087 28.877 20.1088 29.0052 20.1879 29.0843L22.5069 31.4C22.5861 31.4791 22.7143 31.479 22.7933 31.3998L22.9477 31.2452C23.0267 31.1661 23.0266 31.0379 22.9475 30.9589L20.6285 28.6431C20.5493 28.564 20.4211 28.5641 20.3421 28.6433Z" fill="white"/>
<path d="M20.3928 27.4537L20.2383 27.6082C20.1593 27.6872 20.1593 27.8154 20.2383 27.8945L22.1526 29.8087C22.2316 29.8878 22.3599 29.8878 22.4389 29.8087L22.5934 29.6542C22.6725 29.5752 22.6725 29.447 22.5934 29.3679L20.6792 27.4537C20.6001 27.3746 20.4719 27.3746 20.3928 27.4537Z" fill="white"/>
<path d="M33.4399 28.6494L33.2855 28.804C33.2065 28.8831 33.2065 29.0113 33.2857 29.0904L35.6047 31.4061C35.6838 31.4852 35.8121 31.4851 35.8911 31.4059L36.0455 31.2513C36.1245 31.1722 36.1244 31.044 36.0453 30.965L33.7262 28.6492C33.6471 28.5702 33.5189 28.5702 33.4399 28.6494Z" fill="white"/>
<path d="M33.4745 27.4547L33.3198 27.609C33.2407 27.688 33.2406 27.8162 33.3196 27.8954L35.2321 29.8113C35.3111 29.8904 35.4393 29.8905 35.5185 29.8115L35.6731 29.6572C35.7523 29.5781 35.7524 29.4499 35.6734 29.3708L33.7608 27.4549C33.6818 27.3758 33.5536 27.3756 33.4745 27.4547Z" fill="white"/>
<path fill-rule="evenodd" clip-rule="evenodd" d="M38.9013 30.0818H38.3684C38.2172 28.8201 37.6125 27.6564 36.667 26.8075C35.7215 25.9585 34.4997 25.4822 33.2291 25.4672C31.9584 25.4522 30.7257 25.8995 29.7604 26.726C28.7952 27.5524 28.1632 28.7015 27.9823 29.9593C27.6998 30.0232 26.5968 30.0818 26.5968 30.0818C26.5968 30.0818 25.531 30.0285 25.2698 29.9699C25.0901 28.7121 24.4593 27.5624 23.4949 26.7351C22.5305 25.9078 21.2983 25.4592 20.0277 25.4729C18.7572 25.4866 17.5349 25.9616 16.5886 26.8095C15.6422 27.6574 15.0363 28.8204 14.8837 30.0818H14.2869C14.1795 30.0818 14.0765 30.1245 14.0005 30.2004C13.9246 30.2764 13.8819 30.3794 13.8819 30.4868V30.9078C13.8833 31.0134 13.9258 31.1142 14.0005 31.1889C14.0751 31.2636 14.176 31.3061 14.2816 31.3075H14.8571C15.0069 32.5694 15.6103 33.7339 16.555 34.5839C17.4996 35.434 18.721 35.9116 19.9917 35.9279C21.2624 35.9442 22.4957 35.498 23.4618 34.6725C24.428 33.847 25.0611 32.6984 25.2432 31.4407C25.5363 31.3821 26.5701 31.3235 26.5701 31.3235C26.5701 31.3235 27.6679 31.3927 27.9556 31.4514C28.1122 32.7316 28.7356 33.9091 29.7064 34.7583C30.6772 35.6075 31.9272 36.0687 33.2169 36.0535C34.5066 36.0383 35.7454 35.5478 36.6959 34.676C37.6465 33.8042 38.242 32.6124 38.3684 31.3288H38.9013C39.0069 31.3288 39.1083 31.2876 39.184 31.214C39.2596 31.1403 39.3035 31.04 39.3063 30.9345V30.4922C39.3063 30.3847 39.2636 30.2817 39.1877 30.2058C39.1117 30.1298 39.0087 30.0872 38.9013 30.0872V30.0818ZM20.0581 34.6967C19.2687 34.6967 18.497 34.4626 17.8407 34.024C17.1843 33.5854 16.6727 32.9621 16.3706 32.2327C16.0685 31.5034 15.9894 30.7009 16.1435 29.9266C16.2975 29.1524 16.6776 28.4412 17.2358 27.883C17.794 27.3248 18.5052 26.9446 19.2795 26.7906C20.0537 26.6366 20.8562 26.7157 21.5856 27.0178C22.3149 27.3199 22.9383 27.8314 23.3768 28.4878C23.8154 29.1442 24.0495 29.9159 24.0495 30.7053C24.0495 31.7639 23.629 32.7791 22.8805 33.5276C22.1319 34.2762 21.1167 34.6967 20.0581 34.6967ZM33.1407 34.6967C32.3513 34.6967 31.5796 34.4626 30.9232 34.024C30.2668 33.5854 29.7552 32.9621 29.4531 32.2327C29.151 31.5034 29.072 30.7009 29.226 29.9266C29.38 29.1524 29.7602 28.4412 30.3184 27.883C30.8766 27.3248 31.5878 26.9446 32.362 26.7906C33.1363 26.6366 33.9388 26.7157 34.6681 27.0178C35.3975 27.3199 36.0208 27.8314 36.4594 28.4878C36.898 29.1442 37.1321 29.9159 37.1321 30.7053C37.1321 31.7639 36.7115 32.7791 35.963 33.5276C35.2145 34.2762 34.1993 34.6967 33.1407 34.6967Z" fill="white"/>
<path d="M43.4735 28.5738V19.2534H40.1962C40.3879 18.229 40.5107 17.1929 40.5639 16.152L38.6348 17.5855C39.7006 16.3545 38.6348 10.6152 38.6348 10.6152C38.6348 10.6152 37.228 13.3756 28.4566 12.6722C19.6851 11.9688 18.4541 15.4539 18.4541 15.4539C17.3884 14.3881 18.4541 12.6456 18.4541 12.6456C18.1363 12.7924 17.8506 13.0004 17.6132 13.2578C17.3758 13.5151 17.1915 13.8167 17.0707 14.1453C16.95 14.4739 16.8952 14.8231 16.9094 15.1729C16.9237 15.5227 17.0068 15.8663 17.1539 16.184L17.2285 16.3279H14.3882L16.3492 17.5855C15.7313 17.9955 15.2563 18.5878 14.9903 19.2801H9.71468V28.5738L7.79626 30.4922L9.71468 32.4106L10.2476 41.7309H15.2301L14.6972 31.8671C14.7025 31.8344 14.7011 31.8011 14.6931 31.769C14.6852 31.7369 14.6708 31.7068 14.6509 31.6804C14.631 31.654 14.6059 31.6319 14.5773 31.6155C14.5486 31.599 14.5169 31.5885 14.4841 31.5846C14.4192 31.5754 14.3532 31.592 14.3004 31.6309C14.2476 31.6697 14.2122 31.7277 14.2017 31.7924C14.1963 31.817 14.1963 31.8425 14.2017 31.8671V39.4342H11.9688V31.7924L10.6579 30.4922L11.9635 29.1919V21.5502H14.4468C14.3881 22.1274 14.3774 22.7085 14.4148 23.2875H16.168C16.2656 22.2231 16.7741 21.2387 17.5855 20.5431C20.5697 16.8554 33.2047 19.0083 33.2047 19.0083L34.6062 16.9407L34.0733 19.0083C37.0468 19.7171 37.3026 23.2235 37.3026 23.2235H38.6348C39.0353 22.7207 39.3504 22.1553 39.5674 21.5502H41.2194V29.1919L42.525 30.4922L41.2194 31.7924V39.4342H38.491L39.0239 41.7309H44.0064L43.4735 32.4106L45.3919 30.4922L43.4735 28.5738Z" fill="white"/>
<path d="M68.754 20.1327H73.0438V22.2004H66.1161V9.18176H68.7273L68.754 20.1327Z" fill="white"/>
<path d="M84.2346 17.82H76.6782C76.705 18.4832 76.9854 19.1108 77.4615 19.5732C77.9244 19.9971 78.534 20.2245 79.1614 20.2074C79.5924 20.2325 80.0207 20.1263 80.3899 19.9026C80.7591 19.679 81.0518 19.3486 81.2291 18.9551H84.0374C83.7471 19.9369 83.1447 20.7975 82.3215 21.4064C81.4312 22.0638 80.3478 22.4068 79.2414 22.3816C78.3105 22.3942 77.3923 22.1646 76.5769 21.7155C75.7938 21.2823 75.1519 20.633 74.7278 19.845C74.2619 18.9885 74.0216 18.0276 74.0297 17.0526C74.0091 16.0729 74.2345 15.1037 74.6851 14.2336C75.0983 13.4461 75.734 12.7975 76.513 12.3685C77.3507 11.9194 78.2912 11.6971 79.2414 11.7237C80.1693 11.7023 81.0871 11.9207 81.9058 12.3578C82.6719 12.767 83.3017 13.3913 83.7177 14.1537C84.1543 14.9731 84.3761 15.8898 84.3625 16.8182C84.3463 17.155 84.3036 17.4899 84.2346 17.82ZM81.6021 16.0668C81.6052 15.7636 81.542 15.4633 81.4168 15.1872C81.2916 14.911 81.1075 14.6656 80.8774 14.4681C80.3932 14.0574 79.7748 13.8392 79.1401 13.8553C78.5423 13.839 77.9602 14.0483 77.5095 14.4415C77.0487 14.8695 76.7605 15.4515 76.6995 16.0774L81.6021 16.0668Z" fill="white"/>
<path d="M86.1689 14.2176C86.5479 13.4494 87.1351 12.8032 87.8635 12.3525C88.586 11.9149 89.417 11.6896 90.2616 11.7024C90.9645 11.6876 91.6601 11.8468 92.2866 12.166C92.8314 12.4489 93.3051 12.8515 93.6721 13.3437V11.8676H96.2939V22.2004H93.6614V20.6923C93.3021 21.197 92.827 21.6082 92.2759 21.8913C91.6445 22.2194 90.941 22.3843 90.2296 22.3709C89.3894 22.3791 88.5646 22.146 87.8529 21.6995C87.1283 21.2334 86.5458 20.5771 86.1689 19.8024C85.7381 18.9318 85.5224 17.9705 85.5401 16.9993C85.5236 16.0351 85.7392 15.081 86.1689 14.2176ZM93.2991 15.4006C93.0723 14.9563 92.7227 14.5864 92.2919 14.3349C91.8789 14.0962 91.41 13.9712 90.933 13.9725C90.4532 13.9686 89.9816 14.0962 89.5692 14.3414C89.1568 14.5866 88.8194 14.94 88.5936 15.3633C88.3299 15.8542 88.1978 16.405 88.2099 16.962C88.1977 17.5293 88.3298 18.0904 88.5936 18.5927C88.8253 19.0335 89.1737 19.4022 89.6008 19.6585C90.0016 19.9041 90.4629 20.0333 90.933 20.0315C91.41 20.0328 91.8789 19.9078 92.2919 19.6691C92.7227 19.4176 93.0723 19.0477 93.2991 18.6033C93.5606 18.1005 93.689 17.5392 93.6721 16.9727C93.6759 16.4257 93.546 15.886 93.2937 15.4006H93.2991Z" fill="white"/>
<path d="M102.779 12.1874C103.344 11.8682 103.985 11.7063 104.634 11.7184V14.4628H103.946C103.278 14.4146 102.616 14.6201 102.092 15.0383C101.671 15.422 101.468 16.1041 101.468 17.0527V22.2004H98.8519V11.8676H101.468V13.4663C101.788 12.9342 102.239 12.4936 102.779 12.1874Z" fill="white"/>
<path d="M115.1 12.8854C115.495 13.3258 115.799 13.8404 115.994 14.3994C116.189 14.9584 116.271 15.5505 116.235 16.1414V22.2004H113.624V16.5197C113.671 15.8337 113.452 15.1558 113.011 14.6279C112.795 14.4041 112.533 14.2292 112.243 14.1152C111.954 14.0012 111.643 13.9507 111.332 13.9672C111.018 13.9454 110.702 13.9906 110.406 14.1C110.11 14.2093 109.841 14.3802 109.616 14.6013C109.392 14.8648 109.222 15.1698 109.116 15.499C109.01 15.8282 108.97 16.175 108.998 16.5197V22.2004H106.387V11.8676H108.998V13.1572C109.353 12.7007 109.812 12.3354 110.336 12.0914C110.893 11.8318 111.501 11.7007 112.116 11.7077C112.668 11.6859 113.218 11.7794 113.732 11.9821C114.246 12.1849 114.711 12.4925 115.1 12.8854Z" fill="white"/>
<path d="M80.4617 32.1175L77.4401 42.4503H74.6265L72.74 35.2349L70.8589 42.4503H68.0506L65.0131 32.1175H67.6775L69.4574 39.967L71.4398 32.0962H74.2002L76.1346 39.967L77.9677 32.1175H80.4617Z" fill="white"/>
<path d="M82.0604 30.4496C81.915 30.3072 81.7996 30.1372 81.7207 29.9496C81.6419 29.7621 81.6013 29.5606 81.6013 29.3572C81.6013 29.1537 81.6419 28.9523 81.7207 28.7647C81.7996 28.5771 81.915 28.4071 82.0604 28.2647C82.3757 27.9834 82.7835 27.828 83.2061 27.828C83.6287 27.828 84.0364 27.9834 84.3518 28.2647C84.4971 28.4071 84.6126 28.5771 84.6914 28.7647C84.7702 28.9523 84.8108 29.1537 84.8108 29.3572C84.8108 29.5606 84.7702 29.7621 84.6914 29.9496C84.6126 30.1372 84.4971 30.3072 84.3518 30.4496C84.0364 30.7309 83.6287 30.8863 83.2061 30.8863C82.7835 30.8863 82.3757 30.7309 82.0604 30.4496ZM84.4957 32.1175V42.4504H81.9058V32.1175H84.4957Z" fill="white"/>
<path d="M90.1071 34.2597V39.2583C90.0945 39.3949 90.1103 39.5326 90.1533 39.6628C90.1964 39.793 90.266 39.9129 90.3575 40.015C90.6021 40.1934 90.9033 40.2768 91.2048 40.2495H92.4198V42.4503H90.7785C88.5794 42.4503 87.4781 41.3845 87.4746 39.253V34.2597H86.2436V32.1282H87.4746V29.5649H90.1071V32.1175H92.4198V34.2491L90.1071 34.2597Z" fill="white"/>
<path d="M102.209 32.5066C102.827 32.8549 103.325 33.3827 103.637 34.02C104.004 34.7654 104.186 35.5876 104.17 36.418V42.4504H101.559V36.7697C101.606 36.0837 101.387 35.4058 100.946 34.878C100.73 34.6541 100.468 34.4793 100.179 34.3653C99.889 34.2513 99.5783 34.2008 99.2675 34.2172C98.9527 34.2004 98.6379 34.2506 98.344 34.3645C98.05 34.4784 97.7836 34.6534 97.5623 34.878C97.107 35.3993 96.8754 36.0789 96.9175 36.7697V42.4504H94.301V28.6484H96.9175V33.4072C97.2638 32.9424 97.7247 32.5752 98.255 32.3414C98.8417 32.0801 99.478 31.9492 100.12 31.9577C100.852 31.9554 101.573 32.1446 102.209 32.5066Z" fill="white"/>
<path d="M113.112 42.0987C112.424 41.8184 111.827 41.3537 111.386 40.7558C110.957 40.1501 110.729 39.4249 110.735 38.6828H113.533C113.536 38.9244 113.588 39.1628 113.686 39.3836C113.784 39.6044 113.926 39.8029 114.103 39.9671C114.494 40.2986 114.998 40.4665 115.51 40.4361C116.025 40.4687 116.534 40.3134 116.944 39.9991C117.115 39.8623 117.252 39.6877 117.345 39.4889C117.437 39.2901 117.482 39.0725 117.477 38.8534C117.49 38.5014 117.364 38.1584 117.125 37.8995C116.875 37.6435 116.573 37.4437 116.24 37.3133C115.76 37.1282 115.271 36.9681 114.775 36.8337C114.07 36.64 113.381 36.3942 112.712 36.0983C112.176 35.8503 111.709 35.4732 111.354 35.0005C110.944 34.4313 110.739 33.74 110.773 33.0395C110.756 32.3252 110.957 31.6227 111.348 31.0251C111.751 30.4379 112.315 29.9805 112.974 29.7089C113.729 29.3922 114.542 29.2361 115.361 29.2506C116.531 29.196 117.685 29.5418 118.633 30.2311C119.051 30.5566 119.393 30.9703 119.633 31.4428C119.874 31.9153 120.007 32.435 120.024 32.9649H117.151C117.142 32.7491 117.087 32.5378 116.988 32.3456C116.89 32.1534 116.751 31.9847 116.581 31.8511C116.179 31.5429 115.68 31.388 115.174 31.4142C114.733 31.3919 114.299 31.5322 113.954 31.8085C113.797 31.9507 113.674 32.1267 113.594 32.3234C113.515 32.52 113.481 32.732 113.496 32.9436C113.491 33.1044 113.519 33.2646 113.578 33.4141C113.638 33.5636 113.728 33.6991 113.842 33.8122C114.091 34.0441 114.382 34.2251 114.7 34.3451C115.173 34.5349 115.655 34.7003 116.144 34.8407C116.851 35.0368 117.543 35.2862 118.212 35.5867C118.758 35.8388 119.233 36.2235 119.592 36.7058C120.003 37.2726 120.208 37.9625 120.173 38.6615C120.18 39.3451 119.995 40.017 119.64 40.6013C119.254 41.2197 118.699 41.7152 118.041 42.0294C117.267 42.4001 116.416 42.5827 115.558 42.5623C114.72 42.5741 113.888 42.4164 113.112 42.0987Z" fill="white"/>
<path d="M132.184 32.1176V42.4504H129.552V41.1448C129.21 41.6028 128.759 41.969 128.241 42.2106C127.689 42.4685 127.086 42.5996 126.477 42.5943C125.733 42.5997 125 42.4163 124.346 42.0614C123.72 41.715 123.211 41.19 122.885 40.5533C122.513 39.8175 122.33 39.0007 122.352 38.1766V32.1176H124.964V37.8355C124.916 38.5216 125.136 39.1994 125.576 39.7273C125.793 39.9512 126.054 40.126 126.344 40.24C126.634 40.354 126.944 40.4045 127.255 40.3881C127.569 40.4058 127.884 40.356 128.177 40.2421C128.47 40.1281 128.735 39.9525 128.955 39.7273C129.39 39.197 129.604 38.5194 129.552 37.8355V32.1176H132.184Z" fill="white"/>
<path d="M150.649 33.1353C151.052 33.5719 151.363 34.0853 151.562 34.6448C151.762 35.2043 151.846 35.7983 151.811 36.3913V42.4503H149.2V36.7697C149.248 36.0949 149.027 35.4285 148.587 34.9152C148.372 34.6924 148.112 34.5175 147.824 34.4018C147.537 34.2862 147.228 34.2323 146.919 34.2438C146.608 34.2278 146.297 34.2769 146.006 34.388C145.715 34.499 145.451 34.6695 145.23 34.8886C145.006 35.1447 144.835 35.4431 144.728 35.7661C144.621 36.0892 144.579 36.4304 144.606 36.7697V42.4503H141.995V36.7697C142.041 36.0943 141.819 35.428 141.377 34.9152C141.158 34.6959 140.895 34.5251 140.606 34.414C140.317 34.3029 140.008 34.254 139.698 34.2704C139.385 34.2535 139.071 34.3022 138.778 34.4132C138.484 34.5242 138.217 34.6952 137.993 34.9152C137.772 35.1681 137.603 35.4621 137.496 35.7803C137.389 36.0985 137.346 36.4347 137.369 36.7697V42.4503H134.758V32.1175H137.369V33.3698C137.712 32.928 138.156 32.5753 138.664 32.3413C139.21 32.0878 139.805 31.9603 140.407 31.9683C141.161 31.9614 141.905 32.1447 142.57 32.5012C143.196 32.8331 143.71 33.3431 144.047 33.9666C144.386 33.3501 144.894 32.8434 145.512 32.5065C146.328 32.0649 147.26 31.8882 148.181 32.0009C149.102 32.1135 149.964 32.5101 150.649 33.1353Z" fill="white"/>
<path d="M154.481 30.4497C154.335 30.3073 154.22 30.1373 154.141 29.9497C154.062 29.7621 154.022 29.5607 154.022 29.3572C154.022 29.1538 154.062 28.9523 154.141 28.7648C154.22 28.5772 154.335 28.4072 154.481 28.2648C154.797 27.9831 155.206 27.8275 155.629 27.8275C156.053 27.8275 156.461 27.9831 156.777 28.2648C157.067 28.5546 157.23 28.9475 157.23 29.3572C157.23 29.7669 157.067 30.1599 156.777 30.4497C156.461 30.7313 156.053 30.8869 155.629 30.8869C155.206 30.8869 154.797 30.7313 154.481 30.4497ZM156.916 32.1176V42.4504H154.305V32.1176H156.916Z" fill="white"/>
<path d="M162.527 34.2597V39.2583C162.514 39.3953 162.53 39.5336 162.574 39.664C162.618 39.7945 162.69 39.9141 162.783 40.015C163.027 40.1948 163.329 40.2783 163.63 40.2495H164.84V42.4503H163.199C161 42.4503 159.9 41.3845 159.9 39.253V34.2597H158.669V32.1282H159.9V29.5649H162.527V32.1175H164.84V34.2491L162.527 34.2597Z" fill="white"/>
</g>
<defs>
<clipPath id="clip0_2_1685">
<rect width="165" height="53.2894" fill="white"/>
</clipPath>
</defs>
</svg>
