<svg width="336" height="113" viewBox="0 0 336 113" fill="none" xmlns="http://www.w3.org/2000/svg">
  <path
    d="M56.0265 109.811C85.7308 109.811 109.811 85.7308 109.811 56.0265C109.811 26.3223 85.7308 2.24219 56.0265 2.24219C26.3223 2.24219 2.24219 26.3223 2.24219 56.0265C2.24219 85.7308 26.3223 109.811 56.0265 109.811Z"
    fill="#171C2A" />
  <path
    d="M56.0254 112.051C44.9446 112.051 34.1127 108.765 24.8994 102.609C15.686 96.4526 8.50513 87.7026 4.2647 77.4653C0.0242748 67.228 -1.08521 55.9632 1.07654 45.0954C3.23829 34.2275 8.57418 24.2448 16.4095 16.4095C24.2448 8.57418 34.2275 3.23829 45.0954 1.07654C55.9632 -1.08521 67.228 0.0242748 77.4653 4.2647C87.7026 8.50513 96.4526 15.686 102.609 24.8994C108.765 34.1127 112.051 44.9446 112.051 56.0254C112.033 70.8787 106.125 85.1187 95.6216 95.6216C85.1187 106.125 70.8787 112.033 56.0254 112.051ZM56.0254 4.48205C45.8311 4.48205 35.8657 7.50501 27.3894 13.1687C18.9132 18.8323 12.3067 26.8823 8.40555 36.3006C4.50436 45.7189 3.48363 56.0825 5.47244 66.081C7.46125 76.0794 12.3703 85.2635 19.5787 92.472C26.7872 99.6804 35.9713 104.589 45.9698 106.578C55.9682 108.567 66.3318 107.546 75.7501 103.645C85.1684 99.744 93.2184 93.1375 98.8821 84.6613C104.546 76.185 107.569 66.2197 107.569 56.0254C107.551 42.3607 102.115 29.2608 92.4523 19.5984C82.7899 9.93599 69.69 4.49984 56.0254 4.48205Z"
    fill="#00D991" />
  <path
    d="M42.7739 60.2252L42.4493 60.5503C42.2831 60.7167 42.2833 60.9863 42.4497 61.1524L47.3259 66.0218C47.4923 66.188 47.7619 66.1878 47.928 66.0214L48.2527 65.6963C48.4188 65.5299 48.4186 65.2603 48.2523 65.0941L43.3761 60.2248C43.2097 60.0586 42.9401 60.0588 42.7739 60.2252Z"
    fill="white" />
  <path
    d="M42.8837 57.7256L42.5589 58.0505C42.3926 58.2168 42.3926 58.4864 42.5589 58.6526L46.5839 62.6776C46.7502 62.8439 47.0198 62.8439 47.186 62.6776L47.5109 62.3528C47.6772 62.1865 47.6772 61.9169 47.5109 61.7506L43.4859 57.7256C43.3196 57.5593 43.05 57.5593 42.8837 57.7256Z"
    fill="white" />
  <path
    d="M70.3169 60.2369L69.9923 60.562C69.8261 60.7284 69.8263 60.998 69.9927 61.1642L74.8689 66.0335C75.0353 66.1997 75.3048 66.1995 75.471 66.0331L75.7956 65.708C75.9618 65.5416 75.9616 65.272 75.7952 65.1058L70.9191 60.2365C70.7527 60.0703 70.4831 60.0705 70.3169 60.2369Z"
    fill="white" />
  <path
    d="M70.3882 57.7262L70.0631 58.0507C69.8966 58.2169 69.8964 58.4865 70.0625 58.6529L74.084 62.6814C74.2501 62.8478 74.5197 62.8481 74.6862 62.6819L75.0113 62.3574C75.1777 62.1912 75.178 61.9216 75.0118 61.7552L70.9904 57.7267C70.8242 57.5603 70.5546 57.56 70.3882 57.7262Z"
    fill="white" />
  <path fill-rule="evenodd" clip-rule="evenodd"
    d="M81.7992 63.2508H80.6787C80.3608 60.5979 79.0894 58.151 77.1013 56.3659C75.1132 54.5808 72.5441 53.5792 69.8724 53.5476C67.2006 53.5161 64.6086 54.4568 62.5789 56.1945C60.5493 57.9322 59.2205 60.3484 58.84 62.9931C58.2462 63.1276 55.9267 63.2508 55.9267 63.2508C55.9267 63.2508 53.6857 63.1388 53.1366 63.0155C52.7587 60.3706 51.4323 57.9533 49.4045 56.2137C47.3767 54.4741 44.7857 53.5309 42.1142 53.5597C39.4426 53.5885 36.8725 54.5873 34.8827 56.3702C32.8928 58.1531 31.6188 60.5984 31.298 63.2508H30.043C29.8171 63.2508 29.6005 63.3405 29.4408 63.5002C29.2811 63.6599 29.1914 63.8765 29.1914 64.1024V64.9876C29.1943 65.2096 29.2838 65.4217 29.4408 65.5786C29.5977 65.7356 29.8098 65.8251 30.0318 65.828H31.2419C31.5569 68.4814 32.8257 70.9299 34.812 72.7173C36.7983 74.5046 39.3666 75.509 42.0385 75.5433C44.7103 75.5776 47.3035 74.6394 49.335 72.9036C51.3665 71.1677 52.6977 68.7526 53.0806 66.1081C53.6969 65.9849 55.8707 65.8616 55.8707 65.8616C55.8707 65.8616 58.1789 66.0073 58.784 66.1305C59.1132 68.8225 60.424 71.2984 62.4653 73.084C64.5066 74.8695 67.1349 75.8392 69.8468 75.8073C72.5586 75.7754 75.1634 74.7441 77.1621 72.911C79.1608 71.0779 80.413 68.5718 80.6787 65.8728H81.7992C82.0212 65.8729 82.2345 65.7862 82.3936 65.6314C82.5527 65.4765 82.645 65.2656 82.6508 65.0436V64.1136C82.6508 63.8878 82.5611 63.6711 82.4014 63.5114C82.2417 63.3517 82.0251 63.262 81.7992 63.262V63.2508ZM42.1781 72.9544C40.5182 72.9544 38.8956 72.4622 37.5154 71.54C36.1353 70.6178 35.0596 69.3071 34.4243 67.7735C33.7891 66.24 33.6229 64.5525 33.9467 62.9245C34.2706 61.2965 35.0699 59.8011 36.2436 58.6273C37.4173 57.4536 38.9128 56.6543 40.5408 56.3305C42.1688 56.0066 43.8562 56.1728 45.3898 56.8081C46.9233 57.4433 48.2341 58.519 49.1563 59.8991C50.0785 61.2793 50.5707 62.9019 50.5707 64.5618C50.5707 66.7877 49.6865 68.9224 48.1125 70.4963C46.5386 72.0702 44.4039 72.9544 42.1781 72.9544ZM69.6865 72.9544C68.0266 72.9544 66.404 72.4622 65.0239 71.54C63.6437 70.6178 62.568 69.3071 61.9328 67.7735C61.2976 66.24 61.1314 64.5525 61.4552 62.9245C61.779 61.2965 62.5783 59.8011 63.7521 58.6273C64.9258 57.4536 66.4212 56.6543 68.0492 56.3305C69.6772 56.0066 71.3647 56.1728 72.8982 56.8081C74.4318 57.4433 75.7425 58.519 76.6647 59.8991C77.5869 61.2793 78.0791 62.9019 78.0791 64.5618C78.0791 66.7877 77.1949 68.9224 75.621 70.4963C74.0471 72.0702 71.9124 72.9544 69.6865 72.9544Z"
    fill="white" />
  <path
    d="M91.4125 60.0814V40.4837H84.5214C84.9244 38.3296 85.1827 36.151 85.2945 33.9624L81.2383 36.9765C83.4793 34.3882 81.2383 22.3203 81.2383 22.3203C81.2383 22.3203 78.2801 28.1245 59.8366 26.6455C41.393 25.1664 38.8047 32.4945 38.8047 32.4945C36.5637 30.2535 38.8047 26.5894 38.8047 26.5894C38.1364 26.8982 37.5355 27.3356 37.0364 27.8767C36.5373 28.4178 36.1497 29.052 35.8958 29.7429C35.6419 30.4339 35.5266 31.1681 35.5566 31.9037C35.5866 32.6392 35.7613 33.3616 36.0706 34.0296L36.2275 34.3321H30.2552L34.3787 36.9765C33.0793 37.8387 32.0806 39.0841 31.5214 40.5398H20.4284V60.0814L16.3945 64.1152L20.4284 68.1491L21.5489 87.7467H32.0256L30.9051 67.0061C30.9162 66.9375 30.9132 66.8674 30.8965 66.7999C30.8797 66.7325 30.8495 66.6691 30.8076 66.6136C30.7658 66.5581 30.7131 66.5117 30.6528 66.4771C30.5926 66.4425 30.5259 66.4204 30.4569 66.4123C30.3204 66.3929 30.1818 66.4278 30.0707 66.5095C29.9597 66.5912 29.8851 66.7132 29.863 66.8493C29.8518 66.901 29.8518 66.9544 29.863 67.0061V82.9173H25.1681V66.8493L22.4117 64.1152L25.1569 61.3812V45.3131H30.3785C30.2552 46.5268 30.2327 47.7486 30.3112 48.966H33.9977C34.2028 46.728 35.272 44.658 36.9782 43.1954C43.2531 35.4414 69.8203 39.9683 69.8203 39.9683L72.7672 35.6207L71.6467 39.9683C77.8992 41.4586 78.437 48.8315 78.437 48.8315H81.2383C82.0804 47.7742 82.7429 46.5855 83.1992 45.3131H86.6727V61.3812L89.418 64.1152L86.6727 66.8493V82.9173H80.9357L82.0562 87.7467H92.533L91.4125 68.1491L95.4463 64.1152L91.4125 60.0814Z"
    fill="white" />
  <path
    d="M139.165 48.0234V23.6997H144.308V43.7834H154.735V48.0234H139.165ZM159.569 48.0234L152.609 23.6997H158.227L162.253 40.6004H162.455L166.897 23.6997H171.707L176.137 40.636H176.351L180.377 23.6997H185.995L179.035 48.0234H174.023L169.391 32.1204H169.201L164.581 48.0234H159.569ZM199.038 30.6951C198.943 29.7371 198.535 28.9928 197.815 28.4623C197.094 27.9318 196.117 27.6665 194.881 27.6665C194.042 27.6665 193.333 27.7853 192.755 28.0229C192.177 28.2525 191.734 28.5731 191.425 28.9849C191.124 29.3966 190.974 29.8638 190.974 30.3863C190.958 30.8218 191.049 31.2019 191.247 31.5265C191.453 31.8512 191.734 32.1322 192.09 32.3698C192.447 32.5994 192.858 32.8013 193.325 32.9755C193.793 33.1418 194.291 33.2843 194.822 33.4031L197.007 33.9256C198.068 34.1632 199.042 34.4799 199.929 34.8758C200.816 35.2717 201.584 35.7586 202.233 36.3366C202.882 36.9146 203.385 37.5956 203.741 38.3795C204.106 39.1633 204.292 40.062 204.3 41.0755C204.292 42.5641 203.912 43.8547 203.159 44.9473C202.415 46.0321 201.338 46.8753 199.929 47.4771C198.528 48.0709 196.837 48.3679 194.858 48.3679C192.894 48.3679 191.184 48.067 189.727 47.4652C188.278 46.8635 187.146 45.9727 186.33 44.7929C185.522 43.6053 185.099 42.1365 185.059 40.3866H190.036C190.091 41.2022 190.325 41.8831 190.736 42.4294C191.156 42.9679 191.714 43.3756 192.411 43.6528C193.116 43.922 193.911 44.0566 194.798 44.0566C195.669 44.0566 196.425 43.9299 197.067 43.6765C197.716 43.4231 198.219 43.0708 198.575 42.6195C198.931 42.1682 199.109 41.6495 199.109 41.0636C199.109 40.5173 198.947 40.058 198.623 39.6859C198.306 39.3138 197.839 38.997 197.221 38.7358C196.611 38.4745 195.863 38.2369 194.976 38.0231L192.328 37.358C190.277 36.8592 188.658 36.0793 187.47 35.0183C186.283 33.9573 185.693 32.5281 185.701 30.7308C185.693 29.258 186.085 27.9714 186.876 26.8708C187.676 25.7702 188.773 24.9111 190.166 24.2935C191.56 23.6759 193.143 23.3671 194.917 23.3671C196.722 23.3671 198.298 23.6759 199.644 24.2935C200.998 24.9111 202.051 25.7702 202.803 26.8708C203.555 27.9714 203.943 29.2462 203.967 30.6951H199.038Z"
    fill="#171C2A" />
  <path
    d="M152.36 70.6951C152.265 69.7371 151.857 68.9928 151.137 68.4623C150.416 67.9318 149.438 67.6665 148.203 67.6665C147.364 67.6665 146.655 67.7853 146.077 68.0229C145.499 68.2525 145.056 68.5731 144.747 68.9849C144.446 69.3966 144.296 69.8638 144.296 70.3863C144.28 70.8218 144.371 71.2019 144.569 71.5265C144.775 71.8512 145.056 72.1322 145.412 72.3698C145.768 72.5994 146.18 72.8013 146.647 72.9755C147.114 73.1418 147.613 73.2843 148.144 73.4031L150.329 73.9256C151.39 74.1632 152.364 74.4799 153.251 74.8758C154.138 75.2717 154.906 75.7586 155.555 76.3366C156.204 76.9146 156.707 77.5956 157.063 78.3795C157.427 79.1633 157.614 80.062 157.621 81.0755C157.614 82.5641 157.233 83.8547 156.481 84.9473C155.737 86.0321 154.66 86.8753 153.251 87.4771C151.849 88.0709 150.159 88.3679 148.179 88.3679C146.216 88.3679 144.505 88.067 143.049 87.4652C141.6 86.8635 140.467 85.9727 139.652 84.7929C138.844 83.6053 138.421 82.1365 138.381 80.3866H143.357C143.413 81.2022 143.646 81.8831 144.058 82.4294C144.478 82.9679 145.036 83.3756 145.733 83.6528C146.437 83.922 147.233 84.0566 148.12 84.0566C148.991 84.0566 149.747 83.9299 150.388 83.6765C151.038 83.4231 151.541 83.0708 151.897 82.6195C152.253 82.1682 152.431 81.6495 152.431 81.0636C152.431 80.5173 152.269 80.058 151.944 79.6859C151.628 79.3138 151.16 78.997 150.543 78.7358C149.933 78.4745 149.185 78.2369 148.298 78.0231L145.65 77.358C143.599 76.8592 141.98 76.0793 140.792 75.0183C139.604 73.9573 139.014 72.5281 139.022 70.7308C139.014 69.258 139.406 67.9714 140.198 66.8708C140.998 65.7702 142.094 64.9111 143.488 64.2935C144.882 63.6759 146.465 63.3671 148.239 63.3671C150.044 63.3671 151.62 63.6759 152.966 64.2935C154.32 64.9111 155.373 65.7702 156.125 66.8708C156.877 67.9714 157.265 69.2462 157.289 70.6951H152.36ZM165.376 77.4768V88.0234H160.317V63.6997H165.234V72.9992H165.447C165.859 71.9224 166.524 71.0792 167.443 70.4695C168.361 69.8519 169.513 69.5431 170.899 69.5431C172.166 69.5431 173.27 69.8202 174.213 70.3745C175.163 70.9208 175.899 71.7086 176.422 72.738C176.952 73.7594 177.213 74.9827 177.206 76.4079V88.0234H172.146V77.3105C172.154 76.1862 171.869 75.3113 171.291 74.6858C170.721 74.0602 169.921 73.7475 168.892 73.7475C168.203 73.7475 167.593 73.894 167.063 74.1869C166.54 74.4799 166.128 74.9075 165.828 75.4696C165.535 76.0239 165.384 76.6929 165.376 77.4768ZM188.761 88.3797C186.916 88.3797 185.321 87.9878 183.974 87.2039C182.636 86.4121 181.603 85.3116 180.875 83.9022C180.146 82.4849 179.782 80.8419 179.782 78.9733C179.782 77.0888 180.146 75.4419 180.875 74.0325C181.603 72.6152 182.636 71.5146 183.974 70.7308C185.321 69.939 186.916 69.5431 188.761 69.5431C190.606 69.5431 192.197 69.939 193.535 70.7308C194.881 71.5146 195.919 72.6152 196.647 74.0325C197.376 75.4419 197.74 77.0888 197.74 78.9733C197.74 80.8419 197.376 82.4849 196.647 83.9022C195.919 85.3116 194.881 86.4121 193.535 87.2039C192.197 87.9878 190.606 88.3797 188.761 88.3797ZM188.785 84.4604C189.624 84.4604 190.325 84.2229 190.887 83.7478C191.449 83.2648 191.873 82.6076 192.158 81.7762C192.451 80.9448 192.597 79.9987 192.597 78.9377C192.597 77.8767 192.451 76.9305 192.158 76.0991C191.873 75.2677 191.449 74.6105 190.887 74.1275C190.325 73.6446 189.624 73.4031 188.785 73.4031C187.937 73.4031 187.225 73.6446 186.647 74.1275C186.077 74.6105 185.645 75.2677 185.352 76.0991C185.067 76.9305 184.925 77.8767 184.925 78.9377C184.925 79.9987 185.067 80.9448 185.352 81.7762C185.645 82.6076 186.077 83.2648 186.647 83.7478C187.225 84.2229 187.937 84.4604 188.785 84.4604ZM200.361 94.8645V69.7806H205.349V72.8448H205.575C205.796 72.3539 206.117 71.8551 206.537 71.3484C206.964 70.8337 207.518 70.4061 208.199 70.0657C208.888 69.7173 209.743 69.5431 210.765 69.5431C212.095 69.5431 213.322 69.8915 214.447 70.5882C215.571 71.2771 216.47 72.3183 217.143 73.7119C217.816 75.0975 218.152 76.8355 218.152 78.9258C218.152 80.9607 217.824 82.6789 217.166 84.0803C216.517 85.4739 215.63 86.5309 214.506 87.2514C213.39 87.9641 212.139 88.3204 210.753 88.3204C209.771 88.3204 208.936 88.158 208.247 87.8334C207.566 87.5088 207.008 87.101 206.572 86.6101C206.137 86.1113 205.804 85.6085 205.575 85.1017H205.42V94.8645H200.361ZM205.313 78.902C205.313 79.9868 205.464 80.933 205.765 81.7406C206.066 82.5482 206.501 83.1777 207.071 83.629C207.641 84.0724 208.334 84.2941 209.15 84.2941C209.973 84.2941 210.67 84.0685 211.24 83.6171C211.81 83.1579 212.241 82.5245 212.534 81.7168C212.835 80.9013 212.986 79.963 212.986 78.902C212.986 77.849 212.839 76.9226 212.546 76.1229C212.253 75.3231 211.822 74.6976 211.252 74.2463C210.682 73.795 209.981 73.5693 209.15 73.5693C208.326 73.5693 207.629 73.7871 207.059 74.2226C206.497 74.658 206.066 75.2756 205.765 76.0753C205.464 76.8751 205.313 77.8173 205.313 78.902ZM249.485 72.2154H244.283C244.188 71.5424 243.994 70.9446 243.701 70.422C243.408 69.8915 243.032 69.4402 242.572 69.068C242.113 68.6959 241.583 68.4108 240.981 68.2129C240.387 68.0149 239.742 67.916 239.045 67.916C237.786 67.916 236.689 68.2287 235.755 68.8542C234.821 69.4718 234.096 70.3745 233.582 71.5621C233.067 72.7419 232.81 74.1751 232.81 75.8616C232.81 77.5956 233.067 79.0525 233.582 80.2322C234.104 81.412 234.833 82.3028 235.767 82.9045C236.701 83.5063 237.782 83.8072 239.009 83.8072C239.698 83.8072 240.335 83.7161 240.921 83.534C241.515 83.3519 242.042 83.0866 242.501 82.7382C242.96 82.3819 243.34 81.9504 243.641 81.4437C243.95 80.9369 244.164 80.3589 244.283 79.7097L249.485 79.7334C249.35 80.8498 249.013 81.9267 248.475 82.9639C247.945 83.9932 247.228 84.9157 246.325 85.7312C245.431 86.5388 244.362 87.1802 243.119 87.6553C241.883 88.1224 240.486 88.356 238.926 88.356C236.757 88.356 234.817 87.8651 233.106 86.8833C231.404 85.9014 230.058 84.4802 229.068 82.6195C228.086 80.7588 227.596 78.5061 227.596 75.8616C227.596 73.2091 228.094 70.9525 229.092 69.0918C230.09 67.2311 231.444 65.8138 233.154 64.8399C234.864 63.858 236.788 63.3671 238.926 63.3671C240.335 63.3671 241.642 63.5651 242.845 63.961C244.057 64.3569 245.13 64.9349 246.064 65.695C246.998 66.4472 247.758 67.3696 248.344 68.4623C248.938 69.555 249.318 70.806 249.485 72.2154ZM260.722 88.3797C258.846 88.3797 257.23 87.9997 255.876 87.2396C254.53 86.4715 253.493 85.3868 252.765 83.9853C252.036 82.5759 251.672 80.9092 251.672 78.9852C251.672 77.1086 252.036 75.4617 252.765 74.0444C253.493 72.6271 254.519 71.5226 255.841 70.7308C257.171 69.939 258.731 69.5431 260.52 69.5431C261.724 69.5431 262.844 69.7371 263.881 70.1251C264.927 70.5051 265.837 71.0792 266.613 71.8472C267.397 72.6152 268.007 73.5812 268.442 74.7451C268.878 75.9012 269.095 77.2551 269.095 78.807V80.1966H253.691V77.0611H264.333C264.333 76.3327 264.174 75.6874 263.858 75.1252C263.541 74.563 263.102 74.1236 262.539 73.8069C261.985 73.4822 261.34 73.3199 260.603 73.3199C259.835 73.3199 259.154 73.4981 258.561 73.8544C257.975 74.2028 257.515 74.6739 257.183 75.2677C256.85 75.8536 256.68 76.5069 256.672 77.2274V80.2085C256.672 81.1111 256.838 81.891 257.171 82.5482C257.511 83.2054 257.991 83.7121 258.608 84.0685C259.226 84.4248 259.958 84.6029 260.805 84.6029C261.368 84.6029 261.882 84.5237 262.349 84.3654C262.816 84.207 263.216 83.9695 263.549 83.6528C263.881 83.336 264.135 82.9481 264.309 82.4888L268.988 82.7976C268.751 83.922 268.264 84.9038 267.528 85.7431C266.799 86.5745 265.857 87.2237 264.701 87.6909C263.553 88.1501 262.227 88.3797 260.722 88.3797ZM276.788 77.4768V88.0234H271.728V69.7806H276.55V72.9992H276.764C277.168 71.9382 277.845 71.099 278.795 70.4814C279.745 69.8558 280.897 69.5431 282.251 69.5431C283.518 69.5431 284.623 69.8202 285.565 70.3745C286.507 70.9287 287.239 71.7205 287.762 72.7498C288.285 73.7712 288.546 74.9906 288.546 76.4079V88.0234H283.486V77.3105C283.494 76.1941 283.209 75.3231 282.631 74.6976C282.053 74.0642 281.257 73.7475 280.244 73.7475C279.563 73.7475 278.961 73.894 278.439 74.1869C277.924 74.4799 277.52 74.9075 277.227 75.4696C276.942 76.0239 276.796 76.6929 276.788 77.4768ZM301.568 69.7806V73.5812H290.582V69.7806H301.568ZM293.076 65.41H298.136V82.4176C298.136 82.8847 298.207 83.249 298.349 83.5102C298.492 83.7636 298.69 83.9418 298.943 84.0447C299.204 84.1476 299.505 84.1991 299.846 84.1991C300.083 84.1991 300.321 84.1793 300.558 84.1397C300.796 84.0922 300.978 84.0566 301.105 84.0328L301.9 87.7978C301.647 87.877 301.291 87.968 300.832 88.0709C300.372 88.1818 299.814 88.2491 299.157 88.2729C297.938 88.3204 296.869 88.158 295.95 87.7859C295.04 87.4138 294.331 86.8358 293.824 86.0519C293.317 85.268 293.068 84.2783 293.076 83.0827V65.41ZM312.313 88.3797C310.436 88.3797 308.821 87.9997 307.467 87.2396C306.121 86.4715 305.084 85.3868 304.355 83.9853C303.627 82.5759 303.263 80.9092 303.263 78.9852C303.263 77.1086 303.627 75.4617 304.355 74.0444C305.084 72.6271 306.109 71.5226 307.431 70.7308C308.761 69.939 310.321 69.5431 312.111 69.5431C313.314 69.5431 314.435 69.7371 315.472 70.1251C316.517 70.5051 317.428 71.0792 318.204 71.8472C318.987 72.6152 319.597 73.5812 320.033 74.7451C320.468 75.9012 320.686 77.2551 320.686 78.807V80.1966H305.282V77.0611H315.923C315.923 76.3327 315.765 75.6874 315.448 75.1252C315.131 74.563 314.692 74.1236 314.13 73.8069C313.576 73.4822 312.93 73.3199 312.194 73.3199C311.426 73.3199 310.745 73.4981 310.151 73.8544C309.565 74.2028 309.106 74.6739 308.773 75.2677C308.441 75.8536 308.271 76.5069 308.263 77.2274V80.2085C308.263 81.1111 308.429 81.891 308.761 82.5482C309.102 83.2054 309.581 83.7121 310.199 84.0685C310.816 84.4248 311.549 84.6029 312.396 84.6029C312.958 84.6029 313.473 84.5237 313.94 84.3654C314.407 84.207 314.807 83.9695 315.139 83.6528C315.472 83.336 315.725 82.9481 315.899 82.4888L320.579 82.7976C320.341 83.922 319.854 84.9038 319.118 85.7431C318.39 86.5745 317.447 87.2237 316.291 87.6909C315.143 88.1501 313.817 88.3797 312.313 88.3797ZM323.319 88.0234V69.7806H328.224V72.9636H328.414C328.746 71.8314 329.305 70.9762 330.088 70.3982C330.872 69.8123 331.775 69.5193 332.796 69.5193C333.05 69.5193 333.323 69.5352 333.616 69.5668C333.909 69.5985 334.166 69.6421 334.388 69.6975V74.1869C334.15 74.1157 333.822 74.0523 333.402 73.9969C332.982 73.9415 332.598 73.9138 332.25 73.9138C331.506 73.9138 330.841 74.0761 330.255 74.4007C329.677 74.7174 329.218 75.1608 328.877 75.7309C328.544 76.301 328.378 76.9582 328.378 77.7025V88.0234H323.319Z"
    fill="#171C2A" />
</svg>