<svg xmlns="http://www.w3.org/2000/svg" width="17" height="18" viewBox="0 0 17 18" fill="none">
	<path d="M2.99077 10.7473C4.12044 10.7473 5.03622 9.85188 5.03622 8.74731C5.03622 7.64274 4.12044 6.74731 2.99077 6.74731C1.86109 6.74731 0.945312 7.64274 0.945312 8.74731C0.945312 9.85188 1.86109 10.7473 2.99077 10.7473Z" stroke="#6C757D" stroke-width="1.5" stroke-linecap="round" stroke-linejoin="round" />
	<path d="M13.8999 4.74731C15.0296 4.74731 15.9454 3.85188 15.9454 2.74731C15.9454 1.64274 15.0296 0.747314 13.8999 0.747314C12.7703 0.747314 11.8545 1.64274 11.8545 2.74731C11.8545 3.85188 12.7703 4.74731 13.8999 4.74731Z" stroke="#6C757D" stroke-width="1.5" stroke-linecap="round" stroke-linejoin="round" />
	<path d="M13.8999 16.7473C15.0296 16.7473 15.9454 15.8519 15.9454 14.7473C15.9454 13.6427 15.0296 12.7473 13.8999 12.7473C12.7703 12.7473 11.8545 13.6427 11.8545 14.7473C11.8545 15.8519 12.7703 16.7473 13.8999 16.7473Z" stroke="#6C757D" stroke-width="1.5" stroke-linecap="round" stroke-linejoin="round" />
	<path d="M4.77344 9.72778L12.1175 13.7669M12.1175 3.72778L4.77344 7.76695" stroke="#6C757D" stroke-width="1.5" stroke-linecap="round" stroke-linejoin="round" />
</svg>