<svg
                  width="16"
                  height="17"
                  viewBox="0 0 16 17"
                  fill="none"
                  xmlns="http://www.w3.org/2000/svg"
                >
                  <g clip-path="url(#clip0_2_1110)">
                    <path
                      d="M5.49542 5.55271L1.24209 6.16937L1.16675 6.18471C1.05271 6.21498 0.948751 6.27498 0.865483 6.35857C0.782214 6.44217 0.722624 6.54637 0.692796 6.66052C0.662969 6.77468 0.663973 6.89471 0.695706 7.00835C0.72744 7.122 0.788766 7.22518 0.873421 7.30737L3.95475 10.3067L3.22809 14.5434L3.21942 14.6167C3.21244 14.7347 3.23693 14.8523 3.29039 14.9577C3.34384 15.0631 3.42434 15.1524 3.52365 15.2164C3.62295 15.2804 3.73748 15.3169 3.85552 15.3221C3.97356 15.3273 4.09086 15.3011 4.19542 15.246L7.99942 13.246L11.7948 15.246L11.8614 15.2767C11.9715 15.32 12.0911 15.3333 12.2079 15.3152C12.3248 15.2971 12.4347 15.2482 12.5265 15.1735C12.6182 15.0989 12.6885 15.0012 12.73 14.8905C12.7715 14.7797 12.7828 14.6599 12.7628 14.5434L12.0354 10.3067L15.1181 7.30671L15.1701 7.25004C15.2444 7.15855 15.2931 7.04901 15.3112 6.93257C15.3294 6.81613 15.3164 6.69696 15.2735 6.58719C15.2306 6.47743 15.1594 6.38099 15.0671 6.30771C14.9748 6.23444 14.8647 6.18693 14.7481 6.17004L10.4948 5.55271L8.59342 1.69937C8.53841 1.58773 8.45323 1.49372 8.34755 1.42798C8.24186 1.36223 8.11989 1.32739 7.99542 1.32739C7.87096 1.32739 7.74898 1.36223 7.6433 1.42798C7.53761 1.49372 7.45244 1.58773 7.39742 1.69937L5.49542 5.55271Z"
                      fill="#FFC700"
                    />
                  </g>
                  <defs>
                    <clipPath id="clip0_2_1110">
                      <rect
                        width="16"
                        height="16"
                        fill="white"
                        transform="translate(0 0.659363)"
                      />
                    </clipPath>
                  </defs>
                </svg>