<svg xmlns="http://www.w3.org/2000/svg" width="19" height="19" viewBox="0 0 19 19" fill="none">
<g clip-path="url(#clip0_58_211)">
<path d="M15.0361 11.5878L13.5361 11.5878" stroke="#171923" stroke-width="1.5" stroke-linecap="round" stroke-linejoin="round"/>
<path d="M10.5361 11.5878L9.03613 11.5878" stroke="#171923" stroke-width="1.5" stroke-linecap="round" stroke-linejoin="round"/>
<path d="M6.03613 11.5878L4.53613 11.5878" stroke="#171923" stroke-width="1.5" stroke-linecap="round" stroke-linejoin="round"/>
<path d="M15.0361 4.08783L15.0361 14.5878C15.0361 14.9857 14.8781 15.3672 14.5968 15.6485C14.3155 15.9298 13.934 16.0878 13.5361 16.0878L11.2861 16.0878C11.2861 15.69 11.1281 15.3085 10.8468 15.0272C10.5655 14.7459 10.184 14.5878 9.78613 14.5878C9.38831 14.5878 9.00678 14.7459 8.72547 15.0272C8.44417 15.3085 8.28613 15.69 8.28613 16.0878L6.03613 16.0878C5.63831 16.0878 5.25678 15.9298 4.97547 15.6485C4.69417 15.3672 4.53613 14.9857 4.53613 14.5878L4.53613 4.08783C4.53613 3.69 4.69417 3.30847 4.97547 3.02717C5.25678 2.74586 5.63831 2.58783 6.03613 2.58783L8.28613 2.58783C8.28613 2.98565 8.44417 3.36718 8.72547 3.64849C9.00678 3.92979 9.38831 4.08783 9.78613 4.08783C10.184 4.08783 10.5655 3.92979 10.8468 3.64849C11.1281 3.36719 11.2861 2.98565 11.2861 2.58783L13.5361 2.58783C13.934 2.58783 14.3155 2.74586 14.5968 3.02717C14.8781 3.30847 15.0361 3.69 15.0361 4.08783Z" stroke="#171923" stroke-width="1.5" stroke-linecap="round" stroke-linejoin="round"/>
</g>
<defs>
<clipPath id="clip0_58_211">
<rect width="18" height="18" fill="white" transform="translate(18.7852 0.33783) rotate(90)"/>
</clipPath>
</defs>
</svg>