<svg width="15" height="14" viewBox="0 0 15 14" fill="none" xmlns="http://www.w3.org/2000/svg">
<path d="M4.92069 4.52351L0.884132 5.10875L0.812638 5.1233C0.704409 5.15203 0.605745 5.20897 0.526721 5.28831C0.447696 5.36764 0.391142 5.46653 0.362835 5.57487C0.334528 5.68321 0.335481 5.79712 0.365597 5.90497C0.395713 6.01282 0.453914 6.11075 0.534255 6.18875L3.45854 9.03522L2.76891 13.056L2.76069 13.1256C2.75406 13.2375 2.77731 13.3492 2.82804 13.4492C2.87877 13.5492 2.95517 13.6339 3.04941 13.6947C3.14365 13.7554 3.25234 13.7901 3.36437 13.795C3.47639 13.8 3.58772 13.775 3.68694 13.7228L7.29707 11.8247L10.899 13.7228L10.9622 13.7519C11.0667 13.793 11.1802 13.8057 11.2911 13.7885C11.402 13.7713 11.5063 13.7249 11.5934 13.654C11.6805 13.5832 11.7471 13.4905 11.7865 13.3854C11.8259 13.2803 11.8367 13.1666 11.8176 13.056L11.1274 9.03522L14.0529 6.18812L14.1023 6.13434C14.1728 6.04751 14.219 5.94355 14.2362 5.83305C14.2535 5.72255 14.2411 5.60945 14.2004 5.50528C14.1597 5.40111 14.0921 5.30959 14.0045 5.24004C13.9169 5.1705 13.8125 5.12541 13.7018 5.10938L9.66522 4.52351L7.86079 0.866571C7.80858 0.760617 7.72775 0.671396 7.62745 0.609006C7.52715 0.546616 7.41139 0.51355 7.29327 0.51355C7.17515 0.51355 7.05939 0.546616 6.95909 0.609006C6.85879 0.671396 6.77796 0.760617 6.72575 0.866571L4.92069 4.52351Z" fill="#00D991"/>
</svg>
